<svg width="50" height="50" viewBox="0 0 50 50" fill="none" xmlns="http://www.w3.org/2000/svg">
<path d="M10.2795 2.36245V3.64877C10.2795 4.25225 10.769 4.7413 11.3725 4.7413H12.9239C13.4641 4.7413 13.9024 5.17961 13.9024 5.71977V10.5591H17.3791V3.0964C17.3791 2.10076 16.5742 1.29281 15.5785 1.28938L11.3774 1.26954C10.772 1.26687 10.2795 1.75706 10.2795 2.36245Z" fill="#E5E5E5"/>
<path d="M17.3785 3.09685V10.5584H15.7984V3.09685C15.7984 2.10045 14.9939 1.29288 13.999 1.28906H15.5787C16.5739 1.29288 17.3785 2.10045 17.3785 3.09685Z" fill="#E6E6E6"/>
<path d="M25.2357 9.91516H5.39395C4.75728 9.91516 4.16905 10.2779 3.85167 10.8658L1.90503 14.4745H28.7246L26.778 10.8658C26.4606 10.2779 25.8724 9.91516 25.2357 9.91516Z" fill="#C9C9C9"/>
<path d="M28.7242 14.4745H1.90454L2.66595 13.063H24.7347C25.1132 13.063 25.3546 12.6591 25.1746 12.3257L23.8745 9.91553H25.2356C25.8719 9.91553 26.4609 10.2775 26.7783 10.8661L28.7242 14.4745Z" fill="#E6EFF5"/>
<path d="M22.2104 48.7652H8.1498C7.69852 48.7652 7.28157 48.5417 7.05688 48.1789L5.67749 45.953H24.6831L23.3037 48.1789C23.0786 48.5413 22.6617 48.7652 22.2104 48.7652Z" fill="#E5E5E5"/>
<path d="M28.6582 18.7191L28.3446 24.8394L27.5851 43.5715C27.5248 45.0001 26.3595 46.1304 24.9335 46.1537C24.9183 46.1548 24.9034 46.1548 24.8881 46.1548H5.47208C4.02631 46.1548 2.8365 45.0154 2.77509 43.5715L1.70239 18.7191H28.6582Z" fill="#E2E2E2"/>
<path d="M28.6579 18.7191L28.431 23.6439L28.2227 24.4488L27.5853 43.5715C27.5257 44.9822 26.3893 46.1014 24.989 46.1517C25.0351 45.9713 25.0645 45.7829 25.0725 45.5883L26.12 21.3249C26.1338 21.0037 25.877 20.7356 25.5555 20.7356H1.78874L1.70215 18.7191H28.6579Z" fill="#A5A5A5"/>
<path d="M2.14526 28.9799C2.14526 28.9799 14.7433 30.6649 28.4453 23.6436L27.9135 35.9673C27.9135 35.9673 16.4405 40.8646 2.55496 38.482L2.14526 28.9799Z" fill="#C9C9C9"/>
<path d="M29.3869 19.2364H1.24283C0.556183 19.2364 0 18.6802 0 17.994V15.1604C0 14.4742 0.556183 13.918 1.24283 13.918H29.3869C30.0732 13.918 30.6297 14.4742 30.6297 15.1604V17.994C30.6297 18.6802 30.0732 19.2364 29.3869 19.2364Z" fill="#E5E5E5"/>
<path d="M47.6397 42.6837H24.5887C23.2852 42.6837 22.2285 41.6271 22.2285 40.3236V37.9478C22.2285 36.6443 23.2852 35.5876 24.5887 35.5876H47.6401C48.9432 35.5876 49.9999 36.6443 49.9999 37.9478V40.3236C49.9999 41.6271 48.9432 42.6837 47.6397 42.6837Z" fill="#A5A5A5"/>
<path d="M47.6397 42.6837H24.5887C23.2852 42.6837 22.2285 41.6271 22.2285 40.3236V37.9478C22.2285 36.6443 23.2852 35.5876 24.5887 35.5876H47.6401C48.9432 35.5876 49.9999 36.6443 49.9999 37.9478V40.3236C49.9999 41.6271 48.9432 42.6837 47.6397 42.6837Z" fill="#A5A5A5"/>
<path d="M45.9865 48.7625H26.242C24.0558 48.7625 22.2834 46.9901 22.2834 44.8039V43.4402C22.2834 42.7238 22.864 42.1432 23.5804 42.1432H48.6483C49.3644 42.1432 49.945 42.7238 49.945 43.4402V44.8039C49.945 46.9901 48.1727 48.7625 45.9865 48.7625Z" fill="#E6E6E6"/>
<path d="M49.9454 43.4406V44.8036C49.9454 46.9902 48.1727 48.7628 45.9862 48.7628H26.2421C24.5937 48.7628 23.1811 47.7546 22.5864 46.3218C23.1529 46.6342 23.8033 46.8128 24.4961 46.8128H44.2398C46.4268 46.8128 48.1983 45.0405 48.1983 42.8546V42.1428H48.6488C49.3645 42.1428 49.9454 42.7238 49.9454 43.4406Z" fill="#E6E6E6"/>
<path d="M25.6865 35.5876L31.2945 39.3776C32.0395 39.8811 33.021 39.8594 33.7428 39.3234L38.7755 35.5876H25.6865Z" fill="#A5A5A5"/>
<path d="M49.3784 32.4372C48.1436 29.1249 45.5309 27.1633 42.948 26.0029C38.6111 24.0544 33.6173 24.0544 29.2799 26.0029C26.6974 27.1633 24.0847 29.1249 22.8499 32.4372C22.5264 33.3054 22.3784 34.2293 22.3792 35.1563C22.3795 35.7045 22.8289 36.147 23.3771 36.147H48.8512C49.3994 36.147 49.8488 35.7045 49.8492 35.1563C49.8499 34.2293 49.7019 33.3054 49.3784 32.4372Z" fill="#E6E6E6"/>
<path d="M49.8497 35.1562C49.8485 35.704 49.3999 36.1465 48.8513 36.1465H23.3768C22.8294 36.1465 22.3796 35.704 22.3796 35.1562C22.3796 34.8389 22.3968 34.5222 22.4319 34.2075C22.5215 34.2381 22.6165 34.2529 22.7153 34.2529H46.1856C46.6907 34.2529 47.1042 33.8459 47.105 33.3408C47.105 32.4867 46.9692 31.6357 46.6705 30.8353C45.7874 28.4668 44.1398 26.8478 42.3343 25.7416C42.5399 25.8244 42.7444 25.9109 42.9481 26.0029C45.5314 27.1633 48.1433 29.1252 49.3785 32.4371C49.7024 33.3054 49.8504 34.2297 49.8497 35.1562Z" fill="#E6E6E6"/>
</svg>
