<?xml version="1.0" encoding="UTF-8"?>
<svg viewBox="0 0 300 227" xmlns="http://www.w3.org/2000/svg">
<path d="m155.25 85.229s23.123 31.103 43.62 28.103c20.498-3 34.252-35.25 34.252-35.25l-8.25-5.25s-29.377 43.732-55.252-5.25l-14.37 17.648z" fill="#AD4C4C"/>
<path d="m155.25 85.229s23.123 31.103 43.62 28.103c20.498-3 34.252-35.25 34.252-35.25l-8.25-5.25s-29.377 43.732-55.252-5.25l-14.37 17.648z" opacity=".08"/>
<path d="m173.35 71.287s6.473 3.8625 8.175 10.425c1.703 6.5625 1.343 23.19-12.067 31.5s-27.855 12-25.605 21.75l-7.688-3.75 9.563-20.625 21.825-12.345 5.797-26.955z" fill="#AD4C4C"/>
<path d="m150.16 193.52c67.865 0 122.88-6.957 122.88-15.54 0-8.582-55.015-15.54-122.88-15.54-67.865 0-122.88 6.958-122.88 15.54 0 8.583 55.015 15.54 122.88 15.54z" fill="#E6E6E6" opacity=".45"/>
<path d="m163.09 170.44s2.662 2.25 5.355 0.99c2.692-1.26 4.815 0.863 2.88 2.843s-9.6 2.452-9.6 2.452l-2.168-4.192 3.533-2.093z" fill="#AD4C4C"/>
<path d="m76.148 153.21s-3.48-0.12-4.815 2.535-4.3125 2.303-4.0275-0.45c0.285-2.752 6-7.86 6-7.86l4.2975 1.943-1.455 3.832z" fill="#AD4C4C"/>
<path d="m182.08 55.927s0.75 5.1075 0.045 8.5575c-0.061 0.338-0.189 0.6605-0.376 0.9485-0.188 0.2879-0.431 0.5356-0.715 0.7284s-0.604 0.3269-0.941 0.3944-0.684 0.067-1.02-0.0013c-1.733-0.36-3.975-1.365-4.695-4.05l-1.785-4.41c-0.265-0.9199-0.236-1.8993 0.081-2.8023 0.317-0.9031 0.907-1.6851 1.689-2.2377 2.782-2.25 7.432-0.255 7.717 2.8725z" fill="#F4A28C"/>
<path d="m176.14 57.944-13.38 10.298 6.203 6.9675 7.065-10.035 0.112-7.23z" fill="#F4A28C"/>
<path d="m180.82 56.212c-1.586 0.1498-3.184 0.1146-4.762-0.105 0.498 0.6743 0.788 1.4798 0.833 2.3168 0.045 0.8371-0.156 1.6691-0.578 2.3932-0.395 0.7085-1.024 1.2575-1.779 1.5531-0.756 0.2956-1.59 0.3192-2.361 0.0669l-0.278-6.615c-0.071-0.9444 0.114-1.8906 0.537-2.7383 0.422-0.8476 1.066-1.5652 1.863-2.0767 0.693-0.4429 1.412-0.8436 2.153-1.2 1.86-0.8625 4.717 0.255 6.352-1.125 0.166-0.1361 0.363-0.2274 0.574-0.2648 0.211-0.0375 0.428-0.02 0.63 0.0509s0.383 0.1927 0.524 0.3537 0.238 0.3556 0.282 0.5652c0.405 1.995 0.218 5.175-2.437 6.4275-0.492 0.2179-1.017 0.3523-1.553 0.3975z" fill="#24285B"/>
<path d="m176.86 60.629s-0.15-1.98-1.628-1.74c-1.477 0.24-1.282 3.09 0.75 3.2475l0.878-1.5075z" fill="#F4A28C"/>
<path d="m182.38 59.166 1.538 1.905c0.087 0.1079 0.146 0.236 0.171 0.3726 0.024 0.1366 0.014 0.2773-0.03 0.4089s-0.121 0.2499-0.223 0.3441c-0.102 0.0941-0.226 0.161-0.361 0.1944l-1.95 0.4725 0.855-3.6975z" fill="#F4A28C"/>
<path d="m175.83 65.459c-0.602-0.9744-0.926-2.0947-0.938-3.24 0 0-3.127 1.98-1.087 6.1125l2.025-2.8725z" fill="#CE8172" opacity=".31"/>
<path d="m170.94 72.404s-3.525-7.0575-17.775-7.125-49.147 18.578-46.747 59.182l29.745 6.75s5.497-13.657 23.039-19.5c18.008-6.015 20.595-33.36 11.738-39.307z" fill="#fff"/>
<path d="m164.93 66.554s-33-19.365-58.635-16.365c-25.635 3-39.405 32.625-39.405 32.625l7.395 5.25s25.5-29.572 41.625-19.095c16.125 10.478 44.032 31.973 49.02-2.415z" fill="#AD4C4C"/>
<path d="m127.72 72.712s-28.5 14.625-27.375 50.437l18 6.188s2.437-36.563 36.375-40.125c0 0 12.555-6.9 13.725-18.255 0 0 1.702-4.215-11.078-8.355l-29.647 10.11z" fill="#AD4C4C"/>
<path d="m171.4 69.314-0.697 4.2675h2.415l0.232-4.59-1.95 0.3225z" fill="#fff"/>
<path d="m167.77 81.554s-6.578 24.068-25.148 26.325c-18.57 2.258-40.23-2.437-40.23-2.437 1.237-4.666 3.145-9.1273 5.663-13.245 4.237-6.975 24.067-0.255 24.067-0.255l35.648-10.388z" opacity=".08"/>
<path d="m168.57 69.269s-1.808 4.725 0 5.4675c0.915 0.3825 2.047-0.195 2.94-0.855 0.449-0.3388 0.769-0.8214 0.905-1.3674 0.137-0.5459 0.082-1.1221-0.155-1.6326l-0.75-1.65-2.94 0.0375z" fill="#FFD200"/>
<path d="m170.7 72.404s1.275 13.808-18.413 24.682c-19.687 10.876-41.152 0-41.152 0l-6.473-10.238 13.688-2.8875s31.567 13.342 49.815-12.442l2.535 0.885z" fill="#FFD200"/>
<path d="m102.82 124s-4.6575 10.71 5.34 16.215c5.895 3.24 16.297 4.942 23.85 5.79 2.909 0.329 5.707 1.309 8.185 2.867 2.479 1.558 4.575 3.654 6.132 6.133l11.768 18.615 6.832-4.313-6.547-16.762c-1.748-4.487-4.372-8.58-7.72-12.041-3.349-3.46-7.353-6.218-11.78-8.112l-2.693-1.147-33.367-7.245z" fill="#24285B"/>
<path d="m125.43 139.3s0.503 18.255-15.247 21c-15.75 2.745-35.498-6.495-35.498-6.495l3.495-6.255s32.505 10.005 30.255-10.245l16.995 1.995z" fill="#24285B"/>
<path d="m164.93 65.909 2.618-1.35 3.847 4.755-2.947 3.75-3.518-7.155z" fill="#fff"/>
<path d="m66.892 82.837-1.335 2.9925 6.9975 5.25 1.7325-2.9925-7.395-5.25z" fill="#AD4C4C" opacity=".26"/>
<path d="m66.292 86.376s-7.11 7.605-2.1375 9.5924c4.9725 1.9875 6.9675 1.92 8.4-4.8899l-6.2625-4.7025z" fill="#F4A28C"/>
<path d="m226.17 73.679 1.2-2.52 6.503 4.62-0.75 2.3025-6.953-4.4025z" fill="#AD4C4C" opacity=".4"/>
<path d="m228.52 71.977s5.73-7.1325 10.23-5.01 3.375 5.6925-4.875 8.8125l-5.355-3.8025z" fill="#F4A28C"/>
</svg>
