<svg xmlns="http://www.w3.org/2000/svg" width="300" height="227" fill="none"><path fill="#AD4C4C" d="M155.25 85.229s23.123 31.103 43.62 28.103c20.498-3 34.252-35.25 34.252-35.25l-8.25-5.25s-29.377 43.732-55.252-5.25l-14.37 17.647Z"/><path fill="#000" d="M155.25 85.229s23.123 31.103 43.62 28.103c20.498-3 34.252-35.25 34.252-35.25l-8.25-5.25s-29.377 43.732-55.252-5.25l-14.37 17.647Z" opacity=".08"/><path fill="#AD4C4C" d="M173.347 71.287s6.473 3.862 8.175 10.425c1.703 6.562 1.343 23.19-12.067 31.5-13.41 8.31-27.855 12-25.605 21.75l-7.688-3.75 9.563-20.625 21.825-12.345 5.797-26.955Z"/><path fill="#E6E6E6" d="M150.165 193.521c67.865 0 122.88-6.957 122.88-15.54 0-8.582-55.015-15.54-122.88-15.54s-122.88 6.958-122.88 15.54c0 8.583 55.015 15.54 122.88 15.54Z" opacity=".45"/><path fill="#AD4C4C" d="M163.088 170.444s2.662 2.25 5.355.99c2.692-1.26 4.815.863 2.88 2.843-1.935 1.98-9.6 2.452-9.6 2.452l-2.168-4.192 3.533-2.093ZM76.147 153.209s-3.48-.12-4.815 2.535c-1.334 2.655-4.312 2.303-4.027-.45.285-2.752 6-7.86 6-7.86l4.297 1.943-1.455 3.832Z"/><path fill="#F4A28C" d="M182.085 55.927s.75 5.107.045 8.557a2.585 2.585 0 0 1-1.091 1.677 2.576 2.576 0 0 1-1.961.393c-1.733-.36-3.975-1.365-4.695-4.05l-1.785-4.41a4.609 4.609 0 0 1 1.77-5.04c2.782-2.25 7.432-.255 7.717 2.873Z"/><path fill="#F4A28C" d="m176.145 57.944-13.38 10.298 6.203 6.967 7.065-10.035.112-7.23Z"/><path fill="#24285B" d="M180.817 56.212c-1.586.15-3.184.114-4.762-.106a4.288 4.288 0 0 1 .255 4.71 3.496 3.496 0 0 1-4.14 1.62l-.278-6.614a5.25 5.25 0 0 1 2.4-4.816 20.49 20.49 0 0 1 2.153-1.2c1.86-.862 4.717.256 6.352-1.124a1.248 1.248 0 0 1 1.728.14c.141.16.238.355.282.564.405 1.995.218 5.175-2.437 6.428a4.84 4.84 0 0 1-1.553.398Z"/><path fill="#F4A28C" d="M176.858 60.63s-.15-1.98-1.628-1.74c-1.477.24-1.282 3.09.75 3.247l.878-1.508ZM182.377 59.166l1.538 1.906a.833.833 0 0 1 .141.781.825.825 0 0 1-.584.538l-1.95.473.855-3.697Z"/><path fill="#CE8172" d="M175.83 65.46a6.29 6.29 0 0 1-.938-3.24s-3.127 1.98-1.087 6.112l2.025-2.873Z" opacity=".31"/><path fill="#fff" d="M170.94 72.404s-3.525-7.057-17.775-7.125c-14.25-.067-49.147 18.578-46.747 59.182l29.745 6.75s5.497-13.657 23.039-19.5c18.008-6.015 20.595-33.36 11.738-39.307Z"/><path fill="#AD4C4C" d="M164.933 66.554s-33-19.365-58.635-16.365c-25.635 3-39.405 32.625-39.405 32.625l7.395 5.25s25.5-29.572 41.625-19.095c16.125 10.478 44.032 31.973 49.02-2.415Z"/><path fill="#AD4C4C" d="M127.725 72.712s-28.5 14.625-27.375 50.437l18 6.188s2.437-36.563 36.375-40.125c0 0 12.555-6.9 13.725-18.255 0 0 1.702-4.215-11.078-8.355l-29.647 10.11Z"/><path fill="#fff" d="m171.397 69.314-.697 4.268h2.415l.232-4.59-1.95.322Z"/><path fill="#000" d="M167.768 81.554s-6.578 24.068-25.148 26.325c-18.57 2.258-40.23-2.437-40.23-2.437a49.906 49.906 0 0 1 5.663-13.245c4.237-6.975 24.067-.255 24.067-.255l35.648-10.388Z" opacity=".08"/><path fill="#FFD200" d="M168.57 69.269s-1.808 4.725 0 5.467c.915.383 2.047-.195 2.94-.855a2.458 2.458 0 0 0 .75-3l-.75-1.65-2.94.038Z"/><path fill="#FFD200" d="M170.7 72.404s1.275 13.808-18.413 24.683c-19.687 10.875-41.152 0-41.152 0l-6.473-10.238 13.688-2.888s31.567 13.343 49.815-12.442l2.535.885Z"/><path fill="#24285B" d="M102.825 123.997s-4.657 10.71 5.34 16.215c5.895 3.24 16.297 4.942 23.85 5.79a19.495 19.495 0 0 1 14.317 9l11.768 18.615 6.832-4.313-6.547-16.762a36.224 36.224 0 0 0-19.5-20.153l-2.693-1.147-33.367-7.245Z"/><path fill="#24285B" d="M125.43 139.304s.503 18.255-15.247 21c-15.75 2.745-35.498-6.495-35.498-6.495l3.495-6.255s32.505 10.005 30.255-10.245l16.995 1.995Z"/><path fill="#fff" d="m164.932 65.91 2.618-1.35 3.847 4.754-2.947 3.75-3.518-7.155Z"/><path fill="#AD4C4C" d="m66.892 82.837-1.334 2.992 6.997 5.25 1.732-2.992-7.395-5.25Z" opacity=".26"/><path fill="#F4A28C" d="M66.293 86.376s-7.11 7.605-2.138 9.593c4.972 1.987 6.968 1.92 8.4-4.89l-6.263-4.703Z"/><path fill="#AD4C4C" d="m226.17 73.68 1.2-2.52 6.503 4.62-.75 2.302-6.953-4.403Z" opacity=".4"/><path fill="#F4A28C" d="M228.517 71.977s5.73-7.133 10.23-5.01c4.5 2.122 3.375 5.692-4.875 8.812l-5.355-3.802Z"/></svg>