<svg width="50" height="50" viewBox="0 0 50 50" fill="none" xmlns="http://www.w3.org/2000/svg">
<g clip-path="url(#clip0)">
<path d="M50 27.8659C50 34.6568 45.6104 40.2141 40.2455 40.2141H34.5223C33.0357 40.2141 31.6231 39.7872 30.3593 39.025C26.7101 36.8281 24.7677 32.2696 24.7677 27.8659C24.7677 24.6402 25.9659 21.7521 27.8275 19.8802C28.8983 18.8025 29.7402 17.4384 30.3127 15.9118C30.7255 14.8127 30.999 13.631 31.1203 12.4083C31.168 11.9319 31.192 11.4482 31.192 10.9614C31.192 6.65082 33.9791 3.12451 37.3841 3.12451C39.0869 3.12451 40.6349 4.00571 41.7572 5.42668C42.8795 6.84728 43.5757 8.80612 43.5757 10.9614C43.5757 14.4252 44.7991 17.7249 46.941 19.8802C47.871 20.8163 48.6359 22.0061 49.1684 23.3653C49.7006 24.7252 50 26.253 50 27.8659Z" fill="#35E298"/>
<path d="M36.8576 23.9513C36.7817 26.2867 36.1092 28.5744 34.9606 30.6599L30.3597 39.0251C26.7101 36.8282 24.7677 32.2697 24.7677 27.866C24.7677 24.6403 25.9659 21.7522 27.8278 19.8803C28.8982 18.8026 29.7401 17.4385 30.3131 15.9119C30.7259 14.8129 30.999 13.6311 31.1203 12.4084C32.9437 13.3873 34.8896 15.2084 36.0535 18.589C36.6535 20.3339 36.9175 22.1458 36.8576 23.9513Z" fill="#1AB975"/>
<path d="M44.9298 28.291C44.9298 32.3502 41.6393 35.6411 37.5801 35.6411C33.5209 35.6411 30.2299 32.3502 30.2299 28.291C30.2299 24.2317 33.5209 20.9408 37.5801 20.9408C41.6393 20.9408 44.9298 24.2317 44.9298 28.291Z" fill="#AE583E"/>
<path d="M36.6634 20.9976C30.1758 21.8047 27.9198 30.0922 33.0711 34.0953L34.9606 30.6598C36.1088 28.5743 36.7817 26.2866 36.8576 23.9513C36.89 22.9644 36.8263 21.976 36.6634 20.9976Z" fill="#7C3F2C"/>
<path d="M15.8604 8.51331C15.4762 6.76427 13.4952 0.430727 5.12541 1.87154C4.88165 1.9135 4.74547 2.17748 4.8519 2.40102C5.71898 4.22177 9.39635 10.97 15.5178 9.09276C15.7654 9.01685 15.9157 8.76622 15.8604 8.51331Z" fill="#1ED688"/>
<path d="M15.5171 9.09238C9.3964 10.9704 5.71903 4.22215 4.85195 2.40102C4.7459 2.17709 4.88132 1.91312 5.12508 1.87154C5.84148 1.74832 6.51249 1.68156 7.13886 1.66516C8.42289 3.93071 11.2976 7.88541 15.6044 7.58061C15.7265 7.95522 15.8085 8.2768 15.8604 8.51369C15.9161 8.7666 15.765 9.01647 15.5171 9.09238Z" fill="#1AB975"/>
<path d="M16.272 14.0854C15.8528 14.0854 15.5132 13.7459 15.5132 13.3267V2.48872C15.5132 2.06949 15.8528 1.72998 16.272 1.72998C16.6912 1.72998 17.0307 2.06949 17.0307 2.48872V13.3267C17.0307 13.7459 16.6912 14.0854 16.272 14.0854Z" fill="#C0694E"/>
<path d="M30.6366 30.6594L25.2961 40.3698C23.9148 42.6326 20.7722 43.4547 18.2927 42.1615C17.022 41.4989 15.5224 41.4989 14.2502 42.1615C11.8279 43.4249 8.66627 42.6902 7.24797 40.3698L1.90624 30.6594C-0.281485 26.6834 -0.501212 22.4174 0.813715 18.589C2.4548 13.8187 5.65647 12.1543 7.86824 11.5795C8.88333 11.3155 9.6909 11.2812 10.0441 11.2812C10.1693 11.2812 10.2372 11.285 10.2372 11.285C11.237 11.285 12.1952 11.4532 13.0787 11.7595C13.9611 12.0662 14.7706 12.5125 15.4736 13.068C15.7032 13.2644 15.9878 13.3636 16.272 13.3636C16.5566 13.3636 16.8408 13.2644 17.0704 13.068C17.7739 12.5125 18.5822 12.0662 19.4657 11.7595C20.3488 11.4532 21.3063 11.285 22.3069 11.285C22.3069 11.285 29.0692 10.8539 31.7296 18.589C33.0548 22.4422 32.8125 26.7089 30.6366 30.6594Z" fill="#C42D2D"/>
<path d="M30.6366 30.6594L25.296 40.3698C23.9147 42.6326 20.7721 43.4547 18.2926 42.1615C17.0219 41.4989 15.5224 41.4989 14.2502 42.1615C13.5685 42.5174 12.8391 42.7093 12.1265 42.7597C12.0857 42.6784 7.84489 33.3519 6.76343 30.9742C3.52971 23.8651 4.7836 15.9431 7.86816 11.5795C8.88326 11.3155 9.69083 11.2812 10.0441 11.2812C10.1692 11.2812 10.2371 11.285 10.2371 11.285C11.2369 11.285 12.1952 11.4532 13.0787 11.7595C13.961 12.0662 14.7705 12.5125 15.4735 13.068C15.7032 13.2644 15.9878 13.3636 16.2719 13.3636C16.5565 13.3636 16.8407 13.2644 17.0704 13.068C17.7738 12.5125 18.5821 12.0662 19.4656 11.7595C20.3487 11.4532 21.3062 11.285 22.3068 11.285C22.3068 11.285 29.0691 10.8539 31.7295 18.589C33.0547 22.4422 32.8125 26.7089 30.6366 30.6594Z" fill="#F44545"/>
<path d="M6.63834 33.0765C5.78652 33.5258 5.46036 34.5806 5.90973 35.4328C6.4373 36.4319 7.10373 37.2997 7.84111 38.0508L2.02332 37.4027C1.06621 37.2963 0.203706 37.9856 0.096894 38.9431C-0.00953608 39.9002 0.680161 40.7627 1.63727 40.8695L7.45468 41.5176C6.57006 42.0883 5.72891 42.7883 4.99458 43.6466C4.36859 44.3787 4.45442 45.4796 5.18646 46.1056C5.9185 46.7316 7.01943 46.6457 7.64542 45.9137C9.63822 43.5837 13.2511 42.5842 16.3082 42.4843C17.5217 42.445 18.3277 41.2033 17.8635 40.0791C17.6537 39.5687 17.2016 39.1685 16.6317 39.0411C16.5764 39.0285 11.0489 37.6972 8.99468 33.8047C8.54492 32.9529 7.49016 32.6267 6.63834 33.0765Z" fill="#1AB975"/>
<path d="M49.807 44.4912C49.5579 46.7255 47.6707 48.4173 45.4224 48.4215C32.531 48.4467 41.5409 48.4295 20.792 48.4692C16.4814 48.4772 13.1229 44.7312 13.6005 40.448C13.7058 39.5069 13.9862 38.6315 14.4031 37.8483C15.6395 35.529 18.0855 34.0233 20.768 34.0233C21.3001 34.0233 21.8426 34.0821 22.3858 34.2068C40.6673 38.3835 42.0856 38.7074 43.2732 38.9786L44.7647 39.3196L46.3978 39.6931C48.1796 40.099 49.482 41.5406 49.7723 43.266C49.8402 43.6615 49.8535 44.0735 49.807 44.4912Z" fill="#FFA90B"/>
<path d="M49.7723 43.2659C48.9628 44.3245 47.6879 44.9993 46.2692 45.0013C33.379 45.0268 42.3886 45.0096 21.64 45.0489C17.6068 45.0562 14.4081 41.7786 14.4032 37.8483C15.6395 35.529 18.0851 34.0233 20.7676 34.0233C21.056 34.0233 21.3467 34.0405 21.6389 34.0771C21.8868 34.1065 22.1367 34.15 22.3858 34.2068L23.1316 34.3766C42.4416 38.7894 25.227 34.8553 43.2732 38.9786L44.7644 39.3196L46.3978 39.6931C48.1796 40.099 49.482 41.5406 49.7723 43.2659Z" fill="#FFB52D"/>
<path d="M44.7644 39.3195L44.1887 45.1854C44.1452 45.573 43.8175 45.8602 43.4361 45.8602C43.4075 45.8602 43.3792 45.8583 43.351 45.8553C42.9341 45.8087 42.6346 45.4345 42.68 45.0176L43.2732 38.9785L44.7644 39.3195Z" fill="#F29500"/>
<path d="M24.0403 43.6552L23.5302 48.4637L22.0032 48.4667L22.5315 43.4874C22.5781 43.0705 22.9523 42.7699 23.3692 42.8164C23.7862 42.8629 24.0868 43.2383 24.0403 43.6552Z" fill="#F29500"/>
<path d="M37.9292 45.2027L37.5924 48.4368L36.0653 48.4399L36.4205 45.0349C36.467 44.6179 36.8424 44.3185 37.2593 44.365C37.6751 44.4115 37.9757 44.7858 37.9292 45.2027Z" fill="#F29500"/>
<path d="M31.9206 36.3852L31.6933 38.9338C31.6498 39.3214 31.3217 39.609 30.9403 39.609C30.912 39.609 30.8838 39.6067 30.8552 39.6037C30.4382 39.5571 30.138 39.1829 30.1846 38.766L30.4283 36.0442L31.9206 36.3852Z" fill="#F29500"/>
<path d="M28.9398 45.3685L28.6209 48.4538L27.0943 48.4569L27.4311 45.2007C27.4777 44.7837 27.8542 44.4831 28.27 44.5297C28.6858 44.5762 28.9864 44.9516 28.9398 45.3685Z" fill="#F29500"/>
<path d="M23.1316 34.3765L22.6063 39.088C22.5628 39.4756 22.234 39.7628 21.8525 39.7628C21.8243 39.7628 21.7961 39.7609 21.7675 39.7579C21.3509 39.7113 21.0511 39.3356 21.0976 38.9198L21.632 34.1224C21.6339 34.1075 21.6362 34.0923 21.6393 34.077C21.8869 34.1064 22.1371 34.1499 22.3858 34.2067L23.1316 34.3765Z" fill="#F29500"/>
</g>
<defs>
<clipPath id="clip0">
<rect width="50" height="50" fill="white"/>
</clipPath>
</defs>
</svg>
