<svg width="300" height="227" viewBox="0 0 300 227" fill="none" xmlns="http://www.w3.org/2000/svg">
<path opacity="0.54" d="M106.725 146.572C106.725 146.572 77.0626 150.509 75.9376 134.467C74.8126 118.424 80.8126 116.407 68.0626 111.044C55.3126 105.682 64.3126 123.659 53.8126 121.604C43.3126 119.549 57.5626 102.697 48.1876 98.7517C38.8126 94.8067 22.6876 101.557 27.5626 114.682C32.4376 127.807 45.5626 125.009 46.3126 134.467C47.0626 143.924 29.8126 153.299 44.8126 160.612C52.7251 164.474 59.1826 161.797 63.5101 158.399C65.5278 156.775 67.8769 155.614 70.392 154.995C72.9071 154.377 75.5271 154.318 78.0676 154.822C85.7302 156.454 93.722 155.369 100.673 151.754L106.725 146.572Z" fill="#E6E6E6"/>
<path d="M171 156.097C171 156.097 171.203 158.864 173.423 159.697C175.643 160.529 175.613 162.929 173.423 162.929C171.233 162.929 166.673 158.819 166.673 158.819L167.745 155.572L171 156.097Z" fill="#AD4C4C"/>
<path opacity="0.08" d="M171 156.097C171 156.097 171.203 158.864 173.423 159.697C175.643 160.529 175.613 162.929 173.423 162.929C171.233 162.929 166.673 158.819 166.673 158.819L167.745 155.572L171 156.097Z" fill="black"/>
<path d="M171.33 103.934C171.33 103.934 179.775 100.642 180.607 103.934C181.44 107.227 170.07 108.719 170.07 108.719L171.33 103.934Z" fill="#F4A28C"/>
<path opacity="0.08" d="M171.33 103.934C171.33 103.934 179.775 100.642 180.607 103.934C181.44 107.227 170.07 108.719 170.07 108.719L171.33 103.934Z" fill="black"/>
<path opacity="0.45" d="M153.9 195.772C98.6811 195.772 53.9174 190.107 53.9174 183.119C53.9174 176.132 98.6811 170.467 153.9 170.467C209.119 170.467 253.882 176.132 253.882 183.119C253.882 190.107 209.119 195.772 153.9 195.772Z" fill="#E6E6E6"/>
<path d="M187.733 49.4318C187.733 49.4318 188.145 54.9743 187.163 58.6418C186.971 59.3555 186.504 59.964 185.864 60.3338C185.224 60.7036 184.464 60.8045 183.75 60.6143C181.913 60.0968 179.573 58.8593 178.988 55.9118L177.39 51.0368C177.172 50.0288 177.271 48.978 177.674 48.0286C178.077 47.0792 178.763 46.2777 179.64 45.7343C182.798 43.5218 187.65 46.0418 187.733 49.4318Z" fill="#F4A28C"/>
<path d="M182.603 50.6992L166.095 58.3792L170.978 67.1767L180.78 58.2892L182.603 50.6992Z" fill="#F4A28C"/>
<path d="M186.352 49.6418C184.633 49.6936 182.913 49.54 181.23 49.1843C181.718 49.9451 181.972 50.8321 181.961 51.7358C181.95 52.6394 181.675 53.5201 181.17 54.2693C180.697 55.009 179.978 55.559 179.141 55.8235C178.304 56.0881 177.4 56.0503 176.587 55.7168L176.775 48.5543C176.765 47.5329 177.031 46.5277 177.546 45.6456C178.061 44.7635 178.805 44.0373 179.7 43.5443C180.475 43.1134 181.276 42.7326 182.1 42.4043C184.17 41.6093 187.162 43.0193 189.022 41.6543C189.21 41.5189 189.429 41.4343 189.659 41.4086C189.889 41.3829 190.121 41.4169 190.334 41.5075C190.547 41.598 190.732 41.7419 190.873 41.9253C191.014 42.1087 191.105 42.3254 191.137 42.5543C191.43 44.7368 190.995 48.1418 188.047 49.3043C187.505 49.5096 186.932 49.6237 186.352 49.6418Z" fill="#24285B"/>
<path d="M181.763 54.1117C181.763 54.1117 181.763 51.9742 180.143 52.1167C178.523 52.2592 178.53 55.3567 180.713 55.6717L181.763 54.1117Z" fill="#F4A28C"/>
<path d="M187.807 52.9342L189.307 55.0942C189.394 55.2168 189.449 55.3593 189.466 55.5087C189.484 55.658 189.463 55.8092 189.406 55.9484C189.349 56.0875 189.258 56.21 189.141 56.3046C189.024 56.3991 188.885 56.4626 188.737 56.4892L186.607 56.8567L187.807 52.9342Z" fill="#F4A28C"/>
<path d="M171.555 103.844L152.445 98.9992C152.445 98.9992 171.795 91.0267 167.107 76.6717C162.42 62.3167 136.245 103.154 136.245 103.154L169.74 109.109L171.555 103.844Z" fill="#AD4C4C"/>
<path opacity="0.08" d="M171.555 103.844L152.445 98.9992C152.445 98.9992 171.795 91.0267 167.107 76.6717C162.42 62.3167 136.245 103.154 136.245 103.154L169.74 109.109L171.555 103.844Z" fill="black"/>
<path d="M96.5099 112.154C96.5099 112.154 94.5749 130.154 116.722 128.767C128.107 128.062 141.277 127.897 151.395 127.904C153.412 127.907 155.405 128.35 157.232 129.204C159.06 130.058 160.679 131.302 161.975 132.847C163.271 134.393 164.214 136.204 164.736 138.152C165.259 140.101 165.349 142.14 165 144.127L163.11 154.942L170.445 156.592L173.25 144.847C174.811 138.25 173.791 131.307 170.401 125.437C167.01 119.567 161.504 115.215 155.01 113.272L141.12 109.109L96.5099 112.154Z" fill="#24285B"/>
<path d="M159.292 113.804C159.292 113.804 176.955 117.869 176.122 138.014L172.372 156.629L167.467 155.714C167.467 155.714 172.575 119.947 153.885 115.169V112.987L159.292 113.804Z" fill="#24285B"/>
<path d="M174.472 70.5818L166.095 58.3793C166.095 58.3793 157.432 54.0143 138.877 55.6718C120.322 57.3293 93.7499 71.7218 96.5099 112.154L136.305 113.122C136.305 113.122 127.425 100.559 144 99.7343C160.575 98.9093 180.817 94.0043 174.472 70.5818Z" fill="#AD4C4C"/>
<path opacity="0.08" d="M140.835 72.3066C140.835 72.3066 112.095 76.7166 111.045 112.507L139.5 113.744L135.24 99.7341L140.835 72.3066Z" fill="black"/>
<path d="M150.683 51.5542C150.683 51.5542 174.203 53.0542 174.353 70.0642C174.503 87.0742 161.408 95.2042 148.103 98.2342C131.798 101.947 115.328 93.1342 111.06 75.1867L117.36 69.2317C117.36 69.2317 121.11 87.5092 138.135 86.2642C155.16 85.0192 182.55 64.5592 144.885 57.2467L150.683 51.5542Z" fill="#24285B"/>
<path d="M154.928 64.4469C156.632 63.8322 158.476 63.7161 160.243 64.1124C162.011 64.5086 163.629 65.4007 164.907 66.684C166.186 67.9672 167.072 69.5885 167.462 71.3575C167.851 73.1266 167.729 74.9701 167.108 76.6719L166.988 76.9869C162.833 87.6519 141.098 100.664 141.098 100.664L170.445 105.644L169.065 112.394C169.065 112.394 138.045 118.349 126.698 109.072C116.25 100.589 130.83 73.1619 154.928 64.4469Z" fill="#AD4C4C"/>
<path opacity="0.46" d="M154.928 64.4469C156.632 63.8322 158.476 63.7161 160.243 64.1124C162.011 64.5086 163.629 65.4007 164.907 66.684C166.186 67.9672 167.072 69.5885 167.462 71.3575C167.851 73.1266 167.729 74.9701 167.108 76.6719L166.988 76.9869C162.833 87.6519 141.098 100.664 141.098 100.664L170.445 105.644L169.065 112.394C169.065 112.394 138.045 118.349 126.698 109.072C116.25 100.589 130.83 73.1619 154.928 64.4469Z" fill="white"/>
<path d="M146.865 174.187H119.415L99.9751 154.627L105.51 145.522L143.175 158.954L146.865 174.187Z" fill="#24285B"/>
<path d="M154.11 55.9866C154.11 55.9866 156.398 42.0291 144.968 37.6641C134.25 33.5541 103.598 39.0216 94.3201 66.8616C93.8116 68.4159 93.7966 70.0895 94.2774 71.6527C94.7581 73.2158 95.711 74.5917 97.0051 75.5916L100.223 78.0966C101.263 78.9132 102.455 79.5158 103.73 79.8697C105.004 80.2236 106.336 80.3218 107.649 80.1586C108.962 79.9955 110.229 79.5743 111.378 78.9192C112.528 78.2641 113.536 77.3881 114.345 76.3416C120.503 68.2866 132.713 57.3366 154.11 55.9866Z" fill="#24285B"/>
<path d="M186 99.8393L189.42 100.304C190.158 100.405 190.869 100.652 191.511 101.031C192.153 101.41 192.713 101.913 193.157 102.511C193.602 103.109 193.923 103.789 194.102 104.513C194.281 105.236 194.313 105.988 194.198 106.724L193.785 109.372C193.567 110.749 192.865 112.003 191.805 112.909C190.745 113.815 189.397 114.314 188.003 114.314H187.808C187.808 114.314 207 130.844 209.633 143.054L188.213 168.989C186.868 170.628 185.177 171.948 183.262 172.856C181.347 173.763 179.254 174.236 177.135 174.239H146.865C146.865 174.239 138.465 153.329 101.775 151.672C101.775 151.672 98.0251 141.974 108.143 133.394L146.865 136.019L155.363 141.697L154.298 149.099C153.931 151.618 154.451 154.186 155.768 156.364C157.086 158.542 159.119 160.195 161.52 161.039C164.457 162.073 167.644 162.164 170.636 161.299C173.627 160.435 176.274 158.658 178.208 156.217C183.99 148.934 189.255 136.717 180.69 120.517C180.69 120.517 169.935 105.239 180.24 100.634C182.049 99.8379 184.043 99.5625 186 99.8393Z" fill="#FFD200"/>
<path d="M190.733 100.657L188.01 114.314H194.123L196.065 102.464L190.733 100.657Z" fill="#FFD200"/>
<path opacity="0.51" d="M190.733 100.657L188.01 114.314H194.123L196.065 102.464L190.733 100.657Z" fill="white"/>
<path d="M170.445 107.054C170.445 107.054 178.89 103.754 179.723 107.054C180.555 110.354 169.223 111.839 169.223 111.839L170.445 107.054Z" fill="#F4A28C"/>
<path d="M179.768 113.122C177.999 113.122 176.565 111.688 176.565 109.919C176.565 108.15 177.999 106.717 179.768 106.717C181.536 106.717 182.97 108.15 182.97 109.919C182.97 111.688 181.536 113.122 179.768 113.122Z" fill="#FFD200"/>
<path d="M212.07 185.331C202.56 185.331 194.85 177.622 194.85 168.111C194.85 158.601 202.56 150.891 212.07 150.891C221.58 150.891 229.29 158.601 229.29 168.111C229.29 177.622 221.58 185.331 212.07 185.331Z" fill="#24285B"/>
<path d="M212.07 179.632C205.708 179.632 200.55 174.474 200.55 168.112C200.55 161.749 205.708 156.592 212.07 156.592C218.432 156.592 223.59 161.749 223.59 168.112C223.59 174.474 218.432 179.632 212.07 179.632Z" fill="white"/>
<path d="M212.07 180.757C214.571 180.757 217.016 180.015 219.095 178.626C221.175 177.236 222.795 175.261 223.752 172.951C224.709 170.64 224.96 168.098 224.472 165.645C223.984 163.192 222.78 160.939 221.011 159.17C219.243 157.402 216.99 156.198 214.537 155.71C212.084 155.222 209.541 155.472 207.231 156.429C204.92 157.386 202.945 159.007 201.556 161.086C200.167 163.166 199.425 165.611 199.425 168.112C199.427 171.465 200.76 174.68 203.131 177.051C205.502 179.422 208.717 180.755 212.07 180.757ZM212.07 157.717C214.126 157.717 216.136 158.326 217.845 159.469C219.555 160.611 220.887 162.234 221.674 164.134C222.46 166.033 222.666 168.123 222.265 170.14C221.864 172.156 220.874 174.008 219.42 175.462C217.967 176.916 216.114 177.906 214.098 178.307C212.081 178.708 209.991 178.502 208.092 177.715C206.193 176.929 204.569 175.596 203.427 173.887C202.285 172.177 201.675 170.168 201.675 168.112C201.677 165.355 202.773 162.712 204.722 160.763C206.671 158.814 209.314 157.719 212.07 157.717Z" fill="#AD4C4C"/>
<path opacity="0.11" d="M129.465 159.232C129.465 159.232 136.215 167.542 137.633 174.187H121.883L116.76 165.044L121.613 156.592L129.465 159.232Z" fill="white"/>
<path d="M107.827 185.331C98.3171 185.331 90.6075 177.622 90.6075 168.111C90.6075 158.601 98.3171 150.891 107.827 150.891C117.338 150.891 125.047 158.601 125.047 168.111C125.047 177.622 117.338 185.331 107.827 185.331Z" fill="#24285B"/>
<path d="M107.828 179.632C101.465 179.632 96.3075 174.474 96.3075 168.112C96.3075 161.749 101.465 156.592 107.828 156.592C114.19 156.592 119.348 161.749 119.348 168.112C119.348 174.474 114.19 179.632 107.828 179.632Z" fill="white"/>
<path d="M107.835 180.757C110.336 180.755 112.78 180.012 114.858 178.622C116.937 177.232 118.556 175.256 119.512 172.945C120.468 170.635 120.717 168.093 120.229 165.64C119.74 163.188 118.535 160.935 116.766 159.168C114.997 157.4 112.744 156.196 110.292 155.709C107.839 155.222 105.297 155.473 102.987 156.43C100.677 157.387 98.7021 159.008 97.313 161.087C95.9238 163.167 95.1824 165.611 95.1824 168.112C95.1864 171.465 96.5209 174.681 98.8931 177.051C101.265 179.422 104.481 180.755 107.835 180.757ZM107.835 157.717C109.891 157.718 111.9 158.329 113.608 159.472C115.316 160.615 116.648 162.239 117.433 164.139C118.219 166.038 118.424 168.128 118.022 170.144C117.62 172.16 116.629 174.012 115.175 175.465C113.721 176.918 111.869 177.907 109.853 178.307C107.836 178.708 105.747 178.502 103.848 177.715C101.949 176.928 100.326 175.595 99.1838 173.886C98.0419 172.177 97.4324 170.167 97.4324 168.112C97.4364 165.355 98.5339 162.712 100.484 160.763C102.434 158.814 105.078 157.719 107.835 157.717Z" fill="#AD4C4C"/>
<path opacity="0.08" d="M179.768 113.122C177.999 113.122 176.565 111.688 176.565 109.919C176.565 108.15 177.999 106.717 179.768 106.717C181.536 106.717 182.97 108.15 182.97 109.919C182.97 111.688 181.536 113.122 179.768 113.122Z" fill="black"/>
<path d="M209.632 143.054C209.632 143.054 219.45 144.217 224.52 152.444C224.725 152.77 224.83 153.149 224.823 153.534C224.816 153.918 224.697 154.293 224.481 154.611C224.264 154.93 223.96 155.178 223.605 155.326C223.249 155.474 222.858 155.515 222.48 155.444C216.57 154.417 204.547 154.447 190.477 166.267L209.632 143.054Z" fill="#FFD200"/>
<path opacity="0.08" d="M209.632 143.054C209.632 143.054 219.45 144.217 224.52 152.444C224.725 152.77 224.83 153.149 224.823 153.534C224.816 153.918 224.697 154.293 224.481 154.611C224.264 154.93 223.96 155.178 223.605 155.326C223.249 155.474 222.858 155.515 222.48 155.444C216.57 154.417 204.547 154.447 190.477 166.267L209.632 143.054Z" fill="black"/>
<path d="M154.763 141.644C154.763 141.644 163.5 134.654 159.75 128.632C156 122.609 138.36 129.044 124.65 124.477C110.94 119.909 98.1375 123.509 107.55 133.342L154.763 141.644Z" fill="#FFD200"/>
<path opacity="0.17" d="M154.763 141.644C154.763 141.644 163.5 134.654 159.75 128.632C156 122.609 138.36 129.044 124.65 124.477C110.94 119.909 98.1375 123.509 107.55 133.342L154.763 141.644Z" fill="black"/>
<path d="M126.55 38.0028C126.298 36.3567 128.624 34.6358 131.744 34.1589C134.864 33.682 137.597 34.6298 137.849 36.2758C138.1 37.9219 135.775 39.6428 132.655 40.1197C129.535 40.5966 126.801 39.6488 126.55 38.0028Z" fill="#FFD200"/>
<path d="M138.127 163.567C138.127 163.567 147.622 154.244 138.127 147.067C129.622 140.617 110.152 136.612 97.8824 145.207C97.4078 145.549 97.0308 146.01 96.7888 146.542C96.5468 147.075 96.4482 147.662 96.5028 148.245C96.5573 148.828 96.7631 149.386 97.0998 149.865C97.4365 150.343 97.8925 150.726 98.4224 150.974C106.612 154.882 124.38 162.667 138.127 163.567Z" fill="#FFD200"/>
<path opacity="0.08" d="M138.127 163.567C138.127 163.567 147.622 154.244 138.127 147.067C129.622 140.617 110.152 136.612 97.8824 145.207C97.4078 145.549 97.0308 146.01 96.7888 146.542C96.5468 147.075 96.4482 147.662 96.5028 148.245C96.5573 148.828 96.7631 149.386 97.0998 149.865C97.4365 150.343 97.8925 150.726 98.4224 150.974C106.612 154.882 124.38 162.667 138.127 163.567Z" fill="black"/>
<path d="M96.5475 148.469C94.5331 151.695 91.9394 154.52 88.8975 156.802C88.6871 156.962 88.5394 157.191 88.4802 157.449C88.421 157.707 88.454 157.977 88.5733 158.213C88.6927 158.45 88.891 158.636 89.1338 158.742C89.3766 158.847 89.6486 158.864 89.9025 158.789C94.2013 157.59 98.078 155.21 101.093 151.919L96.5475 148.469Z" fill="#FFD200"/>
<path d="M189.968 39.8616C190.716 40.3568 191.352 41.0053 191.831 41.7642C192.311 42.5232 192.624 43.3752 192.75 44.2641C193.028 46.2741 192.893 48.7641 190.793 49.7091C187.043 51.3741 182.625 50.6991 182.625 50.6991C182.625 50.6991 183 57.9141 177.81 57.5991C172.62 57.2841 171.683 48.7791 173.355 44.4141C174.893 40.3566 180.915 33.8541 189.968 39.8616Z" fill="#AD4C4C"/>
<path d="M192.45 47.9542C192.45 47.9542 199.905 52.1992 196.583 53.4517C193.26 54.7042 182.603 50.6992 182.603 50.6992C182.603 50.6992 191.01 51.5917 192.45 47.9542Z" fill="#24285B"/>
<path d="M167.482 155.677C167.482 155.677 167.685 158.452 169.905 159.284C172.125 160.117 172.095 162.509 169.905 162.517C167.715 162.524 163.155 158.399 163.155 158.399L164.227 155.159L167.482 155.677Z" fill="#AD4C4C"/>
<path opacity="0.46" d="M178.718 53.1442C177.036 53.1442 175.673 51.7809 175.673 50.0992C175.673 48.4175 177.036 47.0542 178.718 47.0542C180.399 47.0542 181.763 48.4175 181.763 50.0992C181.763 51.7809 180.399 53.1442 178.718 53.1442Z" fill="white"/>
<path opacity="0.17" d="M195.218 133.394C195.175 132.937 195.283 132.478 195.526 132.088C195.768 131.697 196.131 131.397 196.56 131.232C196.989 131.067 197.46 131.047 197.901 131.175C198.343 131.303 198.73 131.571 199.005 131.939C202.103 136.057 204.885 141.014 203.25 143.992C200.063 149.804 196.208 150.929 194.85 146.992C193.898 144.209 195.75 139.589 195.218 133.394Z" fill="white"/>
</svg>
