<svg width="140" height="121" viewBox="0 0 140 121" fill="none" xmlns="http://www.w3.org/2000/svg">
<path d="M130.647 68.8326C130.906 74.6888 130.427 80.044 128.866 84.1192C127.815 86.8502 126.225 89.5664 124.216 92.1888C124.087 91.3078 123.843 90.4457 123.489 89.6247C122.949 88.2543 121.919 87.1374 120.604 86.4877L120.567 86.2856L120.565 86.2496L120.555 86.0571L120.517 85.3514L120.393 83.0428C120.297 81.2522 120.184 79.1539 120.116 77.9239L120.093 77.5155L119.689 77.4566C119.618 77.4462 119.544 77.4362 119.468 77.4264C119.471 77.3322 119.476 77.208 119.482 77.0605C119.497 76.7093 119.522 76.2274 119.562 75.7038C119.639 74.7106 119.768 73.6385 119.967 72.9988L120.086 72.917C121.343 72.3935 122.808 71.8639 124.333 71.3127C124.769 71.155 125.21 70.9955 125.653 70.8339C127.382 70.2022 129.13 69.5393 130.647 68.8326Z" fill="#2A65F6" stroke="#323338"/>
<path d="M58.2182 37.6251L58.2219 37.7245C58.2335 38.0341 58.25 38.4816 58.2698 39.0337C58.3094 40.1378 58.3622 41.6603 58.415 43.3337C58.5205 46.6777 58.6263 50.6329 58.6263 53.0531V66.7981C58.6539 66.795 58.6806 66.7926 58.7064 66.7909C58.799 66.7851 58.94 66.7841 59.0796 66.8371C59.2553 66.9037 59.4248 67.0591 59.4627 67.3038L59.4643 67.3139L59.4654 67.324C59.5721 68.2647 59.5597 69.1329 59.5347 69.9319C59.5308 70.0545 59.5267 70.1749 59.5227 70.2935C59.5 70.9582 59.4793 71.5636 59.5182 72.1533C59.6065 73.4914 59.9995 74.7203 61.479 76.0481L61.4791 76.0482C64.1792 78.4722 67.5716 80.6847 70.7956 82.7874C71.2143 83.0605 71.6301 83.3317 72.0412 83.6013L72.0415 83.6014C76.1684 86.3108 81.6188 90.9665 84.3787 95.1639L84.3789 95.1642C84.5578 95.4365 84.8996 95.8667 85.3507 96.4344C85.4874 96.6066 85.6342 96.7913 85.7896 96.9882C86.352 97.7008 87.0064 98.5477 87.6421 99.461C87.9988 99.221 88.4692 99.0036 88.9895 98.8135C89.6526 98.5711 90.4409 98.3572 91.2759 98.1944C92.7788 97.9013 94.4807 97.7646 95.9118 97.9517C95.9621 97.7983 96.0113 97.6534 96.0561 97.5219C96.079 97.4544 96.1008 97.3904 96.1209 97.3306C96.1211 97.3301 96.1213 97.3295 96.1215 97.3289L96.5955 97.488C97.5956 94.4426 99.274 90.143 101.67 87.9563L58.2182 37.6251ZM58.2182 37.6251L58.375 37.5758C58.7053 37.4721 59.1756 37.3246 59.7349 37.1494C60.8537 36.799 62.3288 36.338 63.7546 35.8955C66.5606 35.0247 70.1478 34.3859 73.2902 33.8263L73.3262 33.8199L74.3856 33.6312L73.5582 32.9432L73.2385 33.3276L58.2182 37.6251ZM26.0335 27.965C25.8232 29.0679 25.6838 30.183 25.6161 31.3035L66.4264 27.9351C63.4651 25.8107 60.5842 23.7439 57.3086 22.017L57.543 21.5754C57.5428 21.5753 57.5426 21.5752 57.5424 21.5751C57.4826 21.5433 57.4226 21.5116 57.3624 21.4799C57.7903 21.231 58.1712 20.8957 58.4438 20.4356L58.4439 20.4357L58.449 20.4266C58.5641 20.2227 58.6243 19.9923 58.6235 19.7581C58.6227 19.5239 58.561 19.2939 58.4445 19.0907C58.328 18.8876 58.1606 18.7182 57.9589 18.5992C57.7571 18.4803 57.5279 18.4159 57.2937 18.4123L57.2922 18.4122C55.1809 18.3863 53.3528 17.4664 51.4648 16.3641C51.205 16.2125 50.9435 16.0569 50.6799 15.9001C49.0617 14.9374 47.3622 13.9264 45.4666 13.4669C43.7501 13.0469 41.8103 13.0482 40.1443 13.7638C38.583 14.4344 37.5647 15.6746 36.7472 16.9693C34.235 16.3748 31.6909 17.5046 29.9822 19.3696L29.9821 19.3697C27.8248 21.7255 26.6172 24.9421 26.0337 27.9638L26.0335 27.965ZM7.79924 86.8459C5.71512 80.9418 4.92435 74.624 4.52331 68.4689C3.76726 56.8638 3.63275 44.8465 8.798 33.9955C14.0257 23.0144 25.6197 14.9078 36.9964 8.06906C47.7998 1.58222 57.4724 1.12382 66.8457 0.679595C67.5604 0.645724 68.2733 0.611936 68.9849 0.575563C73.9566 0.321442 80.7318 0.677475 87.4136 2.11489C94.1035 3.55406 100.645 6.06559 105.2 10.0833C109.852 14.1866 113.262 17.2548 116.128 20.9884C118.988 24.7132 121.319 29.12 123.767 35.9031C126.168 42.6716 128.002 49.628 129.249 56.7004C127.351 57.515 125.243 58.7911 123.347 59.9724C123.081 60.1381 122.819 60.3019 122.563 60.4624C121.837 60.9168 121.152 61.3456 120.525 61.7205C119.702 62.2132 119.009 62.5949 118.485 62.8117C116.479 63.0963 114.453 63.2192 112.427 63.1792L112.42 63.1792C110.187 63.163 106.912 62.7957 104.875 62.0078L104.875 62.0076C103.885 61.6261 102.89 61.1451 101.886 60.6535C101.818 60.6204 101.751 60.5873 101.683 60.5541C100.752 60.0981 99.8137 59.638 98.8945 59.2647L98.8942 59.2646C97.7348 58.7944 96.4811 58.9863 95.6418 59.6362C95.2186 59.9638 94.8953 60.4136 94.76 60.9552C94.624 61.5 94.6875 62.1001 94.9754 62.7085L95.4273 62.4946L7.79924 86.8459Z" fill="#2A65F6" stroke="#323338"/>
<path d="M1 95.436C3.91219 91.0544 7.52527 87.4823 11.6712 84.2278C15.8786 80.9242 21.4755 77.7641 25.4472 74.3395C27.7589 72.3496 27.8184 68.3287 29.0767 65.5784C34.5137 68.0561 41.8957 69.0869 48.2652 69.0869C54.6347 69.0869 58.922 66.8101 58.9897 67.3839C59.3995 70.997 57.9896 73.5731 61.1661 76.4238C64.2525 79.1945 68.2283 81.6887 71.7881 84.0229C75.8869 86.7138 81.2748 91.3249 83.982 95.4421C85.1891 97.2763 93.0629 105.525 88.6157 108.687C86.9045 109.903 85.8449 107.769 85.558 106.367C85.0989 104.127 86.0007 101.508 87.7406 100.031C89.5666 98.4814 98.8893 96.93 98.7254 100.779C98.67 102.066 97.1678 102.797 96.3604 101.803C95.4443 100.672 96.2436 98.6269 96.6166 97.4874C97.6167 94.442 99.2951 90.1424 101.691 87.9557C103.933 85.9063 109.017 85.8079 112.087 85.9678C116.067 86.1727 121.123 85.312 123.029 89.8124C124.615 93.5587 123.701 97.2169 121.457 98.4322C126.171 98.4322 126.872 106.488 126.872 120" stroke="#323338" stroke-linecap="round" stroke-linejoin="round"/>
<path d="M28.2375 72.6429C29.3975 75.2108 33.4102 80.1929 36.4208 80.6356C38.8801 81.0024 44.0302 76.6393 47.6679 71.649C48.7192 74.7231 50.3321 77.4508 51.8158 79.6949C53.9226 82.8837 57.4332 77.8074 58.3227 75.3748C58.2161 75.7232 58.0644 76.0736 57.9353 76.4282" stroke="#323338" stroke-linecap="round" stroke-linejoin="round"/>
<path d="M46.984 76.6455C45.9306 83.6667 41.756 86.126 40.2845 91.6204C39.6841 93.8563 38.9012 97.037 41.6863 97.9264C43.6804 98.5617 49.722 95.0573 47.1889 94.342C43.9222 94.342 41.2068 100 40.7559 102.54C40.2927 105.157 40.9608 107.983 41.7191 110.52" stroke="#323338" stroke-linecap="round" stroke-linejoin="round"/>
<path d="M58.3142 98.4242C58.3142 98.4242 68.883 98.0984 72.1682 97.2089" stroke="#323338" stroke-linecap="round" stroke-linejoin="round"/>
<path d="M69.209 95.141C70.3854 97.1105 70.6436 102.197 70.6436 102.197" stroke="#323338" stroke-linecap="round" stroke-linejoin="round"/>
<path d="M66.2537 95.0654C67.9915 98.6129 68.3235 106.481 68.3235 106.481" stroke="#323338" stroke-linecap="round" stroke-linejoin="round"/>
<path d="M29.5027 65.482C29.5027 57.1041 30.345 39.9978 30.345 39.9978C27.2914 41.5225 17.9646 40.9999 20.2517 35.2842C21.8728 31.2284 28.3735 31.5379 31.7878 31.3371C31.7529 26.1972 33.9253 20.0818 39.1348 18.3132C45.2707 16.2269 51.8411 19.1186 57.3314 22.0164C60.6863 23.785 63.6271 25.9103 66.6643 28.0888C68.8695 29.675 73.2613 33.327 73.2613 33.327C70.1196 33.8865 66.4819 34.5321 63.6292 35.4174C60.7764 36.3027 57.7269 37.2618 57.7269 37.2618C57.7269 37.2618 58.1491 48.2302 58.1491 53.0524V66.9617" stroke="#323338" stroke-linecap="round" stroke-linejoin="round"/>
<path d="M46.792 27.6341L46.9826 29.7204" stroke="#323338" stroke-linecap="round" stroke-linejoin="round"/>
<path d="M51.5212 27.3615L51.7118 29.4478" stroke="#323338" stroke-linecap="round" stroke-linejoin="round"/>
<path d="M24.4497 35.9977C25.8515 35.9546 26.743 36.1083 27.8189 36.84" stroke="#323338" stroke-linecap="round" stroke-linejoin="round"/>
<path d="M47.189 38.5557C47.5936 38.9815 48.0855 39.3149 48.6309 39.5331C49.1763 39.7514 49.7624 39.8493 50.3491 39.8201" stroke="#323338" stroke-linecap="round" stroke-linejoin="round"/>
<path d="M104.517 78.2195C104.517 78.2195 104.769 72.055 104.447 70.6778C103.92 68.4132 102.221 67.864 100.129 66.7573C98.0364 65.6506 96.3006 64.339 95.4275 62.4946C94.45 60.4288 96.7002 58.9143 98.7066 59.7279C100.639 60.5128 102.67 61.6933 104.695 62.4741C106.814 63.2938 110.159 63.6627 112.417 63.6791C119.026 63.7304 122.209 62.8204 128.179 60.2177C130.333 59.2806 132.537 58.4643 134.782 57.7728C138.043 56.8075 140.289 58.3323 137.241 61.2424" stroke="#323338" stroke-linecap="round" stroke-linejoin="round"/>
<path d="M118.959 77.6067C118.959 77.6067 118.828 74.2519 119.338 72.8747" stroke="#323338" stroke-linecap="round" stroke-linejoin="round"/>
<path d="M118.241 73.2066C121.799 71.397 128.753 69.5771 132.466 67.2961C133.218 66.835 136.184 64.9106 134.888 63.765C134.157 63.1174 132.29 64.3921 130.318 65.1586C128.347 65.9251 126.324 66.7202 126.324 66.7202" stroke="#323338" stroke-linecap="round" stroke-linejoin="round"/>
<path d="M126.172 64.009C129.072 63.1893 130.947 62.0109 133.828 60.9903C134.966 60.5804 136.732 60.2341 137.343 61.558C137.954 62.8819 136.578 63.9393 135.218 64.5029" stroke="#323338" stroke-linecap="round" stroke-linejoin="round"/>
<path d="M118.617 63.2978C122.279 61.8325 132.977 52.9177 134.77 57.7645" stroke="#323338" stroke-linecap="round" stroke-linejoin="round"/>
<path d="M103.219 86.7426C103.219 86.7426 103.666 80.9347 103.883 78.3627C106.156 77.9303 108.043 77.8155 110.365 77.6987C112.539 77.588 117.466 77.6229 119.614 77.9405C119.749 80.3998 120.067 86.3328 120.067 86.3328" stroke="#323338" stroke-linecap="round" stroke-linejoin="round"/>
<path d="M29.7368 42.527C29.6684 44.0374 29.5767 46.1102 29.4795 48.4455C29.4461 48.4454 29.4159 48.4409 29.3903 48.4331C29.333 48.4156 29.2597 48.3722 29.2181 48.218C28.5986 45.8921 27.9849 43.5471 27.5114 41.1875C28.3512 41.1178 29.1473 40.9717 29.8182 40.7534C29.798 41.1878 29.7701 41.7905 29.7368 42.527Z" fill="white" stroke="#323338"/>
<path d="M45.2498 14.4312L45.2524 14.4318L57.3087 18.9056L57.2954 19.4054C57.2963 19.4055 57.2972 19.4055 57.2982 19.4055C57.3572 19.4076 57.4148 19.4245 57.4656 19.4548C57.5171 19.4856 57.5599 19.5291 57.5899 19.5811C57.6198 19.6332 57.6359 19.6921 57.6365 19.7521C57.6371 19.8098 57.6235 19.8667 57.5968 19.9178C57.2599 20.4807 56.6175 20.8098 55.7712 21.0218C55.3533 21.1264 54.9102 21.1967 54.466 21.2577C54.3412 21.2749 54.2147 21.2915 54.0885 21.3081C53.7767 21.349 53.4666 21.3898 53.1884 21.4378L53.1884 21.4378L53.1817 21.439C51.2539 21.7992 49.2995 21.9979 47.3388 22.0331C44.4911 22.0488 41.6321 21.5261 39.1462 20.2327L38.3621 19.8248L38.4164 20.707C38.5476 22.8403 37.5281 24.9301 36.3475 26.9834C34.5675 30.0241 33.3656 33.3679 32.8024 36.846L32.8019 36.8492C32.79 36.9259 32.7626 36.9555 32.7427 36.9714C32.7159 36.9929 32.665 37.0169 32.5844 37.0221C32.4032 37.0337 32.2349 36.9454 32.1715 36.8514C31.1261 35.3007 30.6385 33.3885 30.4764 31.367L30.4386 30.895L29.9652 30.9071C28.8569 30.9355 27.7506 31.0168 26.6503 31.1507C26.7194 30.1426 26.849 29.1393 27.0384 28.1463C27.6027 25.2243 28.7561 22.1995 30.7417 20.0391L30.7418 20.039C32.3584 18.2788 34.6893 17.357 36.8526 18.0208L37.2252 18.1351L37.427 17.8016C38.252 16.438 39.1414 15.2916 40.5632 14.6754C42.0065 14.0498 43.6863 14.0403 45.2498 14.4312Z" fill="white" stroke="#323338"/>
<path d="M110.8 70.3966C110.91 70.3742 111.022 70.3753 111.131 70.3996C111.24 70.424 111.342 70.4711 111.432 70.538" stroke="#323338" stroke-linecap="round" stroke-linejoin="round"/>
<path d="M113.247 26.3431C109.331 26.1832 105.665 27.0132 103.191 29.6959C100.769 32.3273 100.025 34.4751 99.1824 38.0656C98.6044 40.5249 99.1824 42.7587 99.746 45.1606C100.394 47.8699 102.279 49.7328 104.822 51.5281C107.366 53.3234 112.108 53.9874 114.172 53.9033C116.479 53.8132 118.402 53.725 120.627 52.9811C122.306 52.4114 124.943 50.8026 125.933 49.3373C128.123 46.0551 128.954 42.0506 128.249 38.1681C127.579 34.6595 125.874 31.3313 123.08 29.0216C121.027 27.3309 117.164 26.505 113.247 26.3431Z" fill="#FFE945" stroke="#323338" stroke-linecap="round" stroke-linejoin="round"/>
<path d="M110.571 26.4047C112.526 26.3248 115.715 26.9683 117.065 27.7819C118.416 28.5955 120.303 29.9277 121.687 31.8233C122.826 33.385 124.031 36.3525 124.193 38.2277C124.427 40.9063 123.677 44.7858 122.285 47.0954C121.644 48.1611 119.781 50.4298 117.69 51.8603C115.6 53.2907 113.717 53.7662 111.337 53.7047" stroke="#323338" stroke-linecap="round" stroke-linejoin="round"/>
<path d="M106.661 38.0288C107.442 37.619 108.225 37.1947 108.968 36.7275C108.932 39.0146 108.614 41.3058 108.616 43.6155" stroke="#323338" stroke-linecap="round" stroke-linejoin="round"/>
<path d="M106.661 43.4756C107.22 43.8855 108.505 43.8055 109.19 43.8855C109.688 43.9387 110.122 44.0781 110.641 44.0412" stroke="#323338" stroke-linecap="round" stroke-linejoin="round"/>
<path d="M115.748 36.631C114.643 35.8441 113.288 36.4527 113.235 37.8176C113.176 39.0739 114.592 40.4408 115.678 39.2153" stroke="#323338" stroke-linecap="round" stroke-linejoin="round"/>
<path d="M112.879 42.2891C113.838 42.2891 115.006 42.2891 115.953 42.494" stroke="#323338" stroke-linecap="round" stroke-linejoin="round"/>
<path d="M102.122 41.5914C101.423 39.1526 102.151 36.6073 103.516 34.5579C104.266 33.4327 105.36 32.0371 106.604 31.4653C107.697 30.9673 108.859 30.8505 110.012 30.7685" stroke="#323338" stroke-linecap="round" stroke-linejoin="round"/>
<path d="M114.272 30.8379C115.625 30.9779 116.907 31.5108 117.961 32.3708C119.258 33.375 120.074 35.0186 120.531 36.5803C121.008 38.2433 121.114 39.9907 120.842 41.6992C120.57 43.4077 119.927 45.0357 118.957 46.4686C118.33 47.3847 116.951 48.518 115.949 48.9279" stroke="#323338" stroke-linecap="round" stroke-linejoin="round"/>
<path d="M112.264 49.7655C111.464 49.9562 110.591 49.7368 109.804 49.5483" stroke="#323338" stroke-linecap="round" stroke-linejoin="round"/>
<path d="M106.48 48.1074C104.894 47.1729 103.932 46.1277 103.307 44.4534" stroke="#323338" stroke-linecap="round" stroke-linejoin="round"/>
<path d="M118.951 28.7411C120.222 28.7411 121.46 28.8108 122.722 28.8108" stroke="#323338" stroke-linecap="round" stroke-linejoin="round"/>
<path d="M123.978 35.6556C124.718 35.879 126.685 35.9815 127.462 35.6556" stroke="#323338" stroke-linecap="round" stroke-linejoin="round"/>
<path d="M124.188 42.429C125.497 42.429 126.852 42.3737 128.1 42.429" stroke="#323338" stroke-linecap="round" stroke-linejoin="round"/>
<path d="M121.469 48.7042C122.394 48.989 123.433 48.8066 124.402 48.8435C124.968 48.8661 125.693 48.7185 126.218 48.9153" stroke="#323338" stroke-linecap="round" stroke-linejoin="round"/>
<path d="M118.882 51.1573C120.378 51.1573 121.892 51.2537 123.351 51.2988" stroke="#323338" stroke-linecap="round" stroke-linejoin="round"/>
</svg>
