<svg width="50" height="50" viewBox="0 0 50 50" fill="none" xmlns="http://www.w3.org/2000/svg">
<path d="M10.2795 2.36245V3.64877C10.2795 4.25225 10.7689 4.7413 11.3724 4.7413H12.9238C13.464 4.7413 13.9023 5.17961 13.9023 5.71977V10.5591H17.379V3.0964C17.379 2.10076 16.5741 1.29281 15.5785 1.28938L11.3773 1.26954C10.772 1.26687 10.2795 1.75706 10.2795 2.36245Z" fill="#FDD79B"/>
<path d="M17.3786 3.09685V10.5584H15.7985V3.09685C15.7985 2.10045 14.994 1.29288 13.9991 1.28906H15.5788C16.5741 1.29288 17.3786 2.10045 17.3786 3.09685Z" fill="#FCCD7F"/>
<path d="M25.2357 9.91516H5.39395C4.75728 9.91516 4.16905 10.2779 3.85167 10.8658L1.90503 14.4745H28.7246L26.778 10.8658C26.4606 10.2779 25.8724 9.91516 25.2357 9.91516Z" fill="#FEF1DA"/>
<path d="M28.7243 14.4745H1.90466L2.66608 13.063H24.7349C25.1133 13.063 25.3548 12.6591 25.1747 12.3257L23.8746 9.91553H25.2357C25.872 9.91553 26.461 10.2775 26.7784 10.8661L28.7243 14.4745Z" fill="#FDE6BF"/>
<path d="M22.2103 48.7652H8.14973C7.69846 48.7652 7.28151 48.5417 7.05682 48.1789L5.67743 45.953H24.683L23.3036 48.1789C23.0786 48.5413 22.6616 48.7652 22.2103 48.7652Z" fill="#FDD79B"/>
<path d="M28.6582 18.7191L28.3447 24.8394L27.5852 43.5715C27.5249 45.0001 26.3595 46.1304 24.9336 46.1537C24.9183 46.1548 24.9034 46.1548 24.8882 46.1548H5.47214C4.02637 46.1548 2.83656 45.0154 2.77515 43.5715L1.70245 18.7191H28.6582Z" fill="#EA4444"/>
<path d="M28.6579 18.7191L28.4309 23.6439L28.2226 24.4488L27.5852 43.5715C27.5257 44.9822 26.3893 46.1014 24.9889 46.1517C25.0351 45.9713 25.0644 45.7829 25.0724 45.5883L26.12 21.3249C26.1337 21.0037 25.877 20.7356 25.5554 20.7356H1.78868L1.70209 18.7191H28.6579Z" fill="#D93131"/>
<path d="M2.14532 28.9799C2.14532 28.9799 14.7434 30.6649 28.4454 23.6436L27.9136 35.9673C27.9136 35.9673 16.4405 40.8646 2.55502 38.482L2.14532 28.9799Z" fill="#FEF1DA"/>
<path d="M29.3869 19.2364H1.24283C0.556183 19.2364 0 18.6802 0 17.994V15.1604C0 14.4742 0.556183 13.918 1.24283 13.918H29.3869C30.0732 13.918 30.6297 14.4742 30.6297 15.1604V17.994C30.6297 18.6802 30.0732 19.2364 29.3869 19.2364Z" fill="#FDD79B"/>
<path d="M47.6399 42.6837H24.5888C23.2853 42.6837 22.2286 41.6271 22.2286 40.3236V37.9478C22.2286 36.6443 23.2853 35.5876 24.5888 35.5876H47.6402C48.9433 35.5876 50 36.6443 50 37.9478V40.3236C50 41.6271 48.9433 42.6837 47.6399 42.6837Z" fill="#945B44"/>
<path d="M47.6399 42.6837H24.5888C23.2853 42.6837 22.2286 41.6271 22.2286 40.3236V37.9478C22.2286 36.6443 23.2853 35.5876 24.5888 35.5876H47.6402C48.9433 35.5876 50 36.6443 50 37.9478V40.3236C50 41.6271 48.9433 42.6837 47.6399 42.6837Z" fill="#945B44"/>
<path d="M45.9866 48.7625H26.2421C24.0559 48.7625 22.2836 46.9901 22.2836 44.8039V43.4402C22.2836 42.7238 22.8642 42.1432 23.5806 42.1432H48.6485C49.3645 42.1432 49.9451 42.7238 49.9451 43.4402V44.8039C49.9451 46.9901 48.1728 48.7625 45.9866 48.7625Z" fill="#FFC265"/>
<path d="M49.9454 43.4406V44.8036C49.9454 46.9902 48.1727 48.7628 45.9862 48.7628H26.2421C24.5937 48.7628 23.1811 47.7546 22.5864 46.3218C23.1529 46.6342 23.8033 46.8128 24.4961 46.8128H44.2398C46.4268 46.8128 48.1983 45.0405 48.1983 42.8546V42.1428H48.6488C49.3645 42.1428 49.9454 42.7238 49.9454 43.4406Z" fill="#FFB541"/>
<path d="M25.6866 35.5876L31.2946 39.3776C32.0396 39.8811 33.0211 39.8594 33.7428 39.3234L38.7756 35.5876H25.6866Z" fill="#FBC700"/>
<path d="M49.3786 32.4372C48.1437 29.1249 45.5311 27.1633 42.9481 26.0029C38.6112 24.0544 33.6174 24.0544 29.2801 26.0029C26.6975 27.1633 24.0848 29.1249 22.85 32.4372C22.5265 33.3054 22.3785 34.2293 22.3793 35.1563C22.3797 35.7045 22.829 36.147 23.3772 36.147H48.8514C49.3995 36.147 49.8489 35.7045 49.8493 35.1563C49.8501 34.2293 49.702 33.3054 49.3786 32.4372Z" fill="#FFC265"/>
<path d="M49.8497 35.1562C49.8486 35.704 49.4 36.1465 48.8514 36.1465H23.3769C22.8295 36.1465 22.3797 35.704 22.3797 35.1562C22.3797 34.8389 22.3969 34.5222 22.432 34.2075C22.5216 34.2381 22.6166 34.2529 22.7154 34.2529H46.1857C46.6908 34.2529 47.1043 33.8459 47.105 33.3408C47.105 32.4867 46.9692 31.6357 46.6705 30.8353C45.7874 28.4668 44.1399 26.8478 42.3344 25.7416C42.54 25.8244 42.7445 25.9109 42.9482 26.0029C45.5315 27.1633 48.1434 29.1252 49.3786 32.4371C49.7025 33.3054 49.8505 34.2297 49.8497 35.1562Z" fill="#FFB541"/>
</svg>
