<svg width="24" height="24" viewBox="0 0 24 24" fill="none" xmlns="http://www.w3.org/2000/svg">
<path d="M3.5147 3.51472C-1.14889 8.17831 -1.14889 15.8217 3.5147 20.4853C8.17829 25.1489 15.8217 25.1489 20.4853 20.4853C25.1489 15.8217 25.1489 8.17831 20.4853 3.51472C15.8217 -1.14887 8.17829 -1.14887 3.5147 3.51472ZM18.4634 18.4634C14.9035 22.0233 9.09639 22.0232 5.53658 18.4634C4.11464 17.0415 3.25945 15.2516 2.98102 13.402L21.0189 13.402C20.7405 15.2516 19.8853 17.0415 18.4634 18.4634ZM21.009 10.588L2.98106 10.5979C3.25945 8.74838 4.11464 6.95855 5.53658 5.5366C9.09646 1.97673 14.9035 1.97673 18.4634 5.5366C19.8853 6.95855 20.7405 8.72856 21.009 10.588Z" fill="#E6E6E6"/>
</svg>
