<svg width="75" height="75" viewBox="0 0 75 75" fill="none" xmlns="http://www.w3.org/2000/svg">
<path d="M49.1266 52.7482L56.621 49.1902L60.4226 47.3864L52.2764 27.3996L47.0748 26.0991C47.0746 26.0991 55.5775 40.3647 49.1266 52.7482Z" fill="#F8B40E"/>
<path d="M3.40218 48.4126V39.2719C3.40218 38.5517 3.98607 37.9678 4.70634 37.9678H8.48271C9.20298 37.9678 9.78687 38.5517 9.78687 39.2719V42.5664" fill="#F2171C"/>
<path d="M6.93486 48.4126V37.9678H8.4832C9.20346 37.9678 9.78735 38.5517 9.78735 39.2719V42.5664" fill="#D8131E"/>
<path d="M41.9221 39.068C37.0585 39.068 33.1159 43.0107 33.1159 47.8742C33.1159 52.7378 37.0585 56.6804 41.9221 56.6804L35.7651 59.9825L15.0703 57.781L12.9312 39.0677L40.8286 36.8662" fill="#BF8104"/>
<path d="M55.9332 15.7314H49.3583C46.1363 15.7314 43.5243 18.3434 43.5243 21.5655C43.5243 24.7876 46.1363 27.3995 49.3583 27.3995H55.9332C56.5887 27.3995 57.1201 26.8681 57.1201 26.2126V16.918C57.1201 16.2627 56.5887 15.7314 55.9332 15.7314Z" fill="#F8B40E"/>
<path d="M49.3583 25.0187H57.1201V26.2124C57.1201 26.8679 56.5887 27.3994 55.9332 27.3994H49.3583C46.1363 27.3994 43.5243 24.7874 43.5243 21.5653C43.5243 21.1574 43.5665 20.7594 43.6462 20.375C44.1956 23.0261 46.5442 25.0187 49.3583 25.0187Z" fill="#DD9B0A"/>
<path d="M22.7758 61.9647H24.6749H54.0381V56.6807H27.1088" fill="#F8B40E"/>
<path d="M14.1892 73.4121C7.86656 73.4121 2.74102 68.2865 2.74102 61.9638C2.74102 55.6412 7.86656 50.5156 14.1892 50.5156C20.5119 50.5156 25.6375 55.6412 25.6375 61.9638C25.6375 68.2865 20.5119 73.4121 14.1892 73.4121Z" fill="#2C4046"/>
<path d="M50.4637 27.3999L59.9682 52.8557L60.4226 47.3867L52.2764 27.3999H50.4637Z" fill="#DD9B0A"/>
<path d="M14.1895 68.228C10.7299 68.228 7.92536 65.4234 7.92536 61.9638C7.92536 58.5043 10.7299 55.6997 14.1895 55.6997C17.6491 55.6997 20.4536 58.5043 20.4536 61.9638C20.4536 65.4234 17.6491 68.228 14.1895 68.228Z" fill="#9AA7B8"/>
<path d="M60.4217 73.4121C54.099 73.4121 48.9734 68.2865 48.9734 61.9638C48.9734 55.6412 54.099 50.5156 60.4217 50.5156C66.7443 50.5156 71.8699 55.6412 71.8699 61.9638C71.8699 68.2865 66.7443 73.4121 60.4217 73.4121Z" fill="#2C4046"/>
<path d="M60.4218 68.228C56.9622 68.228 54.1577 65.4234 54.1577 61.9638C54.1577 58.5043 56.9622 55.6997 60.4218 55.6997C63.8814 55.6997 66.6859 58.5043 66.6859 61.9638C66.6859 65.4234 63.8814 68.228 60.4218 68.228Z" fill="#9AA7B8"/>
<path d="M60.4227 69.3798C64.5122 69.3798 67.8391 66.0534 67.8391 61.9648H65.5353C65.5353 64.7832 63.2418 67.076 60.4227 67.076C57.6036 67.076 55.31 64.7831 55.31 61.9648H53.0062C53.0062 66.0534 56.3332 69.3798 60.4227 69.3798Z" fill="#1D2C30"/>
<path d="M24.6747 61.9638C28.289 60.02 30.749 56.1933 30.749 51.7896C30.749 45.3964 25.5708 40.2334 19.1929 40.2334C13.0323 40.2334 0.878908 43.4906 0.00278473 60.0331C-0.0527325 61.0809 0.774464 61.964 1.82359 61.964H24.6747V61.9638Z" fill="#F8B40E"/>
<path d="M27.0063 53.5509C27.0063 47.1577 21.8281 41.9947 15.4502 41.9947C13.6163 41.9947 11.2513 42.2845 8.81104 43.1262C12.4362 40.8939 16.4211 40.2334 19.1928 40.2334C25.5708 40.2334 30.749 45.3965 30.749 51.7896C30.749 56.1933 28.289 60.0202 24.6747 61.964H23.374C25.609 59.8596 27.0063 56.8692 27.0063 53.5509Z" fill="#DD9B0A"/>
<path d="M45.8447 61.9638C45.8447 53.9129 52.3713 47.3862 60.4223 47.3862C68.4732 47.3862 75 53.9129 75 61.9638H45.8447Z" fill="#F8B40E"/>
<path d="M58.0013 47.5875C58.789 47.4558 59.5974 47.3862 60.4223 47.3862C68.4734 47.3861 75 53.9127 75 61.9636H70.1581C70.1581 54.7376 64.8999 48.7408 58.0013 47.5875Z" fill="#DD9B0A"/>
<path d="M14.1896 69.3804C18.2789 69.3804 21.6057 66.0536 21.6057 61.9644H19.302C19.302 64.7833 17.0086 67.0767 14.1896 67.0767C11.3707 67.0767 9.07732 64.7833 9.07732 61.9644H6.77356C6.7737 66.0535 10.1004 69.3804 14.1896 69.3804Z" fill="#1D2C30"/>
<path d="M53.5976 15.7314H55.9332C56.5887 15.7314 57.1201 16.2629 57.1201 16.9184V26.213C57.1201 26.8685 56.5887 27.4 55.9332 27.4H53.5976V15.7314Z" fill="#A0D9F2"/>
<path d="M53.5976 25.019H57.1201V26.2127C57.1201 26.8683 56.5887 27.3997 55.9332 27.3997H53.5976V25.019Z" fill="#84BED3"/>
<path d="M17.155 32.5798L39.5579 34.1608C42.134 34.3426 44.1309 36.4855 44.1309 39.0679H12.9311V36.5163C12.9308 34.2275 14.8717 32.4187 17.155 32.5798Z" fill="#444D56"/>
<path d="M45.7573 9.58838H48.061V20.8999H45.7573V9.58838Z" fill="#D3D3D3"/>
<path d="M8.75905 49.4182H19.987C20.6231 49.4182 21.1389 48.9024 21.1389 48.2662C21.1389 47.63 20.6231 47.1143 19.987 47.1143H8.75905C8.12287 47.1143 7.6071 47.63 7.6071 48.2662C7.6071 48.9024 8.12287 49.4182 8.75905 49.4182Z" fill="#DD9B0A"/>
<path d="M11.6948 53.134H19.987C20.6231 53.134 21.1389 52.6182 21.1389 51.982C21.1389 51.3458 20.6231 50.8301 19.987 50.8301H11.6948C11.0586 50.8301 10.5428 51.3458 10.5428 51.982C10.5428 52.6182 11.0586 53.134 11.6948 53.134Z" fill="#DD9B0A"/>
<path d="M14.6305 56.8039H19.987C20.6231 56.8039 21.1389 56.2881 21.1389 55.652C21.1389 55.0158 20.6231 54.5 19.987 54.5H14.6305C13.9943 54.5 13.4785 55.0158 13.4785 55.652C13.4785 56.2883 13.9943 56.8039 14.6305 56.8039Z" fill="#DD9B0A"/>
<path d="M46.9092 24.9501C45.0398 24.9501 43.5243 23.4346 43.5243 21.5651C43.5243 19.6957 45.0398 18.1802 46.9092 18.1802C48.7787 18.1802 50.2942 19.6957 50.2942 21.5651C50.2942 23.4346 48.7787 24.9501 46.9092 24.9501Z" fill="#444D56"/>
<path d="M46.9097 12.3091C48.0649 12.3091 49.0012 11.3726 49.0012 10.2176V3.6794C49.0012 2.52422 48.0647 1.58789 46.9097 1.58789C45.7545 1.58789 44.8182 2.52437 44.8182 3.6794V10.2174C44.8182 11.3726 45.7545 12.3091 46.9097 12.3091Z" fill="#E6E6E6"/>
</svg>
