<svg width="57" height="57" viewBox="0 0 57 57" fill="none" xmlns="http://www.w3.org/2000/svg">
<path d="M37.3362 40.0887L43.032 37.3847L45.9212 36.0138L39.7301 20.8238L35.7768 19.8354C35.7767 19.8354 42.2389 30.6773 37.3362 40.0887Z" fill="#F8B40E"/>
<path d="M2.58569 36.7935V29.8466C2.58569 29.2992 3.02945 28.8555 3.57685 28.8555H6.44689C6.9943 28.8555 7.43805 29.2992 7.43805 29.8466V32.3504" fill="#F2171C"/>
<path d="M5.27046 36.7935V28.8555H6.4472C6.9946 28.8555 7.43835 29.2992 7.43835 29.8466V32.3504" fill="#D8131E"/>
<path d="M31.8607 29.6914C28.1644 29.6914 25.168 32.6878 25.168 36.3842C25.168 40.0805 28.1644 43.0769 31.8607 43.0769L27.1814 45.5864L11.4534 43.9133L9.82763 29.6912L31.0297 28.0181" fill="#BF8104"/>
<path d="M42.5092 11.9556H37.5124C35.0636 11.9556 33.0785 13.9407 33.0785 16.3894C33.0785 18.8382 35.0636 20.8233 37.5124 20.8233H42.5092C43.0074 20.8233 43.4113 20.4194 43.4113 19.9212V12.8573C43.4113 12.3594 43.0074 11.9556 42.5092 11.9556Z" fill="#F8B40E"/>
<path d="M37.5124 19.0141H43.4113V19.9213C43.4113 20.4195 43.0074 20.8234 42.5092 20.8234H37.5124C35.0636 20.8234 33.0785 18.8383 33.0785 16.3895C33.0785 16.0795 33.1105 15.777 33.1711 15.4849C33.5887 17.4997 35.3736 19.0141 37.5124 19.0141Z" fill="#DD9B0A"/>
<path d="M17.3095 47.093H18.7528H41.0688V43.0771H20.6026" fill="#F8B40E"/>
<path d="M10.7839 55.7934C5.97868 55.7934 2.08327 51.898 2.08327 47.0927C2.08327 42.2875 5.97868 38.3921 10.7839 38.3921C15.5891 38.3921 19.4846 42.2875 19.4846 47.0927C19.4846 51.898 15.5891 55.7934 10.7839 55.7934Z" fill="#2C4046"/>
<path d="M38.3524 20.8242L45.5759 40.1706L45.9212 36.0142L39.7301 20.8242H38.3524Z" fill="#DD9B0A"/>
<path d="M10.7839 51.8535C8.15466 51.8535 6.02321 49.722 6.02321 47.0928C6.02321 44.4635 8.15466 42.332 10.7839 42.332C13.4132 42.332 15.5447 44.4635 15.5447 47.0928C15.5447 49.722 13.4132 51.8535 10.7839 51.8535Z" fill="#9AA7B8"/>
<path d="M45.9205 55.7934C41.1152 55.7934 37.2198 51.898 37.2198 47.0927C37.2198 42.2875 41.1152 38.3921 45.9205 38.3921C50.7257 38.3921 54.6211 42.2875 54.6211 47.0927C54.6211 51.898 50.7257 55.7934 45.9205 55.7934Z" fill="#2C4046"/>
<path d="M45.9205 51.8535C43.2913 51.8535 41.1598 49.722 41.1598 47.0928C41.1598 44.4635 43.2913 42.332 45.9205 42.332C48.5498 42.332 50.6813 44.4635 50.6813 47.0928C50.6813 49.722 48.5498 51.8535 45.9205 51.8535Z" fill="#9AA7B8"/>
<path d="M45.9213 52.7286C49.0293 52.7286 51.5577 50.2006 51.5577 47.0933H49.8069C49.8069 49.2352 48.0638 50.9777 45.9213 50.9777C43.7788 50.9777 42.0356 49.2351 42.0356 47.0933H40.2847C40.2847 50.2006 42.8132 52.7286 45.9213 52.7286Z" fill="#1D2C30"/>
<path d="M18.7528 47.0927C21.4996 45.6154 23.3692 42.7072 23.3692 39.3603C23.3692 34.5015 19.4337 30.5776 14.5865 30.5776C9.90449 30.5776 0.667912 33.0531 0.00205612 45.6254C-0.0401382 46.4218 0.588533 47.0929 1.38587 47.0929H18.7528V47.0927Z" fill="#F8B40E"/>
<path d="M20.5248 40.6989C20.5248 35.8401 16.5893 31.9162 11.7421 31.9162C10.3483 31.9162 8.55095 32.1365 6.69633 32.7761C9.45148 31.0796 12.48 30.5776 14.5865 30.5776C19.4337 30.5776 23.3692 34.5016 23.3692 39.3603C23.3692 42.7072 21.4996 45.6156 18.7527 47.0929H17.7642C19.4628 45.4935 20.5248 43.2209 20.5248 40.6989Z" fill="#DD9B0A"/>
<path d="M34.842 47.0926C34.842 40.9739 39.8022 36.0137 45.9209 36.0137C52.0397 36.0137 57 40.9739 57 47.0926H34.842Z" fill="#F8B40E"/>
<path d="M44.081 36.1666C44.6796 36.0666 45.294 36.0137 45.9209 36.0137C52.0398 36.0136 57 40.9738 57 47.0925H53.3202C53.3202 41.6007 49.3239 37.0431 44.081 36.1666Z" fill="#DD9B0A"/>
<path d="M10.7841 52.729C13.8919 52.729 16.4203 50.2006 16.4203 47.0928H14.6694C14.6694 49.2352 12.9265 50.9781 10.7841 50.9781C8.64167 50.9781 6.89871 49.2352 6.89871 47.0928H5.14785C5.14796 50.2005 7.67623 52.729 10.7841 52.729Z" fill="#1D2C30"/>
<path d="M40.7342 11.9556H42.5092C43.0074 11.9556 43.4113 12.3595 43.4113 12.8577V19.9216C43.4113 20.4197 43.0074 20.8236 42.5092 20.8236H40.7342V11.9556Z" fill="#A0D9F2"/>
<path d="M40.7342 19.0146H43.4113V19.9219C43.4113 20.4201 43.0074 20.824 42.5092 20.824H40.7342V19.0146Z" fill="#84BED3"/>
<path d="M13.0379 24.7605L30.0641 25.9621C32.0219 26.1002 33.5396 27.7289 33.5396 29.6915H9.82772V27.7522C9.8275 26.0127 11.3026 24.6381 13.0379 24.7605Z" fill="#444D56"/>
<path d="M34.7755 7.28711H36.5264V15.8839H34.7755V7.28711Z" fill="#D3D3D3"/>
<path d="M6.65698 37.5581H15.1902C15.6737 37.5581 16.0657 37.1661 16.0657 36.6826C16.0657 36.1991 15.6737 35.8071 15.1902 35.8071H6.65698C6.17348 35.8071 5.78149 36.1991 5.78149 36.6826C5.78149 37.1661 6.17348 37.5581 6.65698 37.5581Z" fill="#DD9B0A"/>
<path d="M8.88812 40.3823H15.1902C15.6737 40.3823 16.0657 39.9903 16.0657 39.5068C16.0657 39.0233 15.6737 38.6313 15.1902 38.6313H8.88812C8.40462 38.6313 8.01263 39.0233 8.01263 39.5068C8.01263 39.9903 8.40462 40.3823 8.88812 40.3823Z" fill="#DD9B0A"/>
<path d="M11.1192 43.1714H15.1902C15.6737 43.1714 16.0657 42.7794 16.0657 42.2959C16.0657 41.8124 15.6737 41.4204 15.1902 41.4204H11.1192C10.6357 41.4204 10.2438 41.8124 10.2438 42.2959C10.2438 42.7795 10.6357 43.1714 11.1192 43.1714Z" fill="#DD9B0A"/>
<path d="M35.651 18.962C34.2302 18.962 33.0784 17.8103 33.0784 16.3895C33.0784 14.9687 34.2302 13.8169 35.651 13.8169C37.0718 13.8169 38.2236 14.9687 38.2236 16.3895C38.2236 17.8103 37.0718 18.962 35.651 18.962Z" fill="#444D56"/>
<path d="M35.6514 9.35467C36.5293 9.35467 37.2409 8.64294 37.2409 7.76512V2.79609C37.2409 1.91815 36.5292 1.20654 35.6514 1.20654C34.7734 1.20654 34.0618 1.91827 34.0618 2.79609V7.76501C34.0618 8.64294 34.7734 9.35467 35.6514 9.35467Z" fill="#E6E6E6"/>
</svg>
