<svg width="200" height="151" viewBox="0 0 200 151" fill="none" xmlns="http://www.w3.org/2000/svg">
<path d="M103.5 56.8197C103.5 56.8197 118.915 77.5547 132.58 75.5547C146.245 73.5547 155.415 52.0547 155.415 52.0547L149.915 48.5547C149.915 48.5547 130.33 77.7097 113.08 45.0547L103.5 56.8197Z" fill="#AD4C4C"/>
<path opacity="0.08" d="M103.5 56.8197C103.5 56.8197 118.915 77.5547 132.58 75.5547C146.245 73.5547 155.415 52.0547 155.415 52.0547L149.915 48.5547C149.915 48.5547 130.33 77.7097 113.08 45.0547L103.5 56.8197Z" fill="black"/>
<path d="M115.565 47.5244C115.565 47.5244 119.88 50.0994 121.015 54.4744C122.15 58.8494 121.91 69.9344 112.97 75.4744C104.03 81.0144 94.4 83.4744 95.9 89.9744L90.775 87.4744L97.15 73.7244L111.7 65.4944L115.565 47.5244Z" fill="#AD4C4C"/>
<path opacity="0.45" d="M100.11 129.014C145.353 129.014 182.03 124.376 182.03 118.654C182.03 112.933 145.353 108.294 100.11 108.294C54.8668 108.294 18.19 112.933 18.19 118.654C18.19 124.376 54.8668 129.014 100.11 129.014Z" fill="#E6E6E6"/>
<path d="M108.725 113.629C108.725 113.629 110.5 115.129 112.295 114.289C114.09 113.449 115.505 114.864 114.215 116.184C112.925 117.504 107.815 117.819 107.815 117.819L106.37 115.024L108.725 113.629Z" fill="#AD4C4C"/>
<path d="M50.765 102.14C50.765 102.14 48.445 102.06 47.555 103.83C46.665 105.6 44.68 105.365 44.87 103.53C45.06 101.695 48.87 98.2896 48.87 98.2896L51.735 99.5845L50.765 102.14Z" fill="#AD4C4C"/>
<path d="M121.39 37.2845C121.39 37.2845 121.89 40.6895 121.42 42.9895C121.379 43.2149 121.294 43.4299 121.169 43.6219C121.044 43.8138 120.882 43.9789 120.693 44.1075C120.503 44.236 120.29 44.3254 120.065 44.3704C119.841 44.4154 119.609 44.4151 119.385 44.3695C118.23 44.1295 116.735 43.4595 116.255 41.6695L115.065 38.7295C114.889 38.1162 114.908 37.4633 115.119 36.8613C115.331 36.2593 115.724 35.7379 116.245 35.3695C118.1 33.8695 121.2 35.1995 121.39 37.2845Z" fill="#F4A28C"/>
<path d="M117.43 38.6294L108.51 45.4944L112.645 50.1394L117.355 43.4494L117.43 38.6294Z" fill="#F4A28C"/>
<path d="M120.545 37.4745C119.488 37.5744 118.422 37.5509 117.37 37.4045C117.702 37.854 117.895 38.391 117.925 38.949C117.955 39.5071 117.822 40.0618 117.54 40.5445C117.277 41.0168 116.857 41.3829 116.354 41.5799C115.85 41.7769 115.294 41.7927 114.78 41.6245L114.595 37.2145C114.547 36.5849 114.671 35.9541 114.953 35.389C115.234 34.8239 115.664 34.3455 116.195 34.0045C116.657 33.7092 117.136 33.4421 117.63 33.2045C118.87 32.6295 120.775 33.3745 121.865 32.4545C121.975 32.3637 122.107 32.3029 122.248 32.2779C122.388 32.253 122.533 32.2647 122.667 32.3119C122.802 32.3592 122.922 32.4404 123.017 32.5477C123.111 32.655 123.176 32.7848 123.205 32.9245C123.475 34.2545 123.35 36.3745 121.58 37.2095C121.252 37.3548 120.902 37.4443 120.545 37.4745Z" fill="#24285B"/>
<path d="M117.905 40.4195C117.905 40.4195 117.805 39.0995 116.82 39.2595C115.835 39.4195 115.965 41.3195 117.32 41.4245L117.905 40.4195Z" fill="#F4A28C"/>
<path d="M121.585 39.4443L122.61 40.7143C122.668 40.7862 122.707 40.8717 122.724 40.9628C122.74 41.0538 122.734 41.1476 122.704 41.2353C122.675 41.3231 122.624 41.402 122.556 41.4647C122.488 41.5275 122.405 41.5721 122.315 41.5943L121.015 41.9093L121.585 39.4443Z" fill="#F4A28C"/>
<path opacity="0.31" d="M117.22 43.6395C116.819 42.9899 116.603 42.243 116.595 41.4795C116.595 41.4795 114.51 42.7995 115.87 45.5545L117.22 43.6395Z" fill="#CE8172"/>
<path d="M113.96 48.2697C113.96 48.2697 111.61 43.5647 102.11 43.5197C92.61 43.4747 69.345 55.9047 70.945 82.9747L90.775 87.4747C90.775 87.4747 94.44 78.3697 106.135 74.4747C118.14 70.4647 119.865 52.2347 113.96 48.2697Z" fill="white"/>
<path d="M109.955 44.3695C109.955 44.3695 87.955 31.4595 70.865 33.4595C53.775 35.4595 44.595 55.2095 44.595 55.2095L49.525 58.7095C49.525 58.7095 66.525 38.9945 77.275 45.9795C88.025 52.9645 106.63 67.2945 109.955 44.3695Z" fill="#AD4C4C"/>
<path d="M85.15 48.4744C85.15 48.4744 66.15 58.2244 66.9 82.0994L78.9 86.2244C78.9 86.2244 80.525 61.8494 103.15 59.4744C103.15 59.4744 111.52 54.8744 112.3 47.3044C112.3 47.3044 113.435 44.4944 104.915 41.7344L85.15 48.4744Z" fill="#AD4C4C"/>
<path d="M114.265 46.2096L113.8 49.0546H115.41L115.565 45.9946L114.265 46.2096Z" fill="white"/>
<path opacity="0.08" d="M111.845 54.3696C111.845 54.3696 107.46 70.4146 95.08 71.9196C82.7 73.4246 68.26 70.2946 68.26 70.2946C69.0848 67.1843 70.3564 64.21 72.035 61.4646C74.86 56.8146 88.08 61.2946 88.08 61.2946L111.845 54.3696Z" fill="black"/>
<path d="M112.38 46.1793C112.38 46.1793 111.175 49.3293 112.38 49.8243C112.99 50.0793 113.745 49.6943 114.34 49.2543C114.64 49.0284 114.853 48.7066 114.944 48.3427C115.035 47.9787 114.998 47.5946 114.84 47.2543L114.34 46.1543L112.38 46.1793Z" fill="#FFD200"/>
<path d="M113.8 48.2697C113.8 48.2697 114.65 57.4747 101.525 64.7247C88.4 71.9747 74.09 64.7247 74.09 64.7247L69.775 57.8997L78.9 55.9747C78.9 55.9747 99.945 64.8697 112.11 47.6797L113.8 48.2697Z" fill="#FFD200"/>
<path d="M68.55 82.6646C68.55 82.6646 65.445 89.8046 72.11 93.4746C76.04 95.6346 82.975 96.7695 88.01 97.3345C89.9493 97.554 91.8144 98.2073 93.4668 99.246C95.1191 100.285 96.5164 101.682 97.555 103.335L105.4 115.745L109.955 112.87L105.59 101.695C104.425 98.7034 102.675 95.9747 100.443 93.6678C98.2109 91.361 95.5412 89.5224 92.59 88.2596L90.795 87.4946L68.55 82.6646Z" fill="#24285B"/>
<path d="M83.62 92.8696C83.62 92.8696 83.955 105.04 73.455 106.87C62.955 108.7 49.79 102.54 49.79 102.54L52.12 98.3695C52.12 98.3695 73.79 105.04 72.29 91.5396L83.62 92.8696Z" fill="#24285B"/>
<path d="M109.955 43.9396L111.7 43.0396L114.265 46.2096L112.3 48.7095L109.955 43.9396Z" fill="white"/>
<path opacity="0.26" d="M44.595 55.2246L43.705 57.2196L48.37 60.7196L49.525 58.7246L44.595 55.2246Z" fill="#AD4C4C"/>
<path d="M44.195 57.5845C44.195 57.5845 39.455 62.6545 42.77 63.9795C46.085 65.3045 47.415 65.2595 48.37 60.7195L44.195 57.5845Z" fill="#F4A28C"/>
<path opacity="0.4" d="M150.78 49.1195L151.58 47.4395L155.915 50.5195L155.415 52.0545L150.78 49.1195Z" fill="#AD4C4C"/>
<path d="M152.345 47.9844C152.345 47.9844 156.165 43.2294 159.165 44.6444C162.165 46.0594 161.415 48.4394 155.915 50.5194L152.345 47.9844Z" fill="#F4A28C"/>
</svg>
