<svg id="Icon_feather-shopping-cart" data-name="Icon feather-shopping-cart" xmlns="http://www.w3.org/2000/svg" width="26.048" height="25" viewBox="0 0 26.048 25">
  <path id="Path_1" data-name="Path 1" d="M14.1,31.048A1.048,1.048,0,1,1,13.048,30,1.048,1.048,0,0,1,14.1,31.048Z" transform="translate(-3.167 -8.595)" fill="none" stroke="#000" stroke-linecap="round" stroke-linejoin="round" stroke-width="3"/>
  <path id="Path_2" data-name="Path 2" d="M30.6,31.048A1.048,1.048,0,1,1,29.548,30,1.048,1.048,0,0,1,30.6,31.048Z" transform="translate(-8.143 -8.595)" fill="none" stroke="#000" stroke-linecap="round" stroke-linejoin="round" stroke-width="3"/>
  <path id="Path_3" data-name="Path 3" d="M1.5,1.5H5.69L8.5,15.528a2.1,2.1,0,0,0,2.1,1.687H20.776a2.1,2.1,0,0,0,2.1-1.687l1.676-8.79H6.738" fill="none" stroke="#000" stroke-linecap="round" stroke-linejoin="round" stroke-width="3"/>
</svg>
