<svg xmlns="http://www.w3.org/2000/svg" width="26.35" height="24.176" viewBox="0 0 26.35 24.176">
  <path id="Icon_material-favorite-border" data-name="Icon material-favorite-border" d="M22.1,4.5a7.89,7.89,0,0,0-5.929,2.754A7.89,7.89,0,0,0,10.246,4.5,7.176,7.176,0,0,0,3,11.746c0,4.98,4.48,9.038,11.265,15.2l1.91,1.726,1.91-1.739C24.87,20.784,29.35,16.726,29.35,11.746A7.176,7.176,0,0,0,22.1,4.5Zm-5.8,20.487-.132.132-.132-.132C9.772,19.309,5.635,15.554,5.635,11.746a4.5,4.5,0,0,1,4.611-4.611,5.151,5.151,0,0,1,4.7,3.109h2.464A5.118,5.118,0,0,1,22.1,7.135a4.5,4.5,0,0,1,4.611,4.611C26.715,15.554,22.578,19.309,16.307,24.987Z" transform="translate(-3 -4.5)"/>
</svg>
