<svg width="87" height="21" viewBox="0 0 87 21" fill="none" xmlns="http://www.w3.org/2000/svg">
<path d="M8.68 1.1V2.96H2.78V7.06H7.38V8.92H2.78V15H0.5V1.1H8.68ZM15.573 15.18C14.533 15.18 13.593 14.9467 12.753 14.48C11.913 14 11.253 13.3333 10.773 12.48C10.293 11.6133 10.053 10.6133 10.053 9.48C10.053 8.36 10.2996 7.36667 10.793 6.5C11.2863 5.63333 11.9596 4.96667 12.813 4.5C13.6663 4.03333 14.6196 3.8 15.673 3.8C16.7263 3.8 17.6796 4.03333 18.533 4.5C19.3863 4.96667 20.0596 5.63333 20.553 6.5C21.0463 7.36667 21.293 8.36 21.293 9.48C21.293 10.6 21.0396 11.5933 20.533 12.46C20.0263 13.3267 19.333 14 18.453 14.48C17.5863 14.9467 16.6263 15.18 15.573 15.18ZM15.573 13.2C16.1596 13.2 16.7063 13.06 17.213 12.78C17.733 12.5 18.153 12.08 18.473 11.52C18.793 10.96 18.953 10.28 18.953 9.48C18.953 8.68 18.7996 8.00667 18.493 7.46C18.1863 6.9 17.7796 6.48 17.273 6.2C16.7663 5.92 16.2196 5.78 15.633 5.78C15.0463 5.78 14.4996 5.92 13.993 6.2C13.4996 6.48 13.1063 6.9 12.813 7.46C12.5196 8.00667 12.373 8.68 12.373 9.48C12.373 10.6667 12.673 11.5867 13.273 12.24C13.8863 12.88 14.653 13.2 15.573 13.2ZM28.3269 15.18C27.2869 15.18 26.3469 14.9467 25.5069 14.48C24.6669 14 24.0069 13.3333 23.5269 12.48C23.0469 11.6133 22.8069 10.6133 22.8069 9.48C22.8069 8.36 23.0535 7.36667 23.5469 6.5C24.0402 5.63333 24.7135 4.96667 25.5669 4.5C26.4202 4.03333 27.3735 3.8 28.4269 3.8C29.4802 3.8 30.4335 4.03333 31.2869 4.5C32.1402 4.96667 32.8135 5.63333 33.3069 6.5C33.8002 7.36667 34.0469 8.36 34.0469 9.48C34.0469 10.6 33.7935 11.5933 33.2869 12.46C32.7802 13.3267 32.0869 14 31.2069 14.48C30.3402 14.9467 29.3802 15.18 28.3269 15.18ZM28.3269 13.2C28.9135 13.2 29.4602 13.06 29.9669 12.78C30.4869 12.5 30.9069 12.08 31.2269 11.52C31.5469 10.96 31.7069 10.28 31.7069 9.48C31.7069 8.68 31.5535 8.00667 31.2469 7.46C30.9402 6.9 30.5335 6.48 30.0269 6.2C29.5202 5.92 28.9735 5.78 28.3869 5.78C27.8002 5.78 27.2535 5.92 26.7469 6.2C26.2535 6.48 25.8602 6.9 25.5669 7.46C25.2735 8.00667 25.1269 8.68 25.1269 9.48C25.1269 10.6667 25.4269 11.5867 26.0269 12.24C26.6402 12.88 27.4069 13.2 28.3269 13.2ZM35.5408 9.44C35.5408 8.33333 35.7674 7.35333 36.2208 6.5C36.6874 5.64667 37.3141 4.98667 38.1008 4.52C38.9008 4.04 39.7874 3.8 40.7608 3.8C41.4808 3.8 42.1874 3.96 42.8808 4.28C43.5874 4.58667 44.1474 5 44.5608 5.52V0.2H46.8608V15H44.5608V13.34C44.1874 13.8733 43.6674 14.3133 43.0008 14.66C42.3474 15.0067 41.5941 15.18 40.7408 15.18C39.7808 15.18 38.9008 14.94 38.1008 14.46C37.3141 13.9667 36.6874 13.2867 36.2208 12.42C35.7674 11.54 35.5408 10.5467 35.5408 9.44ZM44.5608 9.48C44.5608 8.72 44.4008 8.06 44.0808 7.5C43.7741 6.94 43.3674 6.51333 42.8608 6.22C42.3541 5.92667 41.8074 5.78 41.2208 5.78C40.6341 5.78 40.0874 5.92667 39.5808 6.22C39.0741 6.5 38.6608 6.92 38.3408 7.48C38.0341 8.02667 37.8808 8.68 37.8808 9.44C37.8808 10.2 38.0341 10.8667 38.3408 11.44C38.6608 12.0133 39.0741 12.4533 39.5808 12.76C40.1008 13.0533 40.6474 13.2 41.2208 13.2C41.8074 13.2 42.3541 13.0533 42.8608 12.76C43.3674 12.4667 43.7741 12.04 44.0808 11.48C44.4008 10.9067 44.5608 10.24 44.5608 9.48Z" fill="black"/>
<path d="M57.2955 7.86C58.0421 7.99333 58.6755 8.38667 59.1955 9.04C59.7155 9.69333 59.9755 10.4333 59.9755 11.26C59.9755 11.9667 59.7888 12.6067 59.4155 13.18C59.0555 13.74 58.5288 14.1867 57.8355 14.52C57.1421 14.84 56.3355 15 55.4155 15H49.8555V1.1H55.1555C56.1021 1.1 56.9155 1.26 57.5955 1.58C58.2755 1.9 58.7888 2.33333 59.1355 2.88C59.4821 3.41333 59.6555 4.01333 59.6555 4.68C59.6555 5.48 59.4421 6.14667 59.0155 6.68C58.5888 7.21333 58.0155 7.60667 57.2955 7.86ZM52.1355 6.94H54.9555C55.7021 6.94 56.2821 6.77333 56.6955 6.44C57.1221 6.09333 57.3355 5.6 57.3355 4.96C57.3355 4.33333 57.1221 3.84667 56.6955 3.5C56.2821 3.14 55.7021 2.96 54.9555 2.96H52.1355V6.94ZM55.2155 13.14C55.9888 13.14 56.5955 12.9533 57.0355 12.58C57.4755 12.2067 57.6955 11.6867 57.6955 11.02C57.6955 10.34 57.4621 9.8 56.9955 9.4C56.5288 9 55.9088 8.8 55.1355 8.8H52.1355V13.14H55.2155ZM61.6931 9.44C61.6931 8.33333 61.9198 7.35333 62.3731 6.5C62.8398 5.64667 63.4665 4.98667 64.2531 4.52C65.0531 4.04 65.9331 3.8 66.8931 3.8C67.7598 3.8 68.5131 3.97333 69.1531 4.32C69.8065 4.65333 70.3265 5.07333 70.7131 5.58V3.98H73.0131V15H70.7131V13.36C70.3265 13.88 69.7998 14.3133 69.1331 14.66C68.4665 15.0067 67.7065 15.18 66.8531 15.18C65.9065 15.18 65.0398 14.94 64.2531 14.46C63.4665 13.9667 62.8398 13.2867 62.3731 12.42C61.9198 11.54 61.6931 10.5467 61.6931 9.44ZM70.7131 9.48C70.7131 8.72 70.5531 8.06 70.2331 7.5C69.9265 6.94 69.5198 6.51333 69.0131 6.22C68.5065 5.92667 67.9598 5.78 67.3731 5.78C66.7865 5.78 66.2398 5.92667 65.7331 6.22C65.2265 6.5 64.8131 6.92 64.4931 7.48C64.1865 8.02667 64.0331 8.68 64.0331 9.44C64.0331 10.2 64.1865 10.8667 64.4931 11.44C64.8131 12.0133 65.2265 12.4533 65.7331 12.76C66.2531 13.0533 66.7998 13.2 67.3731 13.2C67.9598 13.2 68.5065 13.0533 69.0131 12.76C69.5198 12.4667 69.9265 12.04 70.2331 11.48C70.5531 10.9067 70.7131 10.24 70.7131 9.48ZM80.4478 3.8C81.3011 3.8 82.0545 3.97333 82.7078 4.32C83.3745 4.65333 83.8945 5.07333 84.2678 5.58V3.98H86.5678V15.18C86.5678 16.1933 86.3545 17.0933 85.9278 17.88C85.5011 18.68 84.8811 19.3067 84.0678 19.76C83.2678 20.2133 82.3078 20.44 81.1878 20.44C79.6945 20.44 78.4545 20.0867 77.4678 19.38C76.4811 18.6867 75.9211 17.74 75.7878 16.54H78.0478C78.2211 17.1133 78.5878 17.5733 79.1478 17.92C79.7211 18.28 80.4011 18.46 81.1878 18.46C82.1078 18.46 82.8478 18.18 83.4078 17.62C83.9811 17.06 84.2678 16.2467 84.2678 15.18V13.34C83.8811 13.86 83.3545 14.3 82.6878 14.66C82.0345 15.0067 81.2878 15.18 80.4478 15.18C79.4878 15.18 78.6078 14.94 77.8078 14.46C77.0211 13.9667 76.3945 13.2867 75.9278 12.42C75.4745 11.54 75.2478 10.5467 75.2478 9.44C75.2478 8.33333 75.4745 7.35333 75.9278 6.5C76.3945 5.64667 77.0211 4.98667 77.8078 4.52C78.6078 4.04 79.4878 3.8 80.4478 3.8ZM84.2678 9.48C84.2678 8.72 84.1078 8.06 83.7878 7.5C83.4811 6.94 83.0745 6.51333 82.5678 6.22C82.0611 5.92667 81.5145 5.78 80.9278 5.78C80.3411 5.78 79.7945 5.92667 79.2878 6.22C78.7811 6.5 78.3678 6.92 78.0478 7.48C77.7411 8.02667 77.5878 8.68 77.5878 9.44C77.5878 10.2 77.7411 10.8667 78.0478 11.44C78.3678 12.0133 78.7811 12.4533 79.2878 12.76C79.8078 13.0533 80.3545 13.2 80.9278 13.2C81.5145 13.2 82.0611 13.0533 82.5678 12.76C83.0745 12.4667 83.4811 12.04 83.7878 11.48C84.1078 10.9067 84.2678 10.24 84.2678 9.48Z" fill="#AD4C4C"/>
</svg>
