<svg xmlns="http://www.w3.org/2000/svg" xmlns:xlink="http://www.w3.org/1999/xlink" width="207" height="175" viewBox="0 0 207 175"><defs><linearGradient id="f" x1="103.648%" x2="4.41%" y1="100%" y2="3.534%"><stop offset="0%" stop-color="#4B5DE9"/><stop offset="100%" stop-color="#3941C3"/></linearGradient><path id="g" d="M0.0995199027,95.2654288 C0.0340203685,94.8532592 0,94.4306026 0,94 L0,60 C0,55.581722 3.581722,52 8,52 L66,52 C70.418278,52 74,55.581722 74,60 L74,94 C74,94.4306026 73.9659796,94.8532592 73.9004801,95.2654288 C73.9664408,96.1683426 74,97.0802522 74,98 C74,118.434536 57.4345357,135 37,135 C16.5654643,135 0,118.434536 0,98 C0,97.0802522 0.0335591976,96.1683426 0.0995199027,95.2654288 Z"/><pattern id="h" width="512" height="512" x="-512" y="-460" patternUnits="userSpaceOnUse"><use xlink:href="#a"/></pattern><filter id="i" width="102.7%" height="102.4%" x="-1.4%" y="-1.2%" filterUnits="objectBoundingBox"><feOffset dx="-1" in="SourceAlpha" result="shadowOffsetInner1"/><feComposite in="shadowOffsetInner1" in2="SourceAlpha" k2="-1" k3="1" operator="arithmetic" result="shadowInnerInner1"/><feColorMatrix in="shadowInnerInner1" result="shadowMatrixInner1" values="0 0 0 0 1   0 0 0 0 1   0 0 0 0 1  0 0 0 0.19 0"/><feOffset dx="1" in="SourceAlpha" result="shadowOffsetInner2"/><feComposite in="shadowOffsetInner2" in2="SourceAlpha" k2="-1" k3="1" operator="arithmetic" result="shadowInnerInner2"/><feColorMatrix in="shadowInnerInner2" result="shadowMatrixInner2" values="0 0 0 0 1   0 0 0 0 1   0 0 0 0 1  0 0 0 0.17 0"/><feOffset dx="2" dy="1" in="SourceAlpha" result="shadowOffsetInner3"/><feComposite in="shadowOffsetInner3" in2="SourceAlpha" k2="-1" k3="1" operator="arithmetic" result="shadowInnerInner3"/><feColorMatrix in="shadowInnerInner3" result="shadowMatrixInner3" values="0 0 0 0 0   0 0 0 0 0   0 0 0 0 0  0 0 0 0.01 0"/><feMerge><feMergeNode in="shadowMatrixInner1"/><feMergeNode in="shadowMatrixInner2"/><feMergeNode in="shadowMatrixInner3"/></feMerge></filter><circle id="j" cx="45" cy="20" r="20"/><pattern id="k" width="512" height="512" x="-487" y="-512" patternUnits="userSpaceOnUse"><use xlink:href="#b"/></pattern><filter id="l" width="105%" height="105%" x="-2.5%" y="-2.5%" filterUnits="objectBoundingBox"><feOffset dx="-1" in="SourceAlpha" result="shadowOffsetInner1"/><feComposite in="shadowOffsetInner1" in2="SourceAlpha" k2="-1" k3="1" operator="arithmetic" result="shadowInnerInner1"/><feColorMatrix in="shadowInnerInner1" result="shadowMatrixInner1" values="0 0 0 0 1   0 0 0 0 1   0 0 0 0 1  0 0 0 0.19 0"/><feOffset dx="1" in="SourceAlpha" result="shadowOffsetInner2"/><feComposite in="shadowOffsetInner2" in2="SourceAlpha" k2="-1" k3="1" operator="arithmetic" result="shadowInnerInner2"/><feColorMatrix in="shadowInnerInner2" result="shadowMatrixInner2" values="0 0 0 0 1   0 0 0 0 1   0 0 0 0 1  0 0 0 0.17 0"/><feOffset dx="2" dy="1" in="SourceAlpha" result="shadowOffsetInner3"/><feComposite in="shadowOffsetInner3" in2="SourceAlpha" k2="-1" k3="1" operator="arithmetic" result="shadowInnerInner3"/><feColorMatrix in="shadowInnerInner3" result="shadowMatrixInner3" values="0 0 0 0 0   0 0 0 0 0   0 0 0 0 0  0 0 0 0.01 0"/><feMerge><feMergeNode in="shadowMatrixInner1"/><feMergeNode in="shadowMatrixInner2"/><feMergeNode in="shadowMatrixInner3"/></feMerge></filter><linearGradient id="m" x1="37.071%" x2="84.489%" y1="38.816%" y2="89.984%"><stop offset="0%" stop-color="#505CDF"/><stop offset="100%" stop-color="#7E93FF"/></linearGradient><path id="n" d="M0.0206311615,125.578993 C0.00695535871,125.387776 2.38439235e-17,125.1947 0,125 L0,76 C-5.41083001e-16,71.581722 3.581722,68 8,68 L88,68 C92.418278,68 96,71.581722 96,76 L96,125 C96,125.1947 95.9930446,125.387776 95.9793688,125.578993 C95.9930913,126.050985 96,126.524686 96,127 C96,153.509668 74.509668,175 48,175 C21.490332,175 0,153.509668 0,127 C0,126.524686 0.00690870053,126.050985 0.0206311615,125.578993 Z"/><pattern id="o" width="512" height="512" x="-512" y="-444" patternUnits="userSpaceOnUse"><use xlink:href="#c"/></pattern><filter id="p" width="102.1%" height="101.9%" x="-1%" y="-.9%" filterUnits="objectBoundingBox"><feGaussianBlur in="SourceAlpha" result="shadowBlurInner1" stdDeviation=".5"/><feOffset dx="-1" dy="-1" in="shadowBlurInner1" result="shadowOffsetInner1"/><feComposite in="shadowOffsetInner1" in2="SourceAlpha" k2="-1" k3="1" operator="arithmetic" result="shadowInnerInner1"/><feColorMatrix in="shadowInnerInner1" values="0 0 0 0 1   0 0 0 0 1   0 0 0 0 1  0 0 0 0.17 0"/></filter><linearGradient id="q" x1="19.27%" x2="95.313%" y1="10.369%" y2="100%"><stop offset="0%" stop-color="#414FB7"/><stop offset="100%" stop-color="#5260D9"/></linearGradient><circle id="r" cx="48" cy="28" r="28"/><pattern id="s" width="512" height="512" x="-492" y="-512" patternUnits="userSpaceOnUse"><use xlink:href="#d"/></pattern><filter id="t" width="103.6%" height="103.6%" x="-1.8%" y="-1.8%" filterUnits="objectBoundingBox"><feGaussianBlur in="SourceAlpha" result="shadowBlurInner1" stdDeviation=".5"/><feOffset dx="-1" dy="-1" in="shadowBlurInner1" result="shadowOffsetInner1"/><feComposite in="shadowOffsetInner1" in2="SourceAlpha" k2="-1" k3="1" operator="arithmetic" result="shadowInnerInner1"/><feColorMatrix in="shadowInnerInner1" values="0 0 0 0 1   0 0 0 0 1   0 0 0 0 1  0 0 0 0.27 0"/></filter><linearGradient id="v" x1="2.151%" x2="113.177%" y1="9.713%" y2="104.673%"><stop offset="0%" stop-color="#1D2771"/><stop offset="100%" stop-color="#2D38A5"/></linearGradient><radialGradient id="w" cx="86.601%" cy="84.21%" r="60.992%" fx="86.601%" fy="84.21%"><stop offset="0%" stop-color="#313DAE"/><stop offset="100%" stop-color="#313DAE" stop-opacity="0"/></radialGradient><rect id="u" width="96" height="96" rx="8"/><pattern id="x" width="512" height="512" x="-512" y="-512" patternUnits="userSpaceOnUse"><use xlink:href="#e"/></pattern><rect id="A" width="96" height="98" y="-1" rx="8"/><filter id="z" width="103.1%" height="103.1%" x="-1.6%" y="-1.5%" filterUnits="objectBoundingBox"><feGaussianBlur in="SourceAlpha" result="shadowBlurInner1" stdDeviation=".5"/><feOffset dx="-1" in="shadowBlurInner1" result="shadowOffsetInner1"/><feComposite in="shadowOffsetInner1" in2="SourceAlpha" k2="-1" k3="1" operator="arithmetic" result="shadowInnerInner1"/><feColorMatrix in="shadowInnerInner1" result="shadowMatrixInner1" values="0 0 0 0 0.215686275   0 0 0 0 0.270588235   0 0 0 0 0.698039216  0 0 0 1 0"/><feGaussianBlur in="SourceAlpha" result="shadowBlurInner2" stdDeviation=".5"/><feOffset dx="2" in="shadowBlurInner2" result="shadowOffsetInner2"/><feComposite in="shadowOffsetInner2" in2="SourceAlpha" k2="-1" k3="1" operator="arithmetic" result="shadowInnerInner2"/><feColorMatrix in="shadowInnerInner2" result="shadowMatrixInner2" values="0 0 0 0 0.211764706   0 0 0 0 0.247058824   0 0 0 0 0.588235294  0 0 0 1 0"/><feMerge><feMergeNode in="shadowMatrixInner1"/><feMergeNode in="shadowMatrixInner2"/></feMerge></filter><linearGradient id="D" x1="29.468%" x2="97.963%" y1="50%" y2="50%"><stop offset="0%" stop-color="#F0F0F0"/><stop offset="100%" stop-color="#FFF"/></linearGradient><polygon id="C" points="67.965 30.989 52.985 30.989 52.985 72.014 43.911 72.014 43.911 30.989 29 30.989 29 23 67.965 23"/><filter id="B" width="148.8%" height="138.8%" x="-24.4%" y="-17.3%" filterUnits="objectBoundingBox"><feOffset dy="1" in="SourceAlpha" result="shadowOffsetOuter1"/><feGaussianBlur in="shadowOffsetOuter1" result="shadowBlurOuter1" stdDeviation="3"/><feColorMatrix in="shadowBlurOuter1" result="shadowMatrixOuter1" values="0 0 0 0 0   0 0 0 0 0   0 0 0 0 0  0 0 0 0.1 0"/><feOffset dy="1" in="SourceAlpha" result="shadowOffsetOuter2"/><feGaussianBlur in="shadowOffsetOuter2" result="shadowBlurOuter2" stdDeviation=".5"/><feColorMatrix in="shadowBlurOuter2" result="shadowMatrixOuter2" values="0 0 0 0 0   0 0 0 0 0   0 0 0 0 0  0 0 0 0.1 0"/><feMerge><feMergeNode in="shadowMatrixOuter1"/><feMergeNode in="shadowMatrixOuter2"/></feMerge></filter><filter id="E" width="117%" height="117%" x="-8.5%" y="-8.5%" filterUnits="objectBoundingBox"><feGaussianBlur in="SourceGraphic" stdDeviation="3"/></filter></defs><g fill="none" fill-rule="evenodd" transform="translate(6)"><g transform="translate(9)"><g transform="translate(53)"><g transform="translate(65 16)"><use fill="url(#f)" xlink:href="#g"/><use fill="url(#h)" fill-opacity=".012" xlink:href="#g"/><use fill="#000" filter="url(#i)" xlink:href="#g"/><g><use fill="url(#f)" xlink:href="#j"/><use fill="url(#k)" fill-opacity=".012" xlink:href="#j"/><use fill="#000" filter="url(#l)" xlink:href="#j"/></g></g><use fill="url(#m)" xlink:href="#n"/><use fill="url(#o)" fill-opacity=".012" xlink:href="#n"/><use fill="#000" filter="url(#p)" xlink:href="#n"/><g><use fill="url(#q)" xlink:href="#r"/><use fill="url(#s)" fill-opacity=".012" xlink:href="#r"/><use fill="#000" filter="url(#t)" xlink:href="#r"/></g></g><path d="M53.0206312,125.578993 C53.0069554,125.387776 53,125.1947 53,125 L53,76 C53,71.581722 56.581722,68 61,68 L141,68 C145.418278,68 149,71.581722 149,76 L149,125 C149,125.1947 148.993045,125.387776 148.979369,125.578993 C148.993091,126.050985 149,126.524686 149,127 C149,153.509668 127.509668,175 101,175 C74.490332,175 53,153.509668 53,127 C53,126.524686 53.0069087,126.050985 53.0206312,125.578993 Z M101,56 C85.536027,56 73,43.463973 73,28 C73,12.536027 85.536027,0 101,0 C116.463973,0 129,12.536027 129,28 C129,43.463973 116.463973,56 101,56 Z"/><g transform="translate(0 39)"><mask id="y" fill="#fff"><use xlink:href="#u"/></mask><use fill="url(#v)" xlink:href="#u"/><use fill="url(#w)" xlink:href="#u"/><use fill="url(#x)" fill-opacity=".013" xlink:href="#u"/><g fill="#000" mask="url(#y)"><use filter="url(#z)" xlink:href="#A"/></g><g mask="url(#y)"><use fill="#000" filter="url(#B)" xlink:href="#C"/><use fill="url(#D)" xlink:href="#C"/></g></g></g><path fill="#000" fill-opacity=".05" d="M18,39 L98,39 C102.418278,39 106,42.581722 106,47 L106,127 C106,131.418278 92.418278,145 88,145 L8,145 C3.581722,145 5.41083001e-16,141.418278 0,137 L0,57 C-5.41083001e-16,52.581722 13.581722,39 18,39 Z" filter="url(#E)"/></g></svg>