<svg xmlns="http://www.w3.org/2000/svg" xmlns:xlink="http://www.w3.org/1999/xlink" width="191" height="187" viewBox="0 0 191 187"><defs><linearGradient id="e" x1="25.297%" x2="97.994%" y1="5.791%" y2="97.859%"><stop offset="0%" stop-color="#0089DB"/><stop offset="100%" stop-color="#00B6FF"/></linearGradient><path id="f" d="M12.7776824,53.0115759 L120.492634,24.3105013 C123.160964,23.5995145 125.900441,25.1862545 126.611428,27.8545843 C126.62292,27.8977136 126.633834,27.9409948 126.644167,27.9844163 C129.418711,39.6436817 130.65983,51.3194016 130.367526,63.0115759 C130.075983,74.6732954 128.768158,86.5728189 126.444051,98.7101464 L126.444048,98.7101458 C125.924714,101.422293 123.305081,103.19992 120.592934,102.680587 C120.462807,102.65567 120.333722,102.62559 120.205984,102.590419 L12.7776824,73.0115759 L12.7776824,53.0115759 Z"/><pattern id="g" width="512" height="512" x="-499.222" y="-487.859" patternUnits="userSpaceOnUse"><use xlink:href="#a"/></pattern><filter id="h" width="108.5%" height="112.7%" x="-4.3%" y="-6.4%" filterUnits="objectBoundingBox"><feOffset dx="7" dy="-10" in="SourceAlpha" result="shadowOffsetInner1"/><feComposite in="shadowOffsetInner1" in2="SourceAlpha" k2="-1" k3="1" operator="arithmetic" result="shadowInnerInner1"/><feColorMatrix in="shadowInnerInner1" values="0 0 0 0 1   0 0 0 0 1   0 0 0 0 1  0 0 0 0.16 0"/></filter><linearGradient id="i" x1="47.386%" x2="97.692%" y1="59.557%" y2="43.117%"><stop offset="0%" stop-color="#0045A3"/><stop offset="100%" stop-color="#0066C7"/></linearGradient><path id="j" d="M12.7856536,118.981827 L120.596062,90.255324 C123.264389,89.544338 126.003863,91.1310761 126.714849,93.7994025 C126.721407,93.8240156 126.727777,93.8486784 126.733958,93.8733888 C129.309498,104.169333 130.523345,115.872146 130.375497,128.981827 C130.227519,142.10314 128.970363,154.062415 126.604029,164.859653 L126.604037,164.859655 C126.01287,167.557063 123.346954,169.264508 120.649546,168.673342 C120.563372,168.654456 120.477713,168.633292 120.392659,168.609874 L12.7856536,138.981827 L12.7856536,118.981827 Z"/><pattern id="k" width="512" height="512" x="-499.214" y="-421.914" patternUnits="userSpaceOnUse"><use xlink:href="#b"/></pattern><filter id="l" width="108.5%" height="112.7%" x="-4.3%" y="-6.4%" filterUnits="objectBoundingBox"><feGaussianBlur in="SourceAlpha" result="shadowBlurInner1" stdDeviation=".5"/><feOffset dx="-1" in="shadowBlurInner1" result="shadowOffsetInner1"/><feComposite in="shadowOffsetInner1" in2="SourceAlpha" k2="-1" k3="1" operator="arithmetic" result="shadowInnerInner1"/><feColorMatrix in="shadowInnerInner1" result="shadowMatrixInner1" values="0 0 0 0 1   0 0 0 0 1   0 0 0 0 1  0 0 0 0.19 0"/><feOffset dx="10" dy="-9" in="SourceAlpha" result="shadowOffsetInner2"/><feComposite in="shadowOffsetInner2" in2="SourceAlpha" k2="-1" k3="1" operator="arithmetic" result="shadowInnerInner2"/><feColorMatrix in="shadowInnerInner2" result="shadowMatrixInner2" values="0 0 0 0 0   0 0 0 0 0   0 0 0 0 0  0 0 0 0.12 0"/><feMerge><feMergeNode in="shadowMatrixInner1"/><feMergeNode in="shadowMatrixInner2"/></feMerge></filter><linearGradient id="m" x1="101.173%" x2="12.25%" y1="100%" y2="6.349%"><stop offset="0%" stop-color="#00A9FF"/><stop offset="100%" stop-color="#005FE5"/></linearGradient><path id="n" d="M43.4101563,86 L151.366316,57.2346671 C154.019852,56.5276221 156.747013,58.092977 157.474849,60.7408859 C160.167685,70.5375715 161.342735,82.2906095 161,96 C160.658936,109.642548 159.396581,121.590205 157.212933,131.842971 L157.212931,131.842971 C156.637701,134.543816 153.981918,136.266968 151.281073,135.691738 C151.185163,135.671311 151.089875,135.648067 150.995332,135.622036 L43.4101563,106 L43.4101563,86 Z"/><pattern id="o" width="512" height="512" x="-468.59" y="-454.935" patternUnits="userSpaceOnUse"><use xlink:href="#c"/></pattern><filter id="p" width="100.8%" height="101.3%" x="-.4%" y="-.6%" filterUnits="objectBoundingBox"><feOffset dx="-1" dy="-1" in="SourceAlpha" result="shadowOffsetInner1"/><feComposite in="shadowOffsetInner1" in2="SourceAlpha" k2="-1" k3="1" operator="arithmetic" result="shadowInnerInner1"/><feColorMatrix in="shadowInnerInner1" result="shadowMatrixInner1" values="0 0 0 0 1   0 0 0 0 1   0 0 0 0 1  0 0 0 0.05 0"/><feOffset dx="1" dy="1" in="SourceAlpha" result="shadowOffsetInner2"/><feComposite in="shadowOffsetInner2" in2="SourceAlpha" k2="-1" k3="1" operator="arithmetic" result="shadowInnerInner2"/><feColorMatrix in="shadowInnerInner2" result="shadowMatrixInner2" values="0 0 0 0 0   0 0 0 0 0   0 0 0 0 0  0 0 0 0.1 0"/><feMerge><feMergeNode in="shadowMatrixInner1"/><feMergeNode in="shadowMatrixInner2"/></feMerge></filter><linearGradient id="r" x1="2.151%" x2="113.177%" y1="9.713%" y2="104.673%"><stop offset="0%" stop-color="#00458C"/><stop offset="97.604%" stop-color="#0075E0"/></linearGradient><radialGradient id="s" cx="86.601%" cy="84.21%" r="62.398%" fx="86.601%" fy="84.21%"><stop offset="0%" stop-color="#0075E0"/><stop offset="100%" stop-color="#0075E0" stop-opacity="0"/></radialGradient><rect id="q" width="96" height="96" rx="8"/><pattern id="t" width="512" height="512" x="-512" y="-512" patternUnits="userSpaceOnUse"><use xlink:href="#d"/></pattern><rect id="w" width="96" height="98" y="-1" rx="8"/><filter id="v" width="103.1%" height="103.1%" x="-1.6%" y="-1.5%" filterUnits="objectBoundingBox"><feGaussianBlur in="SourceAlpha" result="shadowBlurInner1" stdDeviation=".5"/><feOffset dx="-2" in="shadowBlurInner1" result="shadowOffsetInner1"/><feComposite in="shadowOffsetInner1" in2="SourceAlpha" k2="-1" k3="1" operator="arithmetic" result="shadowInnerInner1"/><feColorMatrix in="shadowInnerInner1" result="shadowMatrixInner1" values="0 0 0 0 0   0 0 0 0 0.505882353   0 0 0 0 0.97254902  0 0 0 1 0"/><feGaussianBlur in="SourceAlpha" result="shadowBlurInner2" stdDeviation=".5"/><feOffset dx="2" in="shadowBlurInner2" result="shadowOffsetInner2"/><feComposite in="shadowOffsetInner2" in2="SourceAlpha" k2="-1" k3="1" operator="arithmetic" result="shadowInnerInner2"/><feColorMatrix in="shadowInnerInner2" result="shadowMatrixInner2" values="0 0 0 0 0   0 0 0 0 0.384313725   0 0 0 0 0.717647059  0 0 0 1 0"/><feMerge><feMergeNode in="shadowMatrixInner1"/><feMergeNode in="shadowMatrixInner2"/></feMerge></filter><linearGradient id="z" x1="29.468%" x2="97.963%" y1="50%" y2="50%"><stop offset="0%" stop-color="#F0F0F0"/><stop offset="100%" stop-color="#FFF"/></linearGradient><path id="y" d="M52.0009869,57.2646908 L52.0009869,70.0009869 C52.0009869,72.7624107 49.7624107,75.0009869 47.0009869,75.0009869 C44.2395632,75.0009869 42.0009869,72.7624107 42.0009869,70.0009869 L42.0009869,57.2509869 L26.5892222,28.3539281 C25.2897287,25.9173777 26.2114954,22.8887158 28.6480458,21.5892222 C31.0845961,20.2897287 34.1132581,21.2114954 35.4127516,23.6480458 L47.0282453,45.4270964 L58.8006308,23.6253311 C60.1126693,21.195513 63.1460434,20.2893735 65.5758616,21.6014121 C68.0056797,22.9134506 68.9118191,25.9468247 67.5997806,28.3766428 L52.0009869,57.2646908 Z"/><filter id="x" width="109.5%" height="107.4%" x="-4.7%" y="-1.9%" filterUnits="objectBoundingBox"><feOffset dy="1" in="SourceAlpha" result="shadowOffsetOuter1"/><feGaussianBlur in="shadowOffsetOuter1" result="shadowBlurOuter1" stdDeviation=".5"/><feColorMatrix in="shadowBlurOuter1" values="0 0 0 0 0   0 0 0 0 0   0 0 0 0 0  0 0 0 0.1 0"/></filter></defs><g fill="none" fill-rule="evenodd" transform="translate(0 -3)"><g transform="translate(30)"><g transform="rotate(-30 71.593 63.456)"><use fill="url(#e)" xlink:href="#f"/><use fill="url(#g)" fill-opacity=".012" xlink:href="#f"/><use fill="#000" filter="url(#h)" xlink:href="#f"/></g><g transform="scale(1 -1) rotate(-30 -411.482 0)"><use fill="url(#i)" xlink:href="#j"/><use fill="url(#k)" fill-opacity=".012" xlink:href="#j"/><use fill="#000" filter="url(#l)" xlink:href="#j"/></g><use fill="url(#m)" xlink:href="#n"/><use fill="url(#o)" fill-opacity=".012" xlink:href="#n"/><use fill="#000" filter="url(#p)" xlink:href="#n"/></g><g transform="translate(0 49)"><mask id="u" fill="#fff"><use xlink:href="#q"/></mask><use fill="url(#r)" xlink:href="#q"/><use fill="url(#s)" xlink:href="#q"/><use fill="url(#t)" fill-opacity=".013" xlink:href="#q"/><g fill="#000" mask="url(#u)"><use filter="url(#v)" xlink:href="#w"/></g><g mask="url(#u)"><use fill="#000" filter="url(#x)" xlink:href="#y"/><use fill="url(#z)" xlink:href="#y"/></g></g></g></svg>