<svg width="22" height="16" viewBox="0 0 22 16" fill="none" xmlns="http://www.w3.org/2000/svg">
<path d="M21.4709 2.84699C21.2255 1.92316 20.5026 1.19559 19.5848 0.948672C17.9211 0.5 11.2499 0.5 11.2499 0.5C11.2499 0.5 4.57884 0.5 2.91513 0.948672C1.99728 1.19563 1.27439 1.92316 1.02903 2.84699C0.583252 4.52148 0.583252 8.01516 0.583252 8.01516C0.583252 8.01516 0.583252 11.5088 1.02903 13.1833C1.27439 14.1071 1.99728 14.8044 2.91513 15.0513C4.57884 15.5 11.2499 15.5 11.2499 15.5C11.2499 15.5 17.921 15.5 19.5848 15.0513C20.5026 14.8044 21.2255 14.1071 21.4709 13.1833C21.9166 11.5088 21.9166 8.01516 21.9166 8.01516C21.9166 8.01516 21.9166 4.52148 21.4709 2.84699ZM9.06811 11.1871V4.84316L14.6439 8.01523L9.06811 11.1871Z" fill="#AD4C4C"/>
</svg>
