<svg width="300" height="226" viewBox="0 0 300 226" fill="none" xmlns="http://www.w3.org/2000/svg">
<path d="M170.212 142.044C201.614 142.044 227.07 116.612 227.07 85.2398C227.07 53.8675 201.614 28.4352 170.212 28.4352C138.811 28.4352 113.355 53.8675 113.355 85.2398C113.355 116.612 138.811 142.044 170.212 142.044Z" fill="#E6E6E6"/>
<path d="M128.19 48.0595C128.19 48.0595 128.692 56.2494 134.317 53.7917C139.942 51.334 147.532 48.6739 146.715 57.6806C145.897 66.6872 150.405 67.9235 156.75 65.6681C163.095 63.4127 160.035 62.8058 160.44 54.6084C160.845 46.411 150.202 46.0064 151.837 40.2668C153.472 34.5271 166.29 41.3682 161.835 29.0272C161.835 29.0272 139.395 30.9005 128.19 48.0595Z" fill="#C9C9C9"/>
<path d="M175.5 69.4071C174.307 69.4053 173.128 69.6609 172.043 70.1564C169.793 71.2279 167.093 73.813 168.63 79.9722C171.09 89.8405 175.193 82.5124 180.518 83.7187C185.843 84.9251 198 86.154 192 97.0114C186 107.869 192.818 110.117 198.563 107.457C204.308 104.797 200.408 94.1415 206.355 98.8547C212.303 103.568 205.463 118.411 219.953 112.732C219.953 112.732 236.625 87.5102 219.953 57.7479C219.953 57.7479 212.393 43.2939 206.453 48.4191C200.513 53.5443 208.703 53.8291 209.513 59.7111C210.323 65.5931 206.865 72.7639 202.125 66.1626C197.385 59.5612 198.975 60.1682 191.393 59.3214C185.333 58.6695 181.11 59.3964 181.005 64.5666C180.98 65.8516 180.456 67.0765 179.543 67.9826C178.631 68.8886 177.401 69.4048 176.115 69.422L175.5 69.4071Z" fill="#C9C9C9"/>
<path d="M174 37.4043C174 37.4043 168.098 35.7634 168.18 42.9342C168.263 50.105 172.155 49.6779 176.43 47.8496C180.705 46.0213 177.045 51.9483 185.243 50.3073C193.44 48.6664 194.063 46.7481 192.218 43.9233C190.373 41.0984 187.35 30.2335 174 37.4043Z" fill="#C9C9C9"/>
<path d="M113.355 85.2249C113.355 85.2249 120.292 73.8955 127.867 81.5533C135.443 89.2112 120.54 87.9823 128.19 95.3555C135.84 102.729 141.173 85.6145 145.478 92.1185C149.783 98.6224 158.228 103.058 148.335 108.798C138.442 114.538 144.36 122.495 148.92 120.787C153.48 119.078 161.58 130.633 148.92 137.766C148.92 137.803 111.75 124.264 113.355 85.2249Z" fill="#C9C9C9"/>
<path d="M172.8 98.2403C172.8 98.2403 165.008 98.2403 164.985 105.613C164.963 112.987 179.535 106.018 176.145 114.006C172.755 121.993 180.72 124.151 185.145 120.824C189.57 117.497 181.935 107.472 182.67 100.398C183.405 93.3249 173.663 94.9658 172.8 98.2403Z" fill="#C9C9C9"/>
<path d="M170.25 142.045C170.25 142.045 165.225 136.747 176.183 135.518C187.14 134.289 187.38 128.55 190.95 126.092C194.52 123.634 202.08 132.311 202.08 132.311C202.08 132.311 188.01 144.884 170.25 142.045Z" fill="#C9C9C9"/>
<path opacity="0.08" d="M154.8 75.7762L162.75 74.4724L157.68 94.3214L152.43 95.4304C151.269 95.6772 150.18 96.1892 149.25 96.9263C148.32 97.6633 147.573 98.6054 147.067 99.6789C144.352 105.396 138.127 117.04 129.165 124.878C129.165 124.878 115.5 112.889 113.61 93.6321L122.422 77.2149L129.172 76.7952L154.8 75.7762Z" fill="black"/>
<path opacity="0.45" d="M143.67 208.635C189.544 208.635 226.732 203.667 226.732 197.538C226.732 191.409 189.544 186.441 143.67 186.441C97.7958 186.441 60.6074 191.409 60.6074 197.538C60.6074 203.667 97.7958 208.635 143.67 208.635Z" fill="#E6E6E6"/>
<path d="M140.392 164.104C140.392 164.104 143.032 166.277 145.642 165.003C148.252 163.729 150.36 165.752 148.5 167.746C146.64 169.739 139.132 170.271 139.132 170.271L137.16 166.577L140.392 164.104Z" fill="#AD4C4C"/>
<path d="M124.41 170.271C124.41 170.271 125.205 173.59 128.063 174.152C130.92 174.714 131.363 177.614 128.685 178.063C126.008 178.513 119.685 174.437 119.685 174.437L120.338 170.301L124.41 170.271Z" fill="#AD4C4C"/>
<path d="M104.52 96.6368L119.258 78.2938L122.438 81.0812L109.883 102.047L104.52 96.6368Z" fill="#AD4C4C"/>
<path d="M85.9799 72.5017L88.6949 80.6541L82.2374 84.7453L79.9199 70.6284L85.9799 72.5017Z" fill="#F4A28C"/>
<path d="M77.7001 62.7458C78.0371 61.9701 78.5628 61.2909 79.2295 60.7699C79.8961 60.2489 80.6825 59.9027 81.5172 59.7627C82.3519 59.6228 83.2084 59.6935 84.0088 59.9684C84.8092 60.2434 85.5281 60.7139 86.1001 61.3371C88.8526 64.2669 92.1601 68.9275 88.4176 71.4602C82.6801 75.3416 77.4226 68.0883 77.4226 68.0883C76.9866 66.319 77.0831 64.4605 77.7001 62.7458Z" fill="#F4A28C"/>
<path d="M81.8924 67.7512C81.8924 67.7512 80.3924 66.5223 79.7624 68.2607C79.1324 69.9991 81.6899 70.8533 82.4624 69.9691C83.2349 69.0849 81.8924 67.7512 81.8924 67.7512Z" fill="#F4A28C"/>
<path d="M74.7076 88.7466C75.6864 86.594 77.1173 84.6769 78.9031 83.1255C80.6889 81.574 82.7879 80.4245 85.0576 79.755C93.8251 77.1249 109.973 80.0023 114.893 88.1996C121.643 99.4392 111.765 135.069 111.765 135.069L82.2976 137.354C82.2976 137.354 66.0826 108.101 74.7076 88.7466Z" fill="#AD4C4C"/>
<path opacity="0.08" d="M87.6 78.9532C87.6 78.9532 73.815 123.312 113.625 126.249L111.75 135.031L82.2825 137.316C82.2825 137.316 71.895 121.027 72.3375 98.1429C72.3375 98.1429 72.585 86.8284 80.5875 81.8231C82.6947 80.3801 85.0851 79.4019 87.6 78.9532Z" fill="black"/>
<path d="M99.6226 79.4852C98.1474 81.8448 97.3652 84.5709 97.3652 87.3529C97.3652 90.1349 98.1474 92.861 99.6226 95.2206C102.833 100.638 112.185 111.196 118.575 118.172C119.297 118.961 120.197 119.567 121.2 119.941C122.203 120.315 123.28 120.444 124.343 120.32C125.406 120.196 126.424 119.82 127.313 119.225C128.203 118.63 128.938 117.833 129.458 116.898L143.19 92.7179L138.533 89.7207L125.948 108.154C125.948 108.154 117.33 79.8449 99.6226 79.4852Z" fill="#AD4C4C"/>
<path opacity="0.2" d="M99.6226 79.4852C98.1474 81.8448 97.3652 84.5709 97.3652 87.3529C97.3652 90.1349 98.1474 92.861 99.6226 95.2206C102.833 100.638 112.185 111.196 118.575 118.172C119.297 118.961 120.197 119.567 121.2 119.941C122.203 120.315 123.28 120.444 124.343 120.32C125.406 120.196 126.424 119.82 127.313 119.225C128.203 118.63 128.938 117.833 129.458 116.898L143.19 92.7179L138.533 89.7207L125.948 108.154C125.948 108.154 117.33 79.8449 99.6226 79.4852Z" fill="white"/>
<path d="M141.57 91.639C141.57 91.639 149.362 88.7842 146.182 84.3783C143.002 79.9724 138.532 89.6983 138.532 89.6983L141.57 91.639Z" fill="#F4A28C"/>
<path d="M80.3399 73.2362L75.9749 68.7403C75.5242 68.2707 75.1741 67.7142 74.9458 67.1048C74.7176 66.4955 74.616 65.846 74.6474 65.1961C74.7524 62.8958 75.2474 59.2017 77.1449 56.4818C80.1449 52.1733 84.1124 50.5398 85.0949 54.2338C86.0774 57.9279 86.2874 53.5295 88.6949 55.5151C91.1024 57.5008 90.6074 58.6547 88.6949 59.7112C86.7824 60.7678 82.8224 62.2739 82.4699 65.4209C82.1174 68.568 85.1024 71.1006 80.3399 73.2362Z" fill="#24285B"/>
<path d="M101.19 148.166L108.847 151.343C110.977 152.228 112.852 153.632 114.299 155.426C115.747 157.221 116.722 159.349 117.135 161.616L118.927 171.477L125.077 170.833L124.072 155.382C123.898 152.699 123.067 150.099 121.652 147.811C120.237 145.524 118.282 143.618 115.957 142.262L110.865 139.265L101.19 148.166Z" fill="#24285B"/>
<path d="M101.19 155.832H94.7175V190.33H101.19V155.832Z" fill="#AD4C4C"/>
<path opacity="0.46" d="M101.19 155.832H94.7175V190.33H101.19V155.832Z" fill="white"/>
<path d="M82.2976 137.316C82.2976 137.316 81.6376 147.32 90.3226 149.777C95.9626 151.373 108.218 149.972 116.108 148.796C118.294 148.468 120.528 148.76 122.556 149.64C124.583 150.519 126.323 151.951 127.575 153.771L136.455 166.712L141.375 164.254L134.895 146.196C133.936 143.529 132.25 141.184 130.028 139.424C127.805 137.665 125.135 136.561 122.318 136.237L111.75 135.031L82.2976 137.316Z" fill="#24285B"/>
<path d="M111.833 147.042H84.3076V160.148H111.833V147.042Z" fill="#AD4C4C"/>
<path d="M94.7176 184.8L84.3076 194.016H111.833L101.19 184.8H94.7176Z" fill="#AD4C4C"/>
<path opacity="0.08" d="M94.7176 184.8L84.3076 194.016H111.833L101.19 184.8H94.7176Z" fill="black"/>
<path d="M123.502 78.0916L130.41 62.2363L134.925 67.991L143.67 63.8323L147.495 70.2838L156.93 68.9276L151.32 86.9558L142.162 89.3086L137.955 82.415L129.18 84.8278L123.502 78.0916Z" fill="#FFD200"/>
<path opacity="0.2" d="M130.852 66.1626L125.85 77.2673L130.035 82.4899L139.057 79.4852L142.74 87.4353L149.715 85.4572L154.23 71.2279L146.13 72.6141L142.74 66.1626L134.55 70.3212L130.852 66.1626Z" fill="white"/>
<path opacity="0.08" d="M134.925 67.9909L129.18 84.8277L137.955 82.415L143.67 63.8323L134.925 67.9909Z" fill="black"/>
<path opacity="0.08" d="M147.495 70.2837L142.162 89.3085L151.32 86.9557L156.93 68.9275L147.495 70.2837Z" fill="black"/>
<path d="M119.812 78.7734C119.812 78.7734 120.683 74.8096 122.438 73.7831C124.193 72.7565 127.778 73.5658 126.24 75.7762C124.703 77.9866 122.438 81.0813 122.438 81.0813L119.812 78.7734Z" fill="#F4A28C"/>
<path d="M210.075 71.0256C216.938 71.0256 222.502 69.2208 222.502 66.9944C222.502 64.768 216.938 62.9631 210.075 62.9631C203.211 62.9631 197.647 64.768 197.647 66.9944C197.647 69.2208 203.211 71.0256 210.075 71.0256Z" fill="#24285B"/>
<path d="M228.33 32.8111C228.332 29.9935 227.681 27.2137 226.427 24.6897C225.174 22.1656 223.352 19.9659 221.106 18.2629C218.859 16.5599 216.248 15.3999 213.477 14.8739C210.706 14.3479 207.851 14.4701 205.136 15.2309C202.42 15.9918 199.918 17.3707 197.825 19.2594C195.733 21.1482 194.106 23.4955 193.074 26.1175C192.041 28.7394 191.63 31.5646 191.873 34.3718C192.116 37.1789 193.007 39.8916 194.475 42.2973L210.075 67.8261L225.585 42.4247C227.384 39.5404 228.335 36.2093 228.33 32.8111ZM210.075 42.5146C208.309 42.5161 206.582 41.9945 205.113 41.0158C203.643 40.0371 202.497 38.6452 201.819 37.0159C201.141 35.3867 200.962 33.5932 201.304 31.8622C201.646 30.1312 202.494 28.5403 203.741 27.2906C204.987 26.0409 206.577 25.1885 208.308 24.841C210.04 24.4935 211.836 24.6666 213.469 25.3384C215.102 26.0102 216.499 27.1505 217.483 28.6153C218.468 30.08 218.996 31.8035 219 33.5679C219.003 34.7411 218.774 35.9034 218.327 36.9882C217.88 38.0731 217.223 39.0592 216.394 39.8902C215.565 40.7211 214.581 41.3807 213.496 41.831C212.412 42.2813 211.249 42.5136 210.075 42.5146Z" fill="#FFD200"/>
<path d="M239.393 119.768H191.025V149.305H239.393V119.768Z" fill="#F2F2F2"/>
<path d="M201.855 137.227C201.855 137.227 201.105 141.355 204.412 140.793C207.72 140.231 206.152 138.485 205.68 136.223L201.855 137.227Z" fill="#A5A5A5"/>
<path d="M201.465 135.316L205.298 134.439C205.298 134.439 205.455 131.367 205.298 128.295C205.14 125.223 202.088 122.69 200.048 124.766C198.008 126.841 198.825 131.03 201.465 135.316Z" fill="#A5A5A5"/>
<path d="M208.717 141.018C208.717 141.018 206.542 144.083 209.467 144.884C212.392 145.686 211.755 143.663 212.235 141.647L208.717 141.018Z" fill="#A5A5A5"/>
<path d="M209.13 139.325L212.572 140.074C212.572 140.074 213.87 137.639 214.882 135.076C215.895 132.513 214.41 129.306 211.987 130.228C209.565 131.15 208.612 134.836 209.13 139.325Z" fill="#A5A5A5"/>
<path opacity="0.67" d="M233.498 130.55H221.828V133.795H233.498V130.55Z" fill="#C9C9C9"/>
<path opacity="0.31" d="M233.498 136.32H221.828V139.564H233.498V136.32Z" fill="#C9C9C9"/>
<path opacity="0.08" d="M191.025 124.009H182.302V141.902C185.296 141.243 188.217 140.292 191.025 139.062V124.009Z" fill="black"/>
</svg>
