<svg width="300" height="227" viewBox="0 0 300 227" fill="none" xmlns="http://www.w3.org/2000/svg">
<path d="M239.932 42.3218H69.12V160.117H239.932V42.3218Z" fill="#E6E6E6"/>
<path opacity="0.44" d="M239.932 66.8467H69.12V160.117H239.932V66.8467Z" fill="#CCCCCC"/>
<path opacity="0.08" d="M233.407 135.322L220.395 153.824H232.642V160.117H239.932L239.475 137.549L233.407 135.322Z" fill="black"/>
<path opacity="0.08" d="M71.25 76.8443C71.25 76.8443 74.79 74.4593 76.4475 83.2193C78.105 91.9793 73.245 99.4193 84.885 101.219C96.525 103.019 104.145 98.0993 106.83 112.079C109.515 126.059 124.635 132.382 119.467 145.019C114.3 157.657 109.987 160.117 109.987 160.117H69.12C69.12 160.117 68.8125 81.8243 71.25 76.8443Z" fill="black"/>
<path opacity="0.45" d="M75.3825 208.597C105.96 208.597 130.747 206.992 130.747 205.012C130.747 203.032 105.96 201.427 75.3825 201.427C44.8053 201.427 20.0175 203.032 20.0175 205.012C20.0175 206.992 44.8053 208.597 75.3825 208.597Z" fill="#E6E6E6"/>
<path opacity="0.45" d="M238.838 207.382C254.126 207.382 266.52 206.133 266.52 204.592C266.52 203.051 254.126 201.802 238.838 201.802C223.549 201.802 211.155 203.051 211.155 204.592C211.155 206.133 223.549 207.382 238.838 207.382Z" fill="#E6E6E6"/>
<path d="M82.8975 56.4142C84.7118 56.4142 86.1825 54.9435 86.1825 53.1292C86.1825 51.315 84.7118 49.8442 82.8975 49.8442C81.0832 49.8442 79.6125 51.315 79.6125 53.1292C79.6125 54.9435 81.0832 56.4142 82.8975 56.4142Z" fill="#24285B"/>
<path d="M92.67 56.4142C94.4842 56.4142 95.955 54.9435 95.955 53.1292C95.955 51.315 94.4842 49.8442 92.67 49.8442C90.8557 49.8442 89.385 51.315 89.385 53.1292C89.385 54.9435 90.8557 56.4142 92.67 56.4142Z" fill="#AD4C4C"/>
<path d="M101.88 56.4142C103.694 56.4142 105.165 54.9435 105.165 53.1292C105.165 51.315 103.694 49.8442 101.88 49.8442C100.066 49.8442 98.595 51.315 98.595 53.1292C98.595 54.9435 100.066 56.4142 101.88 56.4142Z" fill="#FFD200"/>
<path d="M50.295 198.877C50.295 198.877 49.3725 201.442 47.055 201.637C44.7375 201.832 44.1375 204.097 46.215 204.682C48.2925 205.267 53.67 202.597 53.67 202.597L53.5125 199.259L50.295 198.877Z" fill="#AD4C4C"/>
<path d="M82.095 198.877C82.095 198.877 83.01 201.442 85.3275 201.637C87.645 201.832 88.245 204.097 86.1675 204.682C84.09 205.267 78.72 202.597 78.72 202.597L78.87 199.259L82.095 198.877Z" fill="#AD4C4C"/>
<path d="M115.605 103.304C115.43 103.13 115.292 102.923 115.197 102.695C115.103 102.468 115.054 102.223 115.054 101.977C115.054 101.73 115.103 101.486 115.197 101.258C115.292 101.03 115.43 100.823 115.605 100.649L126.788 89.4742C127.145 89.1548 127.611 88.9844 128.09 88.9978C128.568 89.0112 129.024 89.2075 129.363 89.5462C129.702 89.885 129.898 90.3407 129.911 90.8196C129.925 91.2986 129.754 91.7645 129.435 92.1217L118.253 103.304C117.901 103.655 117.425 103.851 116.929 103.851C116.432 103.851 115.956 103.655 115.605 103.304Z" fill="white"/>
<path d="M126.967 103.484L115.785 92.3018C115.606 92.1286 115.464 91.9215 115.366 91.6926C115.268 91.4637 115.216 91.2176 115.215 90.9687C115.213 90.7197 115.261 90.4729 115.355 90.2426C115.45 90.0123 115.589 89.8032 115.766 89.6274C115.942 89.4516 116.151 89.3127 116.382 89.2187C116.613 89.1248 116.86 89.0777 117.108 89.0802C117.357 89.0827 117.603 89.1347 117.832 89.2333C118.061 89.3319 118.267 89.475 118.44 89.6543L129.615 100.829C129.794 101.002 129.937 101.209 130.036 101.437C130.135 101.666 130.187 101.912 130.189 102.161C130.192 102.41 130.145 102.657 130.051 102.887C129.957 103.118 129.818 103.327 129.642 103.504C129.466 103.68 129.257 103.82 129.027 103.914C128.796 104.009 128.55 104.057 128.301 104.055C128.052 104.053 127.806 104.002 127.577 103.904C127.348 103.806 127.141 103.663 126.967 103.484Z" fill="white"/>
<path d="M177.615 103.304C177.44 103.13 177.302 102.923 177.207 102.695C177.113 102.467 177.064 102.223 177.064 101.977C177.064 101.73 177.113 101.486 177.207 101.258C177.302 101.03 177.44 100.823 177.615 100.649L188.797 89.474C188.967 89.2839 189.174 89.1304 189.406 89.023C189.637 88.9156 189.888 88.8565 190.143 88.8494C190.398 88.8422 190.652 88.8872 190.889 88.9815C191.126 89.0758 191.341 89.2175 191.521 89.3978C191.702 89.5782 191.843 89.7934 191.938 90.0304C192.032 90.2674 192.077 90.5211 192.07 90.7761C192.063 91.031 192.003 91.2819 191.896 91.5132C191.789 91.7445 191.635 91.9515 191.445 92.1215L180.27 103.304C179.916 103.653 179.439 103.849 178.942 103.849C178.446 103.849 177.969 103.653 177.615 103.304Z" fill="white"/>
<path d="M189 103.484L177.817 92.3018C177.639 92.1286 177.496 91.9215 177.398 91.6926C177.3 91.4637 177.249 91.2176 177.247 90.9687C177.245 90.7197 177.293 90.4729 177.388 90.2426C177.482 90.0123 177.622 89.8032 177.798 89.6274C177.974 89.4516 178.184 89.3127 178.414 89.2187C178.645 89.1248 178.892 89.0777 179.141 89.0802C179.39 89.0827 179.636 89.1347 179.864 89.2333C180.093 89.3319 180.3 89.475 180.472 89.6543L191.647 100.829C191.827 101.002 191.97 101.209 192.069 101.437C192.167 101.666 192.219 101.912 192.222 102.161C192.224 102.41 192.177 102.657 192.083 102.887C191.989 103.118 191.85 103.327 191.674 103.504C191.499 103.68 191.29 103.82 191.059 103.914C190.829 104.009 190.582 104.057 190.333 104.055C190.084 104.053 189.838 104.002 189.609 103.904C189.38 103.806 189.173 103.663 189 103.484Z" fill="white"/>
<path d="M138.705 135.321C138.235 135.321 137.782 135.143 137.437 134.823C137.092 134.503 136.881 134.065 136.845 133.596C136.32 127.214 138.743 114.651 151.635 112.821C155.663 112.259 159.03 113.181 161.64 115.581C167.768 121.214 167.16 133.056 167.138 133.581C167.124 133.828 167.062 134.069 166.955 134.291C166.848 134.513 166.698 134.712 166.514 134.877C166.33 135.041 166.116 135.167 165.883 135.249C165.65 135.33 165.404 135.365 165.158 135.351C164.911 135.338 164.67 135.276 164.448 135.169C164.226 135.062 164.027 134.912 163.862 134.728C163.698 134.544 163.572 134.33 163.49 134.097C163.409 133.864 163.374 133.618 163.388 133.371C163.388 133.266 163.92 122.796 159.098 118.371C157.328 116.751 155.063 116.166 152.16 116.571C139.5 118.304 140.528 132.681 140.58 133.304C140.619 133.799 140.461 134.29 140.139 134.668C139.817 135.046 139.358 135.281 138.863 135.321H138.705Z" fill="white"/>
<path d="M85.0575 96.397C85.0575 96.397 101.558 99.7345 100.2 115.147C98.8425 130.559 113.842 138.982 104.647 147.877C95.4525 156.772 83.1975 151.769 83.1975 151.769L85.0575 96.397Z" fill="#AD4C4C"/>
<path opacity="0.39" d="M85.0575 96.397C85.0575 96.397 101.558 99.7345 100.2 115.147C98.8425 130.559 113.842 138.982 104.647 147.877C95.4525 156.772 83.1975 151.769 83.1975 151.769L85.0575 96.397Z" fill="white"/>
<path d="M71.4 81.1419C72.0975 82.9384 72.5515 84.8201 72.75 86.7369C72.758 86.9661 72.7206 87.1945 72.6401 87.4092C72.5595 87.6238 72.4373 87.8205 72.2805 87.9877C72.1236 88.155 71.9353 88.2896 71.7263 88.3839C71.5173 88.4781 71.2917 88.5301 71.0625 88.5369C70.3266 88.6085 69.5856 88.4653 68.9294 88.1245C68.2732 87.7837 67.7298 87.2601 67.365 86.6169L65.5125 84.0144C65.197 83.4526 65.0637 82.8068 65.1309 82.166C65.198 81.5252 65.4624 80.9211 65.8875 80.4369C67.3725 78.5544 70.725 79.1394 71.4 81.1419Z" fill="#F4A28C"/>
<path d="M66.3675 84.6665L66.51 96.014L72.7575 95.489L70.14 87.4415L66.3675 84.6665Z" fill="#F4A28C"/>
<path d="M65.865 86.7143C65.8838 86.7843 65.9262 86.8455 65.9849 86.8879C66.0437 86.9302 66.1152 86.9511 66.1875 86.9468C66.6899 86.9396 67.1763 86.7687 67.5729 86.4601C67.9694 86.1516 68.2545 85.7221 68.385 85.2368C68.5404 84.7033 68.5382 84.1361 68.3785 83.6038C68.2188 83.0715 67.9085 82.5967 67.485 82.2368C68.5527 82.1343 69.6048 81.9078 70.62 81.5618C70.9628 81.4474 71.2845 81.2776 71.5725 81.0593L71.685 78.3143C71.685 78.3143 72.315 75.4193 70.6875 75.3143C69.06 75.2093 68.8575 77.0843 67.32 76.2143C65.7825 75.3443 65.37 74.9768 64.32 75.9968C63.27 77.0168 64.9575 77.5793 62.94 78.1568C60.9225 78.7343 61.11 79.5743 61.3575 80.4968C61.4867 80.8048 61.7064 81.0664 61.9875 81.2468C63.8356 82.6037 65.1956 84.5215 65.865 86.7143Z" fill="#24285B"/>
<path d="M68.715 85.0344C68.715 85.0344 68.31 83.7594 67.38 84.1419C66.45 84.5244 67.02 86.3919 68.3775 86.1519L68.715 85.0344Z" fill="#F4A28C"/>
<path d="M72.0975 83.2192L73.395 84.2242C73.4684 84.2812 73.5264 84.3557 73.5635 84.4409C73.6006 84.5261 73.6158 84.6192 73.6076 84.7118C73.5994 84.8043 73.5681 84.8933 73.5165 84.9706C73.4649 85.048 73.3948 85.1111 73.3125 85.1542L72.1125 85.7692L72.0975 83.2192Z" fill="#F4A28C"/>
<path opacity="0.31" d="M70.5 88.5214C69.6052 88.4678 68.7384 88.1892 67.98 87.7114C67.98 87.7114 68.37 89.9614 71.2875 90.8839L70.5 88.5214Z" fill="#CE8172"/>
<path d="M78.3075 94.9191C68.0029 95.1023 57.831 97.2773 48.3525 101.324C46.8993 101.939 45.5876 102.844 44.4982 103.986C43.4089 105.127 42.5651 106.48 42.019 107.96C41.4728 109.44 41.236 111.017 41.323 112.592C41.4101 114.167 41.8191 115.708 42.525 117.119L58.8225 149.632L89.0325 147.839C89.0325 147.839 94.5375 129.569 93.435 108.907C93.2127 105.071 91.5124 101.471 88.6916 98.8627C85.8707 96.2544 82.1487 94.8409 78.3075 94.9191Z" fill="#AD4C4C"/>
<path d="M58.8225 149.632L49.8225 199.342H54.3225L65.64 172.342C69.6479 162.783 76.7148 154.824 85.7325 149.714L89.0475 147.832L58.8225 149.632Z" fill="#24285B"/>
<path opacity="0.08" d="M56.325 105.644C58.4656 107.389 60.1197 109.657 61.1274 112.228C62.1352 114.799 62.4624 117.587 62.0775 120.322C60.6975 129.734 59.25 137.054 67.95 134.857C76.65 132.659 81.3225 112.484 81.3225 112.484L91.4475 112.732L89.7 135.232L83.8275 135.637C82.4381 135.731 81.1185 136.28 80.0721 137.199C79.0258 138.118 78.3108 139.356 78.0375 140.722L76.455 148.574L58.8225 149.617L56.325 145.867L45.3225 133.987L43.95 114.982L56.325 105.644Z" fill="black"/>
<path d="M68.3207 131.671L87.9407 133.044L89.8218 106.171L70.2018 104.798L68.3207 131.671Z" fill="#FFD200"/>
<path d="M89.0325 147.839L84.375 199.342H78.375C78.375 199.342 79.7775 160.589 68.9475 152.339L89.0325 147.839Z" fill="#24285B"/>
<path d="M57 108.554C56.9583 107.038 56.4489 105.571 55.5415 104.356C54.6341 103.14 53.3732 102.234 51.9313 101.763C50.4894 101.292 48.937 101.278 47.4868 101.723C46.0365 102.168 44.7593 103.05 43.83 104.249C40.365 108.674 37.17 116.054 37.4325 128.174C37.995 154.049 53.1825 160.987 76.62 132.674L72 129.112C72 129.112 62.775 136.942 54.3225 137.054C48 137.144 57.4275 120.899 57 108.554Z" fill="#AD4C4C"/>
<path opacity="0.39" d="M57 108.554C56.9583 107.038 56.4489 105.571 55.5415 104.356C54.6341 103.14 53.3732 102.234 51.9313 101.763C50.4894 101.292 48.937 101.278 47.4868 101.723C46.0365 102.168 44.7593 103.05 43.83 104.249C40.365 108.674 37.17 116.054 37.4325 128.174C37.995 154.049 53.1825 160.987 76.62 132.674L72 129.112C72 129.112 62.775 136.942 54.3225 137.054C48 137.144 57.4275 120.899 57 108.554Z" fill="white"/>
<path opacity="0.08" d="M88.86 118.867C88.86 118.867 82.11 131.264 68.61 127.762L68.3175 132.104L87.8925 133.432L88.86 118.867Z" fill="black"/>
<path d="M72.855 129.764C72.855 129.764 75.615 124.889 78.99 126.179C82.365 127.469 76.62 132.674 76.62 132.674L72.855 129.764Z" fill="#F4A28C"/>
<path opacity="0.58" d="M103.26 196.687C103.26 196.687 96.87 194.939 95.4825 188.999C95.4825 188.999 105.375 186.997 105.66 197.212L103.26 196.687Z" fill="#AD4C4C"/>
<path opacity="0.73" d="M104.04 196.049C104.04 196.049 99.5775 188.999 103.507 182.399C103.507 182.399 111.007 187.184 107.685 196.064L104.04 196.049Z" fill="#AD4C4C"/>
<path d="M105.187 196.057C105.187 196.057 107.55 188.609 114.675 187.199C114.675 187.199 116.01 192.037 110.062 196.079L105.187 196.057Z" fill="#AD4C4C"/>
<path d="M100.56 195.892L101.85 204.749L110.01 204.779L111.21 195.937L100.56 195.892Z" fill="#24285B"/>
<path opacity="0.08" d="M239.94 78.5767H205.793V90.3442H239.94V78.5767Z" fill="black"/>
<path d="M241.898 144.187H237.045V193.027H241.898V144.187Z" fill="#E6E6E6"/>
<path d="M239.933 118.469L220.395 148.402H239.933H259.478L239.933 118.469Z" fill="#FFD200"/>
<path d="M246.81 188.842H232.643V204.787H246.81V188.842Z" fill="#24285B"/>
<path d="M241.163 129.599H238.387V138.599H241.163V129.599Z" fill="#24285B"/>
<path d="M241.163 140.354H238.387V143.129H241.163V140.354Z" fill="#24285B"/>
</svg>
