<svg width="300" height="227" viewBox="0 0 300 227" fill="none" xmlns="http://www.w3.org/2000/svg">
<path d="M155.25 85.229C155.25 85.229 178.373 116.332 198.87 113.332C219.368 110.332 233.122 78.0815 233.122 78.0815L224.872 72.8315C224.872 72.8315 195.495 116.564 169.62 67.5815L155.25 85.229Z" fill="#AD4C4C"/>
<path opacity="0.08" d="M155.25 85.229C155.25 85.229 178.373 116.332 198.87 113.332C219.368 110.332 233.122 78.0815 233.122 78.0815L224.872 72.8315C224.872 72.8315 195.495 116.564 169.62 67.5815L155.25 85.229Z" fill="black"/>
<path d="M173.347 71.2866C173.347 71.2866 179.82 75.1491 181.522 81.7116C183.225 88.2741 182.865 104.902 169.455 113.212C156.045 121.522 141.6 125.212 143.85 134.962L136.162 131.212L145.725 110.587L167.55 98.2416L173.347 71.2866Z" fill="#AD4C4C"/>
<path opacity="0.45" d="M150.165 193.521C218.03 193.521 273.045 186.564 273.045 177.981C273.045 169.399 218.03 162.441 150.165 162.441C82.3003 162.441 27.285 169.399 27.285 177.981C27.285 186.564 82.3003 193.521 150.165 193.521Z" fill="#E6E6E6"/>
<path d="M163.088 170.444C163.088 170.444 165.75 172.694 168.443 171.434C171.135 170.174 173.258 172.297 171.323 174.277C169.388 176.257 161.723 176.729 161.723 176.729L159.555 172.537L163.088 170.444Z" fill="#AD4C4C"/>
<path d="M76.1475 153.209C76.1475 153.209 72.6675 153.089 71.3325 155.744C69.9975 158.399 67.02 158.047 67.305 155.294C67.59 152.542 73.305 147.434 73.305 147.434L77.6025 149.377L76.1475 153.209Z" fill="#AD4C4C"/>
<path d="M182.085 55.9268C182.085 55.9268 182.835 61.0343 182.13 64.4843C182.069 64.8223 181.941 65.1448 181.754 65.4328C181.566 65.7207 181.323 65.9684 181.039 66.1612C180.755 66.354 180.435 66.4881 180.098 66.5556C179.761 66.6231 179.414 66.6226 179.078 66.5543C177.345 66.1943 175.103 65.1893 174.383 62.5043L172.598 58.0943C172.333 57.1744 172.362 56.195 172.679 55.292C172.996 54.3889 173.586 53.6069 174.368 53.0543C177.15 50.8043 181.8 52.7993 182.085 55.9268Z" fill="#F4A28C"/>
<path d="M176.145 57.9443L162.765 68.2418L168.968 75.2093L176.033 65.1743L176.145 57.9443Z" fill="#F4A28C"/>
<path d="M180.817 56.2115C179.231 56.3613 177.633 56.3261 176.055 56.1065C176.553 56.7808 176.843 57.5863 176.888 58.4233C176.933 59.2604 176.732 60.0924 176.31 60.8165C175.915 61.525 175.286 62.074 174.531 62.3696C173.775 62.6652 172.941 62.6888 172.17 62.4365L171.892 55.8215C171.821 54.8771 172.006 53.9309 172.429 53.0832C172.851 52.2356 173.495 51.518 174.292 51.0065C174.985 50.5636 175.704 50.1629 176.445 49.8065C178.305 48.944 181.162 50.0615 182.797 48.6815C182.963 48.5454 183.16 48.4541 183.371 48.4167C183.582 48.3792 183.799 48.3967 184.001 48.4676C184.203 48.5385 184.384 48.6603 184.525 48.8213C184.666 48.9823 184.763 49.1769 184.807 49.3865C185.212 51.3815 185.025 54.5615 182.37 55.814C181.878 56.0319 181.353 56.1663 180.817 56.2115Z" fill="#24285B"/>
<path d="M176.858 60.6293C176.858 60.6293 176.708 58.6493 175.23 58.8893C173.753 59.1293 173.948 61.9793 175.98 62.1368L176.858 60.6293Z" fill="#F4A28C"/>
<path d="M182.377 59.1665L183.915 61.0715C184.002 61.1794 184.061 61.3075 184.086 61.4441C184.11 61.5807 184.1 61.7214 184.056 61.853C184.012 61.9846 183.935 62.1029 183.833 62.1971C183.731 62.2912 183.607 62.3581 183.472 62.3915L181.522 62.864L182.377 59.1665Z" fill="#F4A28C"/>
<path opacity="0.31" d="M175.83 65.4592C175.228 64.4848 174.904 63.3645 174.892 62.2192C174.892 62.2192 171.765 64.1992 173.805 68.3317L175.83 65.4592Z" fill="#CE8172"/>
<path d="M170.94 72.404C170.94 72.404 167.415 65.3465 153.165 65.279C138.915 65.2115 104.018 83.8565 106.418 124.461L136.163 131.211C136.163 131.211 141.66 117.554 159.202 111.711C177.21 105.696 179.797 78.3515 170.94 72.404Z" fill="white"/>
<path d="M164.933 66.5543C164.933 66.5543 131.933 47.1893 106.298 50.1893C80.6626 53.1893 66.8926 82.8143 66.8926 82.8143L74.2876 88.0643C74.2876 88.0643 99.7876 58.4918 115.913 68.9693C132.038 79.4468 159.945 100.942 164.933 66.5543Z" fill="#AD4C4C"/>
<path d="M127.725 72.7116C127.725 72.7116 99.225 87.3366 100.35 123.149L118.35 129.337C118.35 129.337 120.787 92.7741 154.725 89.2116C154.725 89.2116 167.28 82.3116 168.45 70.9566C168.45 70.9566 170.152 66.7416 157.372 62.6016L127.725 72.7116Z" fill="#AD4C4C"/>
<path d="M171.397 69.3142L170.7 73.5817H173.115L173.347 68.9917L171.397 69.3142Z" fill="white"/>
<path opacity="0.08" d="M167.768 81.5542C167.768 81.5542 161.19 105.622 142.62 107.879C124.05 110.137 102.39 105.442 102.39 105.442C103.627 100.776 105.535 96.3147 108.053 92.1967C112.29 85.2217 132.12 91.9417 132.12 91.9417L167.768 81.5542Z" fill="black"/>
<path d="M168.57 69.2689C168.57 69.2689 166.762 73.9939 168.57 74.7364C169.485 75.1189 170.617 74.5414 171.51 73.8814C171.959 73.5426 172.279 73.06 172.415 72.514C172.552 71.9681 172.497 71.3919 172.26 70.8814L171.51 69.2314L168.57 69.2689Z" fill="#FFD200"/>
<path d="M170.7 72.404C170.7 72.404 171.975 86.2115 152.287 97.0865C132.6 107.962 111.135 97.0865 111.135 97.0865L104.662 86.849L118.35 83.9615C118.35 83.9615 149.917 97.304 168.165 71.519L170.7 72.404Z" fill="#FFD200"/>
<path d="M102.825 123.997C102.825 123.997 98.1675 134.707 108.165 140.212C114.06 143.452 124.462 145.154 132.015 146.002C134.924 146.331 137.722 147.311 140.2 148.869C142.679 150.427 144.775 152.523 146.332 155.002L158.1 173.617L164.932 169.304L158.385 152.542C156.637 148.055 154.013 143.962 150.665 140.501C147.316 137.041 143.312 134.283 138.885 132.389L136.192 131.242L102.825 123.997Z" fill="#24285B"/>
<path d="M125.43 139.304C125.43 139.304 125.933 157.559 110.183 160.304C94.4326 163.049 74.6851 153.809 74.6851 153.809L78.1801 147.554C78.1801 147.554 110.685 157.559 108.435 137.309L125.43 139.304Z" fill="#24285B"/>
<path d="M164.932 65.9091L167.55 64.5591L171.397 69.3141L168.45 73.0641L164.932 65.9091Z" fill="white"/>
<path opacity="0.26" d="M66.8925 82.8369L65.5575 85.8294L72.555 91.0794L74.2875 88.0869L66.8925 82.8369Z" fill="#AD4C4C"/>
<path d="M66.2925 86.3765C66.2925 86.3765 59.1825 93.9815 64.155 95.9689C69.1275 97.9564 71.1225 97.8889 72.555 91.079L66.2925 86.3765Z" fill="#F4A28C"/>
<path opacity="0.4" d="M226.17 73.6792L227.37 71.1592L233.873 75.7792L233.123 78.0817L226.17 73.6792Z" fill="#AD4C4C"/>
<path d="M228.517 71.9768C228.517 71.9768 234.247 64.8443 238.747 66.9668C243.247 69.0893 242.122 72.6593 233.872 75.7793L228.517 71.9768Z" fill="#F4A28C"/>
</svg>
