<svg width="50" height="50" viewBox="0 0 50 50" fill="none" xmlns="http://www.w3.org/2000/svg">
<g clip-path="url(#clip0)">
<path d="M25.5181 45.7001C25.5181 44.2341 25.9223 40.2598 26.311 36.7771C26.24 36.7971 26.1699 36.8165 26.1015 36.8344C24.8514 37.163 23.5353 37.163 22.2853 36.8344C22.2169 36.8165 22.1467 36.7971 22.0757 36.7771C22.4644 40.261 22.8687 44.2371 22.8687 45.7039V45.7105C22.8687 46.2529 22.5545 46.7463 22.063 46.9756L16.7149 49.471C16.4457 49.5966 16.5353 50 16.8323 50H31.5631C31.8597 50 31.9498 49.5975 31.6815 49.4714C30.2011 48.7759 27.6337 47.5713 26.3275 46.9667C25.8337 46.7384 25.5181 46.2439 25.5181 45.7001Z" fill="#D6E5E2"/>
<path d="M31.7668 17.0576C31.6414 12.8558 32.7921 9.31562 33.3667 7.82627C33.507 7.4626 33.2392 7.07178 32.8494 7.07178H15.5374C15.1475 7.07178 14.8798 7.4626 15.0201 7.82627C15.5947 9.31553 16.7454 12.8558 16.62 17.0576C16.4536 22.633 12.1358 29.3734 15.6678 33.8671C17.8172 36.6019 20.5081 37.7339 22.2852 38.2012C23.5353 38.5298 24.8515 38.5298 26.1016 38.2012C27.8788 37.7339 30.5696 36.6019 32.719 33.8671C36.2509 29.3735 31.9332 22.6331 31.7668 17.0576Z" fill="#E5F9F6"/>
<path d="M31.7668 17.0576C31.6414 12.8558 32.7921 9.31562 33.3667 7.82627C33.507 7.4626 33.2392 7.07178 32.8494 7.07178H28.1202C28.1202 7.07178 26.0399 11.4822 26.2063 17.0576C26.3727 22.633 30.6904 29.3734 27.1585 33.8671C25.3366 36.185 23.1265 37.3509 21.4127 37.9372C21.7213 38.0428 22.0141 38.1299 22.2853 38.2012C23.5354 38.5299 24.8515 38.5299 26.1016 38.2012C27.8787 37.7339 30.5696 36.6019 32.7191 33.8671C36.2509 29.3735 31.9332 22.6331 31.7668 17.0576Z" fill="#D7E0DC"/>
<path d="M15.9237 10.7358C16.3428 12.4495 16.692 14.6438 16.6199 17.0576C16.4535 22.633 12.1358 29.3734 15.6677 33.8671C17.8171 36.6019 20.508 37.7339 22.2852 38.2012C23.5353 38.5298 24.8514 38.5298 26.1015 38.2012C27.8787 37.7339 30.5696 36.6019 32.719 33.8671C36.2509 29.3734 31.9331 22.633 31.7667 17.0576C31.6947 14.6439 32.0439 12.4495 32.4629 10.7358H15.9237Z" fill="#FED130"/>
<path d="M18.2325 2.48931C15.7869 0.769196 11.5063 0.825739 10.0951 0.897126C9.82873 0.910602 9.61877 1.1275 9.61389 1.3942C9.5883 2.80679 9.67053 7.08717 11.469 9.47564C15.5008 14.8302 19.9663 10.9349 19.9663 10.9349C19.9663 10.9349 23.715 6.34547 18.2325 2.48931Z" fill="#77D057"/>
<path d="M19.3662 6.43914C19.4599 6.0365 19.2094 5.63406 18.8067 5.5405C18.4038 5.44675 18.0016 5.69734 17.908 6.10017L17.5664 7.56951L16.4574 6.49587L16.8724 4.71121C16.966 4.30847 16.7156 3.90613 16.3128 3.81248C15.9103 3.71863 15.5077 3.96931 15.4142 4.37205L15.2028 5.28123L14.2111 4.32117L14.4344 3.36072C14.5281 2.95798 14.2776 2.55564 13.8748 2.46199C13.4721 2.36824 13.0697 2.61882 12.9762 3.02156L12.9565 3.10652L10.6532 0.876831C10.4378 0.882007 10.2487 0.889429 10.0952 0.897144C9.82884 0.91062 9.61888 1.12751 9.61399 1.39421C9.61116 1.54783 9.60989 1.73718 9.61175 1.95251L11.9151 4.1823L11.8306 4.20486C11.4312 4.3114 11.1938 4.72175 11.3004 5.12117C11.3898 5.45603 11.6923 5.67693 12.0232 5.67693C12.0871 5.67693 12.1521 5.66873 12.2167 5.65134L13.1698 5.39695L14.1614 6.35691L13.2595 6.59763C12.8601 6.70427 12.6227 7.11453 12.7293 7.51394C12.8187 7.84871 13.1212 8.06961 13.4521 8.06961C13.516 8.06961 13.581 8.0613 13.6456 8.04402L15.4159 7.57146L16.5077 8.62839L15.095 9.00554C14.6955 9.11218 14.4581 9.52244 14.5648 9.92185C14.6541 10.2567 14.9567 10.4776 15.2875 10.4776C15.3515 10.4776 15.4164 10.4693 15.4811 10.452L17.7623 9.84304L19.3453 11.3756C19.7405 11.1314 19.9663 10.9347 19.9663 10.9347C19.9663 10.9347 20.1556 10.7026 20.3867 10.2998L18.8209 8.78386L19.3662 6.43914Z" fill="#68B543"/>
<path d="M20.6675 6.79225C20.6639 6.79225 20.6602 6.79225 20.6566 6.79216C20.2432 6.7864 19.9129 6.44645 19.9187 6.03307C19.9472 4.02116 20.482 2.60163 21.5084 1.81413C22.6912 0.90661 24.0515 1.23669 24.1088 1.25114C24.5096 1.35251 24.7524 1.75964 24.6511 2.16042C24.5502 2.55905 24.1472 2.80143 23.7485 2.70436C23.7059 2.6947 23.0003 2.54587 22.4057 3.01286C21.7793 3.50505 21.4369 4.55671 21.4157 6.05427C21.41 6.46393 21.076 6.79225 20.6675 6.79225Z" fill="#772424"/>
<path d="M20.1993 10.7348C22.0597 10.7348 23.5679 9.22664 23.5679 7.36624C23.5679 5.50583 22.0597 3.99768 20.1993 3.99768C18.3389 3.99768 16.8308 5.50583 16.8308 7.36624C16.8308 9.22664 18.3389 10.7348 20.1993 10.7348Z" fill="#FC502A"/>
<path d="M35.6349 0.365027C35.277 0.1578 34.8192 0.279675 34.6118 0.63739L28.7599 10.7358H30.4903L35.9072 1.38807C36.1145 1.03046 35.9926 0.572351 35.6349 0.365027Z" fill="#65DBEF"/>
<path d="M35.4537 0.000883242L26.571 0.500981C26.3694 0.512309 26.2875 0.76475 26.4428 0.893559C30.4717 4.23409 35.1092 6.76358 40.099 8.34229C40.2915 8.40323 40.4593 8.19766 40.3597 8.02207L35.9711 0.28311C35.8664 0.0983442 35.6658 -0.0110308 35.4537 0.000883242Z" fill="#FF644A"/>
<path d="M40.3599 8.02209L35.9712 0.283123C35.8664 0.0983573 35.6658 -0.0111153 35.4537 0.000896402L33.6465 0.102654C32.0993 0.189764 31.182 1.8716 31.9464 3.21945L33.2016 5.43283C35.4017 6.60978 37.7094 7.58635 40.0993 8.3424C40.2917 8.40324 40.4594 8.19767 40.3599 8.02209Z" fill="#E52D15"/>
<path d="M34.0136 28.0438C33.9719 27.6877 33.9171 27.3277 33.8521 26.9648C33.8034 26.6927 33.749 26.4188 33.69 26.1437C33.5722 25.5934 33.4365 25.0379 33.2927 24.4799C33.2448 24.2939 33.1961 24.1077 33.1468 23.9213C33.0481 23.5484 32.9473 23.175 32.8474 22.8018C32.7974 22.6151 32.7477 22.4285 32.6985 22.2421C32.6493 22.0557 32.6008 21.8693 32.5531 21.6833C32.5054 21.4973 32.4588 21.3114 32.4134 21.126C32.0728 19.7352 31.8057 18.3645 31.7668 17.0577C31.7626 16.9156 31.76 16.7744 31.7586 16.6339C31.7581 16.5883 31.7584 16.5432 31.7583 16.4977C31.758 16.4028 31.7578 16.3082 31.7587 16.2142C31.7592 16.1611 31.7602 16.1085 31.7611 16.0558C31.7626 15.9693 31.7643 15.8831 31.7668 15.7974C31.7683 15.7435 31.7701 15.6898 31.772 15.6362C31.7751 15.5512 31.7786 15.4665 31.7826 15.3822C31.785 15.3307 31.7875 15.2791 31.7902 15.2278C31.795 15.1393 31.8004 15.0514 31.8061 14.9637C31.8091 14.9184 31.8118 14.8729 31.815 14.8277C31.8224 14.724 31.8306 14.6213 31.8393 14.5189C31.8417 14.4912 31.8437 14.4631 31.8462 14.4354C31.858 14.3017 31.8708 14.169 31.8846 14.0376C31.8846 14.0374 31.8847 14.0371 31.8847 14.0369C31.8983 13.9081 31.9131 13.7808 31.9284 13.6543C31.9319 13.6254 31.9357 13.5969 31.9393 13.5681C31.9517 13.4696 31.9644 13.3718 31.9778 13.2748C31.9824 13.2418 31.9871 13.2091 31.9918 13.1762C32.0051 13.0828 32.0186 12.9901 32.0328 12.8983C32.0376 12.8673 32.0424 12.8363 32.0472 12.8055C32.0624 12.7095 32.0779 12.6146 32.0939 12.5203C32.098 12.4961 32.102 12.4718 32.1062 12.4478C32.1249 12.3396 32.144 12.2327 32.1636 12.1271C32.1653 12.1183 32.1669 12.1094 32.1685 12.1006C32.2588 11.6185 32.3586 11.1626 32.4629 10.736C32.4629 10.736 32.4629 10.7359 32.4629 10.7358H26.902C26.4831 12.4494 26.1341 14.6441 26.2061 17.0576C26.3725 22.633 30.6903 29.3734 27.1584 33.8671C25.3365 36.185 23.1264 37.3509 21.4126 37.9372C21.413 37.9373 21.4133 37.9374 21.4137 37.9376C21.4852 37.9621 21.5558 37.9854 21.6257 38.0079C21.6403 38.0126 21.6548 38.0172 21.6692 38.0218C21.7246 38.0395 21.7795 38.0564 21.8336 38.073C21.8521 38.0785 21.8706 38.0842 21.889 38.0896C21.9399 38.1049 21.9902 38.1194 22.0399 38.1337C22.0576 38.1388 22.0755 38.1439 22.093 38.1488C22.158 38.1671 22.2222 38.1846 22.2849 38.2011C22.4412 38.2422 22.5985 38.2781 22.7565 38.3089C22.9146 38.3396 23.0734 38.3653 23.2328 38.3859C24.1889 38.5092 25.1637 38.4476 26.1012 38.2011C26.2123 38.1719 26.3268 38.14 26.4447 38.1055C26.5773 38.0665 26.7145 38.0235 26.8548 37.9771C27.6259 37.7217 28.5044 37.3479 29.4068 36.8022C29.4624 36.7687 29.518 36.7344 29.5737 36.6994C29.6627 36.6437 29.7517 36.5862 29.8409 36.5271C29.9208 36.474 30.0008 36.4197 30.0808 36.3639C30.3239 36.1942 30.5671 36.0121 30.8089 35.8149C31.4667 35.2785 32.114 34.6361 32.7185 33.867C32.9944 33.5159 33.2224 33.1512 33.4083 32.7743C33.4826 32.6235 33.5502 32.4709 33.6114 32.3164C33.642 32.2392 33.671 32.1614 33.6984 32.0833C33.8357 31.6925 33.9342 31.2906 33.9997 30.8793C34.0389 30.6325 34.0664 30.3822 34.0831 30.1289C34.0942 29.9601 34.1007 29.7898 34.1027 29.6184C34.1094 29.1039 34.0762 28.5781 34.0136 28.0438Z" fill="#EDBA18"/>
</g>
<defs>
<clipPath id="clip0">
<rect width="50" height="50" fill="white"/>
</clipPath>
</defs>
</svg>
