<svg xmlns="http://www.w3.org/2000/svg" width="22.238" height="22.237" viewBox="0 0 22.238 22.237">
  <path id="Icon_awesome-phone-alt" data-name="Icon awesome-phone-alt" d="M21.6,15.714l-4.865-2.085a1.042,1.042,0,0,0-1.216.3l-2.154,2.632a16.1,16.1,0,0,1-7.7-7.7L8.3,6.711a1.04,1.04,0,0,0,.3-1.216L6.519.63a1.049,1.049,0,0,0-1.194-.6L.808,1.069A1.042,1.042,0,0,0,0,2.085,20.151,20.151,0,0,0,20.153,22.238a1.042,1.042,0,0,0,1.016-.808l1.042-4.517a1.055,1.055,0,0,0-.609-1.2Z" transform="translate(0 0)"/>
</svg>
