<svg xmlns="http://www.w3.org/2000/svg" width="48" height="48" data-name="Layer 1" viewBox="0 0 48 48"><path d="M34.61 21.33a2.06 2.06 0 0 0-.76-.31 4.45 4.45 0 0 0-.93-.09h-.21c0 .09-.06.33-.13.72s-.18 1-.31 1.72c0 .24-.09.56-.16 1S32 25 32 25.16a5.87 5.87 0 0 0 1-.09 3.73 3.73 0 0 0 .85-.26 2.92 2.92 0 0 0 .94-.73 2.52 2.52 0 0 0 .47-1.14 1.75 1.75 0 0 0-.07-1A1.35 1.35 0 0 0 34.61 21.33zM16.86 21.33A2.22 2.22 0 0 0 16.1 21a4.59 4.59 0 0 0-.93-.09H15c0 .09-.06.33-.13.72s-.17 1-.3 1.72c0 .24-.1.56-.17 1s-.11.68-.14.83a5.69 5.69 0 0 0 1-.09 3.73 3.73 0 0 0 .85-.26 2.92 2.92 0 0 0 .94-.73 2.42 2.42 0 0 0 .48-1.14 1.75 1.75 0 0 0-.08-1A1.39 1.39 0 0 0 16.86 21.33z"/><path d="M16.86 21.33A2.22 2.22 0 0 0 16.1 21a4.59 4.59 0 0 0-.93-.09H15c0 .09-.06.33-.13.72s-.17 1-.3 1.72c0 .24-.1.56-.17 1s-.11.68-.14.83a5.69 5.69 0 0 0 1-.09 3.73 3.73 0 0 0 .85-.26 2.92 2.92 0 0 0 .94-.73 2.42 2.42 0 0 0 .48-1.14 1.75 1.75 0 0 0-.08-1A1.39 1.39 0 0 0 16.86 21.33zM34.61 21.33a2.06 2.06 0 0 0-.76-.31 4.45 4.45 0 0 0-.93-.09h-.21c0 .09-.06.33-.13.72s-.18 1-.31 1.72c0 .24-.09.56-.16 1S32 25 32 25.16a5.87 5.87 0 0 0 1-.09 3.73 3.73 0 0 0 .85-.26 2.92 2.92 0 0 0 .94-.73 2.52 2.52 0 0 0 .47-1.14 1.75 1.75 0 0 0-.07-1A1.35 1.35 0 0 0 34.61 21.33z"/><path d="M24,4.75A18.36,18.36,0,1,0,42.36,23.1,18.36,18.36,0,0,0,24,4.75ZM19.69,22.81a3.85,3.85,0,0,1-.82,1.87A5,5,0,0,1,17.3,25.9a6.34,6.34,0,0,1-1.61.53,8.23,8.23,0,0,1-1.64.17l-.55,3.29H11.31c0-.23.15-.9.35-2s.42-2.34.65-3.68c.11-.65.24-1.4.38-2.26s.3-1.75.45-2.65h1.18a15.56,15.56,0,0,1,2.28.13,5.34,5.34,0,0,1,1.66.51,2.68,2.68,0,0,1,1.23,1.19A2.76,2.76,0,0,1,19.69,22.81Zm8.82-1.41c-.1.58-.19,1.06-.26,1.44l-.18,1c-.07.44-.16,1-.25,1.55s-.17,1-.21,1.27H25.42c0-.2.11-.65.25-1.38s.22-1.21.26-1.47.09-.51.14-.82.09-.58.13-.8a1.49,1.49,0,0,0-.07-1,.73.73,0,0,0-.69-.29,2.64,2.64,0,0,0-.85.18,7.36,7.36,0,0,0-1,.44l-.86,5.11h-2.2c.06-.34.18-1,.37-2.07s.39-2.18.6-3.42c.11-.65.24-1.4.38-2.24s.3-1.77.47-2.76h2.19L23.84,20h0a10.2,10.2,0,0,1,1.53-.62,4.94,4.94,0,0,1,1.37-.24,1.73,1.73,0,0,1,1.46.61A2,2,0,0,1,28.51,21.4Zm8.11,3.28a4.84,4.84,0,0,1-1.56,1.22,6.42,6.42,0,0,1-1.62.53,8.07,8.07,0,0,1-1.63.17l-.55,3.29h-2.2l.36-2c.2-1.11.42-2.34.65-3.68.11-.65.24-1.4.38-2.26s.29-1.75.44-2.65h1.19a15.75,15.75,0,0,1,2.28.13,5.42,5.42,0,0,1,1.66.51,2.61,2.61,0,0,1,1.22,1.19,2.69,2.69,0,0,1,.21,1.7A3.86,3.86,0,0,1,36.62,24.68Z"/><path d="M17.47 22.94A2.42 2.42 0 0 1 17 24.08a2.92 2.92 0 0 1-.94.73 3.73 3.73 0 0 1-.85.26 5.69 5.69 0 0 1-1 .09c0-.15.08-.43.14-.83s.12-.72.17-1c.13-.76.23-1.34.3-1.72s.12-.63.13-.72h.22a4.59 4.59 0 0 1 .93.09 2.22 2.22 0 0 1 .76.31 1.39 1.39 0 0 1 .53.66A1.75 1.75 0 0 1 17.47 22.94zM35.22 22.94a2.52 2.52 0 0 1-.47 1.14 2.92 2.92 0 0 1-.94.73 3.73 3.73 0 0 1-.85.26 5.87 5.87 0 0 1-1 .09c0-.15.07-.43.14-.83s.12-.72.16-1c.13-.76.23-1.34.31-1.72s.11-.63.13-.72h.21a4.45 4.45 0 0 1 .93.09 2.06 2.06 0 0 1 .76.31 1.35 1.35 0 0 1 .54.66A1.75 1.75 0 0 1 35.22 22.94z"/></svg>