<svg width="23" height="20" viewBox="0 0 23 20" fill="none" xmlns="http://www.w3.org/2000/svg">
<path d="M21.4709 4.84699C21.2255 3.92316 20.5026 3.19559 19.5848 2.94867C17.9211 2.5 11.2499 2.5 11.2499 2.5C11.2499 2.5 4.57884 2.5 2.91513 2.94867C1.99728 3.19563 1.27439 3.92316 1.02903 4.84699C0.583252 6.52148 0.583252 10.0152 0.583252 10.0152C0.583252 10.0152 0.583252 13.5088 1.02903 15.1833C1.27439 16.1071 1.99728 16.8044 2.91513 17.0513C4.57884 17.5 11.2499 17.5 11.2499 17.5C11.2499 17.5 17.921 17.5 19.5848 17.0513C20.5026 16.8044 21.2255 16.1071 21.4709 15.1833C21.9166 13.5088 21.9166 10.0152 21.9166 10.0152C21.9166 10.0152 21.9166 6.52148 21.4709 4.84699ZM9.06811 13.1871V6.84316L14.6439 10.0152L9.06811 13.1871Z" fill="#AD4C4C"/>
</svg>
