<svg width="51" height="50" viewBox="0 0 51 50" fill="none" xmlns="http://www.w3.org/2000/svg">
<g clip-path="url(#clip0)">
<path d="M13.8969 13.4522L14.992 12.3571L5.25733 2.63544C4.955 2.33311 4.465 2.33311 4.16266 2.63544C3.86033 2.93777 3.86033 3.42778 4.16266 3.73011L13.8969 13.4522Z" fill="#D8D6D4"/>
<path d="M12.1724 15.0926L13.2675 13.9975L3.58326 4.30951C3.28092 4.00718 2.79092 4.00718 2.48859 4.30951C2.18626 4.61185 2.18626 5.10185 2.48859 5.40418L12.1724 15.0926Z" fill="#D8D6D4"/>
<path d="M20.7307 13.4189C20.6932 11.8537 20.0844 10.3699 19.0402 9.23627L8.52577 0.391405C8.11222 0.0432058 7.50105 0.0695788 7.11884 0.451795C6.71216 0.858855 6.71216 1.51818 7.11884 1.92486L15.1396 9.94605C15.6316 10.438 15.6316 11.2353 15.1396 11.7272L11.5804 15.2864C11.0885 15.7783 10.2912 15.7783 9.79932 15.2864L1.77813 7.26556C1.37145 6.85889 0.711745 6.85889 0.305067 7.26556C-0.0771497 7.64778 -0.103523 8.25894 0.244676 8.6725L9.08954 19.1869C10.2232 20.2311 11.707 20.84 13.2721 20.8778L16.313 20.887C17.7177 20.8916 19.057 21.4832 20.0068 22.5183L44.1908 49.0693C45.3726 50.3478 47.5795 50.1881 48.8102 48.957C50.0413 47.7258 50.2011 45.5189 48.9226 44.3375L22.3716 20.1535C21.3365 19.2037 20.7448 17.8644 20.7403 16.4598L20.7307 13.4189Z" fill="#E2E2E2"/>
<path d="M49.7932 46.1511C49.7879 46.0984 49.7814 46.046 49.7733 45.9936C49.7577 45.8897 49.737 45.7861 49.711 45.6844C49.698 45.6336 49.6839 45.5831 49.6682 45.5331C49.528 45.0832 49.2822 44.67 48.9225 44.3375L22.3715 20.1535C22.2125 20.0079 22.0653 19.852 21.9277 19.6888C21.8414 19.5863 21.758 19.4816 21.6804 19.3734C21.63 19.3031 21.5818 19.2316 21.5352 19.159C21.3494 18.8685 21.1939 18.5601 21.0712 18.2386C20.8568 17.6764 20.7425 17.0744 20.7402 16.4594L20.7306 13.4189C20.7192 12.9296 20.6515 12.4484 20.5323 11.9837C20.4845 11.7975 20.4287 11.6141 20.3649 11.4337C20.0771 10.6226 19.6276 9.87383 19.0401 9.23629L8.52571 0.391423C8.47411 0.347851 8.41945 0.310393 8.36212 0.278287C8.21955 0.198786 8.06285 0.155596 7.90499 0.147952C7.84193 0.144894 7.77848 0.147569 7.71618 0.155978C7.49678 0.185409 7.2858 0.284785 7.11877 0.451814C6.71171 0.858874 6.71171 1.5182 7.11877 1.92488L15.1396 9.94606C15.2932 10.0997 15.3991 10.2832 15.4568 10.4781C15.4798 10.5561 15.495 10.6356 15.5027 10.7158C15.5103 10.7961 15.5103 10.8771 15.5027 10.9574C15.4912 11.0778 15.4626 11.1967 15.4163 11.3106C15.3548 11.4619 15.2627 11.6041 15.1396 11.7272L14.0365 12.8303L14.8017 13.4743C15.8459 14.608 16.4552 16.0917 16.4926 17.6569C16.4926 17.6569 16.4926 17.6898 16.493 17.7486C16.4991 19.3325 17.3874 20.7593 18.768 21.536C18.7691 21.5368 18.7703 21.5375 18.7718 21.5383C18.7993 21.554 18.8261 21.5704 18.8536 21.5865C18.8937 21.6098 18.9335 21.6339 18.9728 21.6587C19.0007 21.6759 19.0279 21.6935 19.0554 21.7114C19.0963 21.7382 19.1364 21.7657 19.1765 21.7936C19.1999 21.8101 19.2236 21.8261 19.2465 21.8425C19.3076 21.8869 19.3677 21.932 19.4269 21.979C19.4391 21.9886 19.4514 21.9993 19.4636 22.0092C19.5125 22.0486 19.5607 22.0891 19.6081 22.1304C19.6279 22.1476 19.6471 22.1651 19.6665 22.1827C19.7082 22.2202 19.7491 22.2584 19.7896 22.2974C19.8072 22.3142 19.8248 22.3306 19.842 22.3478C19.8982 22.4033 19.9532 22.4598 20.0067 22.5183L39.1454 43.5303L44.6845 48.5755C45.0602 48.9226 45.3106 49.3587 45.447 49.8322C45.6603 49.8938 45.8816 49.932 46.1056 49.9477C46.2531 49.958 46.4018 49.9588 46.5505 49.95C46.5547 49.9496 46.5589 49.9492 46.5631 49.9492C46.7095 49.94 46.8563 49.9217 47.0015 49.8942C47.0065 49.8934 47.0118 49.8919 47.0172 49.8911C47.0833 49.8781 47.1494 49.8636 47.2152 49.8468C47.2228 49.8449 47.2301 49.8433 47.2373 49.8414C47.308 49.8231 47.3788 49.8028 47.4483 49.7803C47.4495 49.7799 47.4502 49.7795 47.4514 49.7791C47.5164 49.7581 47.5802 49.7344 47.644 49.7099C47.657 49.7046 47.67 49.6996 47.6826 49.6943C47.7461 49.669 47.8091 49.6419 47.8711 49.6129C47.8722 49.6121 47.8737 49.6117 47.8749 49.6109C47.9379 49.5811 47.9999 49.549 48.061 49.5154C48.0752 49.5077 48.0893 49.4997 48.1031 49.4917C48.1524 49.4638 48.2009 49.4347 48.2487 49.4042C48.2609 49.3965 48.2735 49.3889 48.2858 49.3808C48.3431 49.3438 48.3989 49.3048 48.4539 49.2639C48.4646 49.2559 48.475 49.2475 48.4853 49.2394C48.53 49.2054 48.5739 49.1699 48.6168 49.1335C48.6313 49.1217 48.6454 49.1095 48.6596 49.0969C48.7112 49.0518 48.7616 49.0055 48.8102 48.957C49.4641 48.303 49.8158 47.3738 49.81 46.4687C49.8093 46.3625 49.8039 46.2562 49.7932 46.1511Z" fill="#A5A5A5"/>
<path d="M40.6032 18.9376C42.5239 18.7756 44.2694 17.7566 45.3549 16.1639L47.7541 12.6437C49.7191 9.76064 50.4912 6.22819 49.9079 2.78786C49.8127 2.22524 49.5276 1.73333 49.124 1.37558C48.7204 1.01782 48.1979 0.793843 47.6276 0.766323C44.1422 0.600059 40.7278 1.7899 38.1012 4.08664L34.8941 6.89019C33.4428 8.15915 32.6405 10.014 32.7101 11.9404L32.8832 14.976C32.9627 16.3787 32.4532 17.7512 31.4767 18.7614L6.42583 44.4961C5.22071 45.7524 5.51272 47.9459 6.81531 49.1006C8.11829 50.2557 10.3306 50.2824 11.4332 48.9355L33.979 20.9798C34.865 19.8894 36.1665 19.219 37.5684 19.1299L40.6032 18.9376Z" fill="#E2E2E2"/>
<path d="M49.9079 2.78791C49.8127 2.22491 49.5276 1.73338 49.124 1.37524C48.9726 1.24108 48.8044 1.12604 48.6236 1.03278C48.4425 0.939515 48.2487 0.868422 48.0454 0.822939C47.9097 0.792361 47.7702 0.773251 47.6276 0.766371C47.5026 0.760255 47.3772 0.756815 47.2523 0.75414C47.2144 0.753375 47.177 0.753375 47.1391 0.752993C47.0497 0.751847 46.9602 0.751464 46.8712 0.752229C46.8303 0.752611 46.7894 0.753375 46.7485 0.753758C46.6556 0.755669 46.5631 0.758344 46.4706 0.761784C46.4378 0.762931 46.4049 0.763695 46.372 0.765224C46.2455 0.770957 46.1194 0.778219 45.9932 0.787393C46.0242 3.534 45.217 6.24353 43.6514 8.54103L41.2522 12.0609C40.3995 13.3126 39.139 14.2097 37.7064 14.6156C36.6098 14.926 35.5373 15.317 34.5218 15.8341C33.5789 16.3142 32.6516 16.7938 32.6401 16.829C32.6367 16.8389 32.6333 16.8493 32.6298 16.8592C32.6069 16.928 32.5828 16.996 32.5572 17.0633C32.5518 17.0771 32.5461 17.0904 32.5408 17.1042C32.5155 17.1677 32.4899 17.2311 32.4624 17.2938C32.4544 17.3114 32.446 17.3286 32.4383 17.3458C32.4116 17.4042 32.3848 17.4623 32.3558 17.5201C32.3454 17.5411 32.3336 17.5617 32.3229 17.5831C32.2954 17.6362 32.2675 17.6894 32.238 17.7414C32.2239 17.7666 32.2086 17.791 32.1937 17.8159C32.1658 17.8633 32.1379 17.9111 32.1085 17.9577C32.0901 17.9871 32.0702 18.0154 32.0508 18.0445C32.0232 18.0857 31.9965 18.1278 31.9678 18.1683C31.9437 18.2023 31.9181 18.2352 31.8933 18.2684C31.8673 18.3032 31.8421 18.3388 31.8153 18.3728C31.7832 18.4137 31.7492 18.4534 31.7156 18.4936C31.6941 18.5192 31.6735 18.5455 31.6517 18.5708C31.5952 18.6354 31.5371 18.6992 31.4767 18.7611L6.42583 44.4961C5.22071 45.7525 5.51272 47.946 6.81531 49.1007C8.11829 50.2557 10.3306 50.2825 11.4332 48.9356L33.979 20.9799C34.865 19.8894 36.1665 19.219 37.5684 19.13L40.6032 18.9377C42.5239 18.7756 44.2694 17.7566 45.3549 16.164L47.7541 12.6437C49.7191 9.76068 50.4912 6.22824 49.9079 2.78791Z" fill="#A5A5A5"/>
</g>
<defs>
<clipPath id="clip0">
<rect width="50.0978" height="50" fill="white"/>
</clipPath>
</defs>
</svg>
