<svg width="300" height="227" viewBox="0 0 300 227" fill="none" xmlns="http://www.w3.org/2000/svg">
<path opacity="0.18" d="M269.55 100.057C260.925 72.3068 233.258 54.9368 207.255 45.7643C168.75 32.1743 123.128 40.1018 84.1275 48.1868C69.6 51.1868 55.0125 56.8043 44.9025 67.6868C26.1525 87.8243 21.12 132.187 38.94 154.439C46.875 164.339 60.12 168.037 72.6075 170.272C120.12 178.762 168.855 174.059 216.99 170.542C228.15 169.724 239.775 168.832 249.405 163.139C269.843 151.027 276.217 121.499 269.55 100.057Z" fill="#DDDBDB"/>
<path d="M86.3025 45.0516H82.98V104.414H86.3025V45.0516Z" fill="#FFD200"/>
<path d="M125.408 88.6716H55.3575V96.8167H125.408V88.6716Z" fill="#AD4C4C"/>
<path d="M123.173 88.6716H57.5925C56.3582 88.6716 55.3575 89.6723 55.3575 90.9066V94.5816C55.3575 95.816 56.3582 96.8167 57.5925 96.8167H123.173C124.407 96.8167 125.408 95.816 125.408 94.5816V90.9066C125.408 89.6723 124.407 88.6716 123.173 88.6716Z" fill="#AD4C4C"/>
<path d="M122.535 96.8167L119.085 143.392L117.045 170.872L115.688 189.179H65.085L61.0725 135.059L58.95 106.484L58.2375 96.8167H122.535Z" fill="#AD4C4C"/>
<path d="M119.085 143.392L117.045 170.872C116.04 170.444 115.027 170.002 114 169.552C104.106 165.286 94.7717 159.826 86.205 153.292C77.79 146.804 71.325 140.864 62.25 135.689L61.1025 135.059L58.98 106.484C71.94 110.189 83.94 118.484 94.515 126.907C102.232 133.042 109.237 138.539 118.635 143.167L119.085 143.392Z" fill="#FFD200"/>
<g opacity="0.4">
<path opacity="0.4" d="M122.535 96.8167L119.085 143.392L117.045 170.872L115.688 189.179H65.085L61.0725 135.059L58.95 106.484L58.2375 96.8167H122.535Z" fill="white"/>
<path opacity="0.4" d="M119.085 143.392L117.045 170.872C116.04 170.444 115.027 170.002 114 169.552C104.106 165.286 94.7717 159.826 86.205 153.292C77.79 146.804 71.325 140.864 62.25 135.689L61.1025 135.059L58.98 106.484C71.94 110.189 83.94 118.484 94.515 126.907C102.232 133.042 109.237 138.539 118.635 143.167L119.085 143.392Z" fill="white"/>
</g>
<path d="M136.905 173.677H240V178.072C240 181.018 238.83 183.843 236.747 185.926C234.664 188.009 231.838 189.179 228.893 189.179H148.013C145.067 189.179 142.241 188.009 140.158 185.926C138.075 183.843 136.905 181.018 136.905 178.072V173.677Z" fill="#AD4C4C"/>
<path d="M137.932 168.622C135.952 169.559 134.317 170.932 133.83 173.167C133.507 174.667 133.47 176.392 134.505 177.562C135.108 178.168 135.857 178.607 136.68 178.837C139.68 179.842 142.35 179.482 145.342 178.987C148.725 178.424 151.92 180.007 155.31 180.217C157.507 180.352 159.42 179.939 161.527 180.269C163.938 180.722 166.414 180.701 168.817 180.209C171.78 179.579 174.742 178.627 177.765 178.889C181.14 179.182 184.312 180.982 187.695 180.749C190.695 180.539 193.35 178.777 196.335 178.597C199.62 178.394 202.725 180.149 206.017 180.262C209.82 180.389 213.345 178.342 217.125 177.967C219.772 177.712 222.427 178.282 225.067 178.657C228.082 179.093 231.127 179.278 234.172 179.212C236.737 179.152 239.55 178.814 241.32 177.022C242.947 175.364 243.885 171.442 242.737 169.304C241.695 167.354 238.455 166.747 236.422 166.207C212.467 159.779 187.162 159.307 162.382 161.317C158.772 161.502 155.19 162.062 151.695 162.989C148.878 163.828 146.214 165.115 143.805 166.799C141.794 167.217 139.827 167.827 137.932 168.622Z" fill="#AD4C4C"/>
<path opacity="0.1" d="M137.932 168.622C135.952 169.559 134.317 170.932 133.83 173.167C133.507 174.667 133.47 176.392 134.505 177.562C135.108 178.168 135.857 178.607 136.68 178.837C139.68 179.842 142.35 179.482 145.342 178.987C148.725 178.424 151.92 180.007 155.31 180.217C157.507 180.352 159.42 179.939 161.527 180.269C163.938 180.722 166.414 180.701 168.817 180.209C171.78 179.579 174.742 178.627 177.765 178.889C181.14 179.182 184.312 180.982 187.695 180.749C190.695 180.539 193.35 178.777 196.335 178.597C199.62 178.394 202.725 180.149 206.017 180.262C209.82 180.389 213.345 178.342 217.125 177.967C219.772 177.712 222.427 178.282 225.067 178.657C228.082 179.093 231.127 179.278 234.172 179.212C236.737 179.152 239.55 178.814 241.32 177.022C242.947 175.364 243.885 171.442 242.737 169.304C241.695 167.354 238.455 166.747 236.422 166.207C212.467 159.779 187.162 159.307 162.382 161.317C158.772 161.502 155.19 162.062 151.695 162.989C148.878 163.828 146.214 165.115 143.805 166.799C141.794 167.217 139.827 167.827 137.932 168.622Z" fill="black"/>
<path d="M240.428 148.109H136.47C134.407 148.109 132.735 149.781 132.735 151.844V155.452C132.735 157.515 134.407 159.187 136.47 159.187H240.428C242.49 159.187 244.162 157.515 244.162 155.452V151.844C244.162 149.781 242.49 148.109 240.428 148.109Z" fill="#24285B"/>
<path d="M240.428 159.179H136.47C134.407 159.179 132.735 160.851 132.735 162.914V166.522C132.735 168.584 134.407 170.257 136.47 170.257H240.428C242.49 170.257 244.162 168.584 244.162 166.522V162.914C244.162 160.851 242.49 159.179 240.428 159.179Z" fill="#24285B"/>
<path d="M208.35 166.402L236.595 158.497L186.105 159.344L208.35 166.402Z" fill="#FFD200"/>
<path d="M135.233 142.672C135.233 121.544 159.06 104.422 188.483 104.422C217.905 104.422 241.733 121.552 241.733 142.672H135.233Z" fill="#AD4C4C"/>
<path d="M141.93 150.119L168.375 163.139L222.068 148.109L141.93 149.452" fill="#FFD200"/>
<path d="M132.75 144.307C131.791 145.588 131.306 147.162 131.377 148.762C131.377 151.522 132.975 154.469 135.637 155.189C139.042 156.112 142.252 153.209 145.732 152.632C150.232 151.882 154.807 155.114 159.232 154.034C161.07 153.584 162.712 152.422 164.595 152.212C167.482 151.882 170.145 153.847 173.04 154.117C176.535 154.432 179.887 152.257 183.382 152.557C186.382 152.812 189.12 154.807 192.075 154.394C193.373 154.082 194.632 153.621 195.825 153.022C198.377 152.008 201.174 151.778 203.857 152.362C207.51 153.164 211.44 155.407 214.695 153.569C215.572 153.067 216.277 152.317 217.11 151.747C218.388 150.873 219.924 150.458 221.467 150.569C223.425 150.712 225.217 151.672 226.995 152.497C230.923 154.389 235.37 154.916 239.632 153.997C243.09 153.284 247.095 149.857 245.49 146.024C244.177 142.897 240.517 142.544 237.577 142.162C234.637 141.779 231.427 141.569 228.39 141.457C221.077 141.187 213.765 141.269 206.46 141.097C195.435 140.834 184.425 140.407 173.422 139.724C162.277 139.042 150.585 138.097 139.882 141.974C137.407 142.874 134.512 142.079 132.75 144.307Z" fill="#AD4C4C"/>
<path opacity="0.1" d="M132.75 144.307C131.791 145.588 131.306 147.162 131.377 148.762C131.377 151.522 132.975 154.469 135.637 155.189C139.042 156.112 142.252 153.209 145.732 152.632C150.232 151.882 154.807 155.114 159.232 154.034C161.07 153.584 162.712 152.422 164.595 152.212C167.482 151.882 170.145 153.847 173.04 154.117C176.535 154.432 179.887 152.257 183.382 152.557C186.382 152.812 189.12 154.807 192.075 154.394C193.373 154.082 194.632 153.621 195.825 153.022C198.377 152.008 201.174 151.778 203.857 152.362C207.51 153.164 211.44 155.407 214.695 153.569C215.572 153.067 216.277 152.317 217.11 151.747C218.388 150.873 219.924 150.458 221.467 150.569C223.425 150.712 225.217 151.672 226.995 152.497C230.923 154.389 235.37 154.916 239.632 153.997C243.09 153.284 247.095 149.857 245.49 146.024C244.177 142.897 240.517 142.544 237.577 142.162C234.637 141.779 231.427 141.569 228.39 141.457C221.077 141.187 213.765 141.269 206.46 141.097C195.435 140.834 184.425 140.407 173.422 139.724C162.277 139.042 150.585 138.097 139.882 141.974C137.407 142.874 134.512 142.079 132.75 144.307Z" fill="black"/>
<path opacity="0.1" d="M174.622 116.279C174.459 116.014 174.199 115.821 173.898 115.742C173.596 115.662 173.276 115.701 173.002 115.852L167.797 118.327C167.528 118.485 167.332 118.743 167.252 119.045C167.172 119.347 167.214 119.668 167.37 119.939C167.533 120.205 167.793 120.397 168.094 120.477C168.396 120.556 168.717 120.517 168.99 120.367L174.195 117.892C174.464 117.734 174.66 117.475 174.741 117.173C174.821 116.872 174.778 116.55 174.622 116.279Z" fill="black"/>
<path opacity="0.1" d="M161.662 130.994C161.3 130.911 160.942 130.808 160.59 130.687L160.335 130.589L160.207 130.537L159.75 130.304C159.422 130.138 159.104 129.953 158.797 129.749L158.377 129.449L158.31 129.397L158.07 129.194C157.846 128.978 157.549 128.855 157.237 128.849C157.004 128.85 156.776 128.919 156.582 129.049C156.388 129.179 156.237 129.363 156.147 129.579C156.057 129.794 156.033 130.031 156.078 130.261C156.122 130.49 156.233 130.701 156.397 130.867C157.72 132.031 159.309 132.851 161.025 133.252C161.181 133.325 161.351 133.364 161.523 133.365C161.696 133.366 161.866 133.33 162.023 133.258C162.18 133.187 162.319 133.082 162.431 132.951C162.544 132.82 162.626 132.666 162.672 132.5C162.719 132.334 162.728 132.16 162.701 131.989C162.673 131.819 162.608 131.657 162.511 131.515C162.415 131.372 162.288 131.252 162.14 131.164C161.992 131.075 161.826 131.02 161.655 131.002L161.662 130.994Z" fill="black"/>
<path opacity="0.1" d="M193.14 119.534C192.367 119.586 191.592 119.565 190.823 119.474C190.352 119.403 189.887 119.306 189.428 119.182C189.272 119.108 189.102 119.069 188.929 119.068C188.757 119.067 188.586 119.104 188.429 119.175C188.272 119.247 188.133 119.352 188.021 119.483C187.909 119.614 187.827 119.768 187.78 119.934C187.734 120.1 187.724 120.274 187.752 120.444C187.78 120.614 187.844 120.776 187.941 120.919C188.038 121.062 188.165 121.181 188.313 121.27C188.461 121.358 188.626 121.414 188.798 121.432C190.211 121.818 191.678 121.967 193.14 121.874C193.453 121.865 193.751 121.743 193.98 121.529C194.199 121.304 194.322 121.003 194.325 120.689C194.315 120.381 194.186 120.088 193.965 119.873C193.744 119.657 193.449 119.536 193.14 119.534Z" fill="black"/>
<path opacity="0.1" d="M188.91 130.409C188.193 129.272 187.325 128.238 186.33 127.334C186.103 127.117 185.803 126.994 185.49 126.989C185.178 126.991 184.879 127.115 184.658 127.334C184.547 127.444 184.46 127.575 184.401 127.72C184.342 127.864 184.312 128.018 184.313 128.174C184.312 128.329 184.342 128.482 184.401 128.625C184.46 128.768 184.548 128.898 184.658 129.007C185.233 129.528 185.762 130.097 186.24 130.709C186.465 130.996 186.675 131.294 186.87 131.602C187.03 131.863 187.281 132.055 187.575 132.142C187.725 132.184 187.881 132.196 188.036 132.177C188.19 132.158 188.339 132.109 188.474 132.032C188.61 131.956 188.728 131.853 188.824 131.73C188.919 131.607 188.989 131.467 189.03 131.317C189.112 131.01 189.068 130.684 188.91 130.409Z" fill="black"/>
<path opacity="0.1" d="M229.013 123.314C228.783 123.105 228.49 122.981 228.18 122.962L223.545 122.362C223.233 122.362 222.933 122.486 222.712 122.706C222.492 122.927 222.368 123.227 222.368 123.539C222.367 123.695 222.397 123.849 222.456 123.994C222.515 124.138 222.602 124.269 222.713 124.379C222.945 124.582 223.237 124.704 223.545 124.724L228.18 125.332C228.335 125.332 228.488 125.302 228.631 125.243C228.774 125.184 228.904 125.097 229.013 124.987C229.234 124.763 229.358 124.461 229.358 124.147C229.359 123.992 229.329 123.838 229.27 123.695C229.211 123.552 229.123 123.422 229.013 123.314Z" fill="black"/>
<path opacity="0.1" d="M211.71 129.052C211.546 128.786 211.287 128.594 210.985 128.514C210.684 128.435 210.363 128.474 210.09 128.624L205.433 130.769C205.161 130.927 204.964 131.187 204.883 131.491C204.803 131.795 204.847 132.118 205.005 132.389C205.171 132.652 205.431 132.842 205.732 132.92C206.033 132.998 206.352 132.958 206.625 132.809L211.29 130.664C211.558 130.505 211.753 130.246 211.831 129.944C211.91 129.642 211.866 129.322 211.71 129.052Z" fill="black"/>
<path opacity="0.1" d="M206.865 115.859L203.062 111.209C202.839 110.99 202.539 110.867 202.226 110.867C201.913 110.867 201.613 110.99 201.39 111.209C201.176 111.435 201.056 111.734 201.056 112.045C201.056 112.357 201.176 112.656 201.39 112.882L205.192 117.532C205.302 117.642 205.432 117.73 205.576 117.79C205.719 117.849 205.873 117.88 206.029 117.88C206.184 117.88 206.338 117.849 206.482 117.79C206.625 117.73 206.756 117.642 206.865 117.532C207.078 117.305 207.196 117.006 207.196 116.695C207.196 116.385 207.078 116.086 206.865 115.859Z" fill="black"/>
<path opacity="0.1" d="M172.11 124.837L169.11 123.847C168.808 123.766 168.486 123.807 168.214 123.961C167.941 124.116 167.741 124.371 167.655 124.672C167.582 124.975 167.628 125.294 167.783 125.564C167.937 125.835 168.189 126.036 168.488 126.127L171.488 127.117C171.79 127.2 172.113 127.159 172.385 127.005C172.658 126.85 172.858 126.594 172.943 126.292C173.019 125.989 172.975 125.668 172.82 125.396C172.665 125.125 172.41 124.924 172.11 124.837Z" fill="black"/>
<path opacity="0.1" d="M156.105 120.119C155.949 119.855 155.696 119.661 155.4 119.579C155.091 119.502 154.764 119.545 154.485 119.699L152.273 120.899C152.01 121.061 151.817 121.315 151.733 121.612C151.69 121.761 151.678 121.918 151.697 122.072C151.716 122.227 151.765 122.376 151.842 122.511C151.919 122.646 152.021 122.765 152.144 122.861C152.267 122.956 152.407 123.026 152.558 123.067C152.864 123.14 153.188 123.098 153.465 122.947L155.715 121.739C155.985 121.58 156.181 121.32 156.26 121.016C156.339 120.712 156.294 120.39 156.135 120.119H156.105Z" fill="black"/>
<path opacity="0.1" d="M229.418 135.187C228.082 133.776 226.511 132.609 224.775 131.737C224.503 131.584 224.183 131.542 223.881 131.621C223.579 131.699 223.319 131.891 223.155 132.157C222.998 132.428 222.955 132.75 223.033 133.053C223.112 133.356 223.306 133.616 223.575 133.777C224.39 134.181 225.168 134.655 225.9 135.194L226.14 135.374C225.863 135.172 226.14 135.374 226.223 135.449L226.748 135.884C227.093 136.192 227.43 136.522 227.745 136.859C227.968 137.079 228.268 137.202 228.581 137.202C228.894 137.202 229.195 137.079 229.418 136.859C229.633 136.634 229.754 136.335 229.754 136.023C229.754 135.711 229.633 135.412 229.418 135.187Z" fill="black"/>
<path opacity="0.1" d="M177.795 129.772C177.739 129.571 177.606 129.401 177.424 129.298C177.243 129.195 177.028 129.169 176.827 129.224C176.629 129.284 176.461 129.417 176.359 129.598C176.257 129.778 176.229 129.991 176.28 130.192C176.28 130.192 176.28 130.334 176.28 130.357C176.28 130.379 176.28 130.537 176.28 130.634C176.28 130.732 176.28 130.979 176.332 131.152C176.332 131.512 176.392 131.902 176.407 132.239C176.407 132.989 176.407 133.687 176.407 134.414C176.402 134.519 176.419 134.624 176.456 134.722C176.494 134.82 176.552 134.909 176.626 134.983C176.7 135.057 176.789 135.115 176.887 135.153C176.985 135.19 177.09 135.207 177.195 135.202C177.402 135.196 177.599 135.111 177.746 134.965C177.892 134.818 177.977 134.621 177.982 134.414C178.077 132.864 178.015 131.309 177.795 129.772Z" fill="black"/>
<path d="M268.507 185.459H39.4424C37.6033 185.459 36.1124 186.95 36.1124 188.789V189.577C36.1124 191.416 37.6033 192.907 39.4424 192.907H268.507C270.347 192.907 271.837 191.416 271.837 189.577V188.789C271.837 186.95 270.347 185.459 268.507 185.459Z" fill="#E6E6E6"/>
</svg>
